G04 MADE WITH FRITZING*
G04 WWW.FRITZING.ORG*
G04 DOUBLE SIDED*
G04 HOLES PLATED*
G04 CONTOUR ON CENTER OF CONTOUR VECTOR*
%ASAXBY*%
%FSLAX23Y23*%
%MOIN*%
%OFA0B0*%
%SFA1.0B1.0*%
%ADD10R,0.001000X0.001000*%
%LNSILK1*%
G90*
G70*
G54D10*
X115Y2216D02*
X3238Y2216D01*
X105Y2215D02*
X3248Y2215D01*
X99Y2214D02*
X3254Y2214D01*
X95Y2213D02*
X3259Y2213D01*
X90Y2212D02*
X3263Y2212D01*
X87Y2211D02*
X3266Y2211D01*
X84Y2210D02*
X3269Y2210D01*
X81Y2209D02*
X3272Y2209D01*
X78Y2208D02*
X3275Y2208D01*
X76Y2207D02*
X3277Y2207D01*
X73Y2206D02*
X3280Y2206D01*
X71Y2205D02*
X108Y2205D01*
X3246Y2205D02*
X3282Y2205D01*
X69Y2204D02*
X101Y2204D01*
X3252Y2204D02*
X3284Y2204D01*
X67Y2203D02*
X96Y2203D01*
X3257Y2203D02*
X3286Y2203D01*
X65Y2202D02*
X92Y2202D01*
X3261Y2202D02*
X3288Y2202D01*
X63Y2201D02*
X88Y2201D01*
X3265Y2201D02*
X3290Y2201D01*
X61Y2200D02*
X85Y2200D01*
X3268Y2200D02*
X3292Y2200D01*
X60Y2199D02*
X82Y2199D01*
X3271Y2199D02*
X3294Y2199D01*
X58Y2198D02*
X80Y2198D01*
X3273Y2198D02*
X3295Y2198D01*
X56Y2197D02*
X77Y2197D01*
X3276Y2197D02*
X3297Y2197D01*
X55Y2196D02*
X75Y2196D01*
X3278Y2196D02*
X3298Y2196D01*
X53Y2195D02*
X73Y2195D01*
X3280Y2195D02*
X3300Y2195D01*
X52Y2194D02*
X71Y2194D01*
X3282Y2194D02*
X3301Y2194D01*
X50Y2193D02*
X69Y2193D01*
X3284Y2193D02*
X3303Y2193D01*
X49Y2192D02*
X67Y2192D01*
X3286Y2192D02*
X3304Y2192D01*
X48Y2191D02*
X65Y2191D01*
X3288Y2191D02*
X3306Y2191D01*
X46Y2190D02*
X63Y2190D01*
X3290Y2190D02*
X3307Y2190D01*
X45Y2189D02*
X62Y2189D01*
X3291Y2189D02*
X3308Y2189D01*
X44Y2188D02*
X60Y2188D01*
X3293Y2188D02*
X3309Y2188D01*
X43Y2187D02*
X59Y2187D01*
X3294Y2187D02*
X3311Y2187D01*
X41Y2186D02*
X57Y2186D01*
X3296Y2186D02*
X3312Y2186D01*
X40Y2185D02*
X56Y2185D01*
X3297Y2185D02*
X3313Y2185D01*
X39Y2184D02*
X55Y2184D01*
X3298Y2184D02*
X3314Y2184D01*
X38Y2183D02*
X53Y2183D01*
X3300Y2183D02*
X3315Y2183D01*
X37Y2182D02*
X52Y2182D01*
X3301Y2182D02*
X3316Y2182D01*
X36Y2181D02*
X51Y2181D01*
X3302Y2181D02*
X3317Y2181D01*
X35Y2180D02*
X49Y2180D01*
X3304Y2180D02*
X3318Y2180D01*
X34Y2179D02*
X48Y2179D01*
X3305Y2179D02*
X3319Y2179D01*
X33Y2178D02*
X47Y2178D01*
X3306Y2178D02*
X3320Y2178D01*
X32Y2177D02*
X46Y2177D01*
X3307Y2177D02*
X3321Y2177D01*
X31Y2176D02*
X45Y2176D01*
X3308Y2176D02*
X3322Y2176D01*
X30Y2175D02*
X44Y2175D01*
X3309Y2175D02*
X3323Y2175D01*
X29Y2174D02*
X43Y2174D01*
X3310Y2174D02*
X3324Y2174D01*
X29Y2173D02*
X42Y2173D01*
X3311Y2173D02*
X3325Y2173D01*
X28Y2172D02*
X41Y2172D01*
X3312Y2172D02*
X3326Y2172D01*
X27Y2171D02*
X40Y2171D01*
X3313Y2171D02*
X3326Y2171D01*
X26Y2170D02*
X39Y2170D01*
X3314Y2170D02*
X3327Y2170D01*
X25Y2169D02*
X38Y2169D01*
X3315Y2169D02*
X3328Y2169D01*
X24Y2168D02*
X37Y2168D01*
X3316Y2168D02*
X3329Y2168D01*
X24Y2167D02*
X36Y2167D01*
X3317Y2167D02*
X3329Y2167D01*
X23Y2166D02*
X35Y2166D01*
X3318Y2166D02*
X3330Y2166D01*
X22Y2165D02*
X34Y2165D01*
X3319Y2165D02*
X3331Y2165D01*
X22Y2164D02*
X34Y2164D01*
X3320Y2164D02*
X3332Y2164D01*
X21Y2163D02*
X33Y2163D01*
X3320Y2163D02*
X3332Y2163D01*
X20Y2162D02*
X32Y2162D01*
X3321Y2162D02*
X3333Y2162D01*
X19Y2161D02*
X31Y2161D01*
X3322Y2161D02*
X3334Y2161D01*
X19Y2160D02*
X31Y2160D01*
X3323Y2160D02*
X3334Y2160D01*
X18Y2159D02*
X30Y2159D01*
X3323Y2159D02*
X3335Y2159D01*
X18Y2158D02*
X29Y2158D01*
X3324Y2158D02*
X3336Y2158D01*
X17Y2157D02*
X28Y2157D01*
X3325Y2157D02*
X3336Y2157D01*
X16Y2156D02*
X28Y2156D01*
X3326Y2156D02*
X3337Y2156D01*
X16Y2155D02*
X27Y2155D01*
X3326Y2155D02*
X3337Y2155D01*
X15Y2154D02*
X26Y2154D01*
X3327Y2154D02*
X3338Y2154D01*
X15Y2153D02*
X26Y2153D01*
X3328Y2153D02*
X3339Y2153D01*
X14Y2152D02*
X25Y2152D01*
X3328Y2152D02*
X3339Y2152D01*
X13Y2151D02*
X24Y2151D01*
X3329Y2151D02*
X3340Y2151D01*
X13Y2150D02*
X24Y2150D01*
X3329Y2150D02*
X3340Y2150D01*
X12Y2149D02*
X23Y2149D01*
X3330Y2149D02*
X3341Y2149D01*
X12Y2148D02*
X23Y2148D01*
X3331Y2148D02*
X3341Y2148D01*
X11Y2147D02*
X22Y2147D01*
X3331Y2147D02*
X3342Y2147D01*
X11Y2146D02*
X21Y2146D01*
X3332Y2146D02*
X3342Y2146D01*
X10Y2145D02*
X21Y2145D01*
X3332Y2145D02*
X3343Y2145D01*
X10Y2144D02*
X20Y2144D01*
X3333Y2144D02*
X3343Y2144D01*
X10Y2143D02*
X20Y2143D01*
X3333Y2143D02*
X3344Y2143D01*
X9Y2142D02*
X19Y2142D01*
X3334Y2142D02*
X3344Y2142D01*
X9Y2141D02*
X19Y2141D01*
X3334Y2141D02*
X3345Y2141D01*
X8Y2140D02*
X18Y2140D01*
X3335Y2140D02*
X3345Y2140D01*
X8Y2139D02*
X18Y2139D01*
X3335Y2139D02*
X3345Y2139D01*
X7Y2138D02*
X18Y2138D01*
X3336Y2138D02*
X3346Y2138D01*
X7Y2137D02*
X17Y2137D01*
X3336Y2137D02*
X3346Y2137D01*
X7Y2136D02*
X17Y2136D01*
X3337Y2136D02*
X3347Y2136D01*
X6Y2135D02*
X16Y2135D01*
X3337Y2135D02*
X3347Y2135D01*
X6Y2134D02*
X16Y2134D01*
X3337Y2134D02*
X3347Y2134D01*
X6Y2133D02*
X15Y2133D01*
X3338Y2133D02*
X3348Y2133D01*
X5Y2132D02*
X15Y2132D01*
X134Y2132D02*
X149Y2132D01*
X2417Y2132D02*
X2432Y2132D01*
X3338Y2132D02*
X3348Y2132D01*
X5Y2131D02*
X15Y2131D01*
X129Y2131D02*
X154Y2131D01*
X2412Y2131D02*
X2437Y2131D01*
X3338Y2131D02*
X3348Y2131D01*
X5Y2130D02*
X14Y2130D01*
X125Y2130D02*
X158Y2130D01*
X2408Y2130D02*
X2441Y2130D01*
X3339Y2130D02*
X3349Y2130D01*
X4Y2129D02*
X14Y2129D01*
X122Y2129D02*
X161Y2129D01*
X2405Y2129D02*
X2444Y2129D01*
X3339Y2129D02*
X3349Y2129D01*
X4Y2128D02*
X14Y2128D01*
X119Y2128D02*
X163Y2128D01*
X2402Y2128D02*
X2447Y2128D01*
X3339Y2128D02*
X3349Y2128D01*
X4Y2127D02*
X13Y2127D01*
X117Y2127D02*
X166Y2127D01*
X2400Y2127D02*
X2449Y2127D01*
X3340Y2127D02*
X3350Y2127D01*
X3Y2126D02*
X13Y2126D01*
X115Y2126D02*
X168Y2126D01*
X2398Y2126D02*
X2451Y2126D01*
X3340Y2126D02*
X3350Y2126D01*
X3Y2125D02*
X13Y2125D01*
X113Y2125D02*
X170Y2125D01*
X2396Y2125D02*
X2453Y2125D01*
X3340Y2125D02*
X3350Y2125D01*
X3Y2124D02*
X12Y2124D01*
X111Y2124D02*
X171Y2124D01*
X2395Y2124D02*
X2455Y2124D01*
X3341Y2124D02*
X3350Y2124D01*
X3Y2123D02*
X12Y2123D01*
X110Y2123D02*
X173Y2123D01*
X2393Y2123D02*
X2456Y2123D01*
X3341Y2123D02*
X3351Y2123D01*
X2Y2122D02*
X12Y2122D01*
X108Y2122D02*
X137Y2122D01*
X146Y2122D02*
X174Y2122D01*
X2391Y2122D02*
X2420Y2122D01*
X2429Y2122D02*
X2458Y2122D01*
X3341Y2122D02*
X3351Y2122D01*
X2Y2121D02*
X12Y2121D01*
X107Y2121D02*
X130Y2121D01*
X153Y2121D02*
X176Y2121D01*
X2390Y2121D02*
X2413Y2121D01*
X2436Y2121D02*
X2459Y2121D01*
X3342Y2121D02*
X3351Y2121D01*
X2Y2120D02*
X11Y2120D01*
X105Y2120D02*
X126Y2120D01*
X156Y2120D02*
X177Y2120D01*
X2389Y2120D02*
X2409Y2120D01*
X2440Y2120D02*
X2461Y2120D01*
X3342Y2120D02*
X3351Y2120D01*
X2Y2119D02*
X11Y2119D01*
X104Y2119D02*
X123Y2119D01*
X159Y2119D02*
X178Y2119D01*
X2387Y2119D02*
X2407Y2119D01*
X2443Y2119D02*
X2462Y2119D01*
X3342Y2119D02*
X3352Y2119D01*
X1Y2118D02*
X11Y2118D01*
X103Y2118D02*
X121Y2118D01*
X162Y2118D02*
X180Y2118D01*
X2386Y2118D02*
X2404Y2118D01*
X2445Y2118D02*
X2463Y2118D01*
X3342Y2118D02*
X3352Y2118D01*
X1Y2117D02*
X11Y2117D01*
X102Y2117D02*
X119Y2117D01*
X164Y2117D02*
X181Y2117D01*
X2385Y2117D02*
X2402Y2117D01*
X2447Y2117D02*
X2464Y2117D01*
X3342Y2117D02*
X3352Y2117D01*
X1Y2116D02*
X10Y2116D01*
X101Y2116D02*
X117Y2116D01*
X166Y2116D02*
X182Y2116D01*
X2384Y2116D02*
X2400Y2116D01*
X2449Y2116D02*
X2465Y2116D01*
X3343Y2116D02*
X3352Y2116D01*
X1Y2115D02*
X10Y2115D01*
X100Y2115D02*
X115Y2115D01*
X167Y2115D02*
X183Y2115D01*
X2383Y2115D02*
X2399Y2115D01*
X2451Y2115D02*
X2466Y2115D01*
X3343Y2115D02*
X3352Y2115D01*
X1Y2114D02*
X10Y2114D01*
X99Y2114D02*
X114Y2114D01*
X169Y2114D02*
X184Y2114D01*
X2382Y2114D02*
X2397Y2114D01*
X2452Y2114D02*
X2467Y2114D01*
X3343Y2114D02*
X3353Y2114D01*
X0Y2113D02*
X10Y2113D01*
X98Y2113D02*
X112Y2113D01*
X170Y2113D02*
X185Y2113D01*
X2381Y2113D02*
X2396Y2113D01*
X2454Y2113D02*
X2468Y2113D01*
X3343Y2113D02*
X3353Y2113D01*
X0Y2112D02*
X10Y2112D01*
X97Y2112D02*
X111Y2112D01*
X172Y2112D02*
X186Y2112D01*
X2380Y2112D02*
X2394Y2112D01*
X2455Y2112D02*
X2469Y2112D01*
X3343Y2112D02*
X3353Y2112D01*
X0Y2111D02*
X10Y2111D01*
X96Y2111D02*
X110Y2111D01*
X173Y2111D02*
X186Y2111D01*
X2379Y2111D02*
X2393Y2111D01*
X2456Y2111D02*
X2470Y2111D01*
X3344Y2111D02*
X3353Y2111D01*
X0Y2110D02*
X9Y2110D01*
X95Y2110D02*
X108Y2110D01*
X174Y2110D02*
X187Y2110D01*
X2379Y2110D02*
X2392Y2110D01*
X2457Y2110D02*
X2471Y2110D01*
X3344Y2110D02*
X3353Y2110D01*
X0Y2109D02*
X9Y2109D01*
X94Y2109D02*
X107Y2109D01*
X175Y2109D02*
X188Y2109D01*
X2378Y2109D02*
X2391Y2109D01*
X2458Y2109D02*
X2471Y2109D01*
X3344Y2109D02*
X3353Y2109D01*
X0Y2108D02*
X9Y2108D01*
X94Y2108D02*
X106Y2108D01*
X176Y2108D02*
X189Y2108D01*
X2377Y2108D02*
X2390Y2108D01*
X2460Y2108D02*
X2472Y2108D01*
X3344Y2108D02*
X3353Y2108D01*
X0Y2107D02*
X9Y2107D01*
X93Y2107D02*
X105Y2107D01*
X177Y2107D02*
X189Y2107D01*
X2376Y2107D02*
X2389Y2107D01*
X2460Y2107D02*
X2473Y2107D01*
X3344Y2107D02*
X3354Y2107D01*
X0Y2106D02*
X9Y2106D01*
X92Y2106D02*
X104Y2106D01*
X178Y2106D02*
X190Y2106D01*
X2376Y2106D02*
X2388Y2106D01*
X2461Y2106D02*
X2473Y2106D01*
X3344Y2106D02*
X3354Y2106D01*
X0Y2105D02*
X9Y2105D01*
X92Y2105D02*
X104Y2105D01*
X179Y2105D02*
X191Y2105D01*
X2375Y2105D02*
X2387Y2105D01*
X2462Y2105D02*
X2474Y2105D01*
X3344Y2105D02*
X3354Y2105D01*
X0Y2104D02*
X9Y2104D01*
X91Y2104D02*
X103Y2104D01*
X180Y2104D02*
X191Y2104D01*
X2374Y2104D02*
X2386Y2104D01*
X2463Y2104D02*
X2475Y2104D01*
X3344Y2104D02*
X3354Y2104D01*
X0Y2103D02*
X9Y2103D01*
X91Y2103D02*
X102Y2103D01*
X181Y2103D02*
X192Y2103D01*
X2374Y2103D02*
X2385Y2103D01*
X2464Y2103D02*
X2475Y2103D01*
X3345Y2103D02*
X3354Y2103D01*
X0Y2102D02*
X9Y2102D01*
X90Y2102D02*
X101Y2102D01*
X181Y2102D02*
X193Y2102D01*
X2373Y2102D02*
X2385Y2102D01*
X2465Y2102D02*
X2476Y2102D01*
X3345Y2102D02*
X3354Y2102D01*
X0Y2101D02*
X8Y2101D01*
X89Y2101D02*
X100Y2101D01*
X182Y2101D02*
X193Y2101D01*
X2373Y2101D02*
X2384Y2101D01*
X2465Y2101D02*
X2476Y2101D01*
X3345Y2101D02*
X3354Y2101D01*
X0Y2100D02*
X8Y2100D01*
X89Y2100D02*
X100Y2100D01*
X183Y2100D02*
X194Y2100D01*
X2372Y2100D02*
X2383Y2100D01*
X2466Y2100D02*
X2477Y2100D01*
X3345Y2100D02*
X3354Y2100D01*
X0Y2099D02*
X8Y2099D01*
X88Y2099D02*
X99Y2099D01*
X183Y2099D02*
X194Y2099D01*
X2372Y2099D02*
X2382Y2099D01*
X2467Y2099D02*
X2477Y2099D01*
X3345Y2099D02*
X3354Y2099D01*
X0Y2098D02*
X8Y2098D01*
X88Y2098D02*
X98Y2098D01*
X184Y2098D02*
X195Y2098D01*
X2371Y2098D02*
X2382Y2098D01*
X2467Y2098D02*
X2478Y2098D01*
X3345Y2098D02*
X3354Y2098D01*
X0Y2097D02*
X8Y2097D01*
X87Y2097D02*
X98Y2097D01*
X185Y2097D02*
X195Y2097D01*
X2371Y2097D02*
X2381Y2097D01*
X2468Y2097D02*
X2478Y2097D01*
X3345Y2097D02*
X3354Y2097D01*
X0Y2096D02*
X8Y2096D01*
X87Y2096D02*
X97Y2096D01*
X185Y2096D02*
X195Y2096D01*
X2370Y2096D02*
X2381Y2096D01*
X2468Y2096D02*
X2479Y2096D01*
X3345Y2096D02*
X3354Y2096D01*
X0Y2095D02*
X8Y2095D01*
X87Y2095D02*
X97Y2095D01*
X186Y2095D02*
X196Y2095D01*
X2370Y2095D02*
X2380Y2095D01*
X2469Y2095D02*
X2479Y2095D01*
X3345Y2095D02*
X3354Y2095D01*
X0Y2094D02*
X8Y2094D01*
X86Y2094D02*
X96Y2094D01*
X186Y2094D02*
X196Y2094D01*
X2370Y2094D02*
X2380Y2094D01*
X2469Y2094D02*
X2480Y2094D01*
X3345Y2094D02*
X3354Y2094D01*
X0Y2093D02*
X8Y2093D01*
X86Y2093D02*
X96Y2093D01*
X187Y2093D02*
X197Y2093D01*
X2369Y2093D02*
X2379Y2093D01*
X2470Y2093D02*
X2480Y2093D01*
X3345Y2093D02*
X3354Y2093D01*
X0Y2092D02*
X8Y2092D01*
X86Y2092D02*
X95Y2092D01*
X187Y2092D02*
X197Y2092D01*
X2369Y2092D02*
X2379Y2092D01*
X2470Y2092D02*
X2480Y2092D01*
X3345Y2092D02*
X3354Y2092D01*
X0Y2091D02*
X8Y2091D01*
X85Y2091D02*
X95Y2091D01*
X187Y2091D02*
X197Y2091D01*
X2369Y2091D02*
X2378Y2091D01*
X2471Y2091D02*
X2481Y2091D01*
X3345Y2091D02*
X3354Y2091D01*
X0Y2090D02*
X8Y2090D01*
X85Y2090D02*
X95Y2090D01*
X188Y2090D02*
X198Y2090D01*
X2368Y2090D02*
X2378Y2090D01*
X2471Y2090D02*
X2481Y2090D01*
X3345Y2090D02*
X3354Y2090D01*
X0Y2089D02*
X8Y2089D01*
X85Y2089D02*
X94Y2089D01*
X188Y2089D02*
X198Y2089D01*
X2368Y2089D02*
X2378Y2089D01*
X2471Y2089D02*
X2481Y2089D01*
X3345Y2089D02*
X3354Y2089D01*
X0Y2088D02*
X8Y2088D01*
X84Y2088D02*
X94Y2088D01*
X188Y2088D02*
X198Y2088D01*
X2368Y2088D02*
X2377Y2088D01*
X2472Y2088D02*
X2481Y2088D01*
X3345Y2088D02*
X3354Y2088D01*
X0Y2087D02*
X8Y2087D01*
X84Y2087D02*
X94Y2087D01*
X189Y2087D02*
X198Y2087D01*
X2367Y2087D02*
X2377Y2087D01*
X2472Y2087D02*
X2482Y2087D01*
X3345Y2087D02*
X3354Y2087D01*
X0Y2086D02*
X8Y2086D01*
X84Y2086D02*
X93Y2086D01*
X189Y2086D02*
X199Y2086D01*
X2367Y2086D02*
X2377Y2086D01*
X2472Y2086D02*
X2482Y2086D01*
X3345Y2086D02*
X3354Y2086D01*
X0Y2085D02*
X8Y2085D01*
X84Y2085D02*
X93Y2085D01*
X189Y2085D02*
X199Y2085D01*
X2367Y2085D02*
X2377Y2085D01*
X2473Y2085D02*
X2482Y2085D01*
X3345Y2085D02*
X3354Y2085D01*
X0Y2084D02*
X8Y2084D01*
X83Y2084D02*
X93Y2084D01*
X190Y2084D02*
X199Y2084D01*
X2367Y2084D02*
X2376Y2084D01*
X2473Y2084D02*
X2482Y2084D01*
X3345Y2084D02*
X3354Y2084D01*
X0Y2083D02*
X8Y2083D01*
X83Y2083D02*
X93Y2083D01*
X190Y2083D02*
X199Y2083D01*
X2367Y2083D02*
X2376Y2083D01*
X2473Y2083D02*
X2483Y2083D01*
X3345Y2083D02*
X3354Y2083D01*
X0Y2082D02*
X8Y2082D01*
X83Y2082D02*
X93Y2082D01*
X190Y2082D02*
X199Y2082D01*
X2367Y2082D02*
X2376Y2082D01*
X2473Y2082D02*
X2483Y2082D01*
X3345Y2082D02*
X3354Y2082D01*
X0Y2081D02*
X8Y2081D01*
X83Y2081D02*
X92Y2081D01*
X190Y2081D02*
X199Y2081D01*
X2366Y2081D02*
X2376Y2081D01*
X2473Y2081D02*
X2483Y2081D01*
X3345Y2081D02*
X3354Y2081D01*
X0Y2080D02*
X8Y2080D01*
X83Y2080D02*
X92Y2080D01*
X190Y2080D02*
X200Y2080D01*
X2366Y2080D02*
X2376Y2080D01*
X2474Y2080D02*
X2483Y2080D01*
X3345Y2080D02*
X3354Y2080D01*
X0Y2079D02*
X8Y2079D01*
X83Y2079D02*
X92Y2079D01*
X190Y2079D02*
X200Y2079D01*
X2366Y2079D02*
X2376Y2079D01*
X2474Y2079D02*
X2483Y2079D01*
X3345Y2079D02*
X3354Y2079D01*
X0Y2078D02*
X8Y2078D01*
X83Y2078D02*
X92Y2078D01*
X190Y2078D02*
X200Y2078D01*
X2366Y2078D02*
X2375Y2078D01*
X2474Y2078D02*
X2483Y2078D01*
X3345Y2078D02*
X3354Y2078D01*
X0Y2077D02*
X8Y2077D01*
X83Y2077D02*
X92Y2077D01*
X190Y2077D02*
X200Y2077D01*
X2366Y2077D02*
X2375Y2077D01*
X2474Y2077D02*
X2483Y2077D01*
X3345Y2077D02*
X3354Y2077D01*
X0Y2076D02*
X8Y2076D01*
X83Y2076D02*
X92Y2076D01*
X191Y2076D02*
X200Y2076D01*
X2366Y2076D02*
X2375Y2076D01*
X2474Y2076D02*
X2483Y2076D01*
X3345Y2076D02*
X3354Y2076D01*
X0Y2075D02*
X8Y2075D01*
X82Y2075D02*
X92Y2075D01*
X191Y2075D02*
X200Y2075D01*
X2366Y2075D02*
X2375Y2075D01*
X2474Y2075D02*
X2483Y2075D01*
X3345Y2075D02*
X3354Y2075D01*
X0Y2074D02*
X8Y2074D01*
X82Y2074D02*
X92Y2074D01*
X191Y2074D02*
X200Y2074D01*
X2366Y2074D02*
X2375Y2074D01*
X2474Y2074D02*
X2483Y2074D01*
X3345Y2074D02*
X3354Y2074D01*
X0Y2073D02*
X8Y2073D01*
X82Y2073D02*
X92Y2073D01*
X191Y2073D02*
X200Y2073D01*
X2366Y2073D02*
X2375Y2073D01*
X2474Y2073D02*
X2483Y2073D01*
X3345Y2073D02*
X3354Y2073D01*
X0Y2072D02*
X8Y2072D01*
X82Y2072D02*
X92Y2072D01*
X191Y2072D02*
X200Y2072D01*
X2366Y2072D02*
X2375Y2072D01*
X2474Y2072D02*
X2483Y2072D01*
X3345Y2072D02*
X3354Y2072D01*
X0Y2071D02*
X8Y2071D01*
X83Y2071D02*
X92Y2071D01*
X191Y2071D02*
X200Y2071D01*
X2366Y2071D02*
X2375Y2071D01*
X2474Y2071D02*
X2483Y2071D01*
X3345Y2071D02*
X3354Y2071D01*
X0Y2070D02*
X8Y2070D01*
X83Y2070D02*
X92Y2070D01*
X191Y2070D02*
X200Y2070D01*
X2366Y2070D02*
X2375Y2070D01*
X2474Y2070D02*
X2483Y2070D01*
X3345Y2070D02*
X3354Y2070D01*
X0Y2069D02*
X8Y2069D01*
X83Y2069D02*
X92Y2069D01*
X190Y2069D02*
X200Y2069D01*
X2366Y2069D02*
X2375Y2069D01*
X2474Y2069D02*
X2483Y2069D01*
X3345Y2069D02*
X3354Y2069D01*
X0Y2068D02*
X8Y2068D01*
X83Y2068D02*
X92Y2068D01*
X190Y2068D02*
X200Y2068D01*
X2366Y2068D02*
X2375Y2068D01*
X2474Y2068D02*
X2483Y2068D01*
X3345Y2068D02*
X3354Y2068D01*
X0Y2067D02*
X8Y2067D01*
X83Y2067D02*
X92Y2067D01*
X190Y2067D02*
X200Y2067D01*
X2366Y2067D02*
X2376Y2067D01*
X2474Y2067D02*
X2483Y2067D01*
X3345Y2067D02*
X3354Y2067D01*
X0Y2066D02*
X8Y2066D01*
X83Y2066D02*
X92Y2066D01*
X190Y2066D02*
X200Y2066D01*
X2366Y2066D02*
X2376Y2066D01*
X2473Y2066D02*
X2483Y2066D01*
X3345Y2066D02*
X3354Y2066D01*
X0Y2065D02*
X8Y2065D01*
X83Y2065D02*
X93Y2065D01*
X190Y2065D02*
X199Y2065D01*
X2366Y2065D02*
X2376Y2065D01*
X2473Y2065D02*
X2483Y2065D01*
X3345Y2065D02*
X3354Y2065D01*
X0Y2064D02*
X8Y2064D01*
X83Y2064D02*
X93Y2064D01*
X190Y2064D02*
X199Y2064D01*
X2367Y2064D02*
X2376Y2064D01*
X2473Y2064D02*
X2483Y2064D01*
X3345Y2064D02*
X3354Y2064D01*
X0Y2063D02*
X8Y2063D01*
X83Y2063D02*
X93Y2063D01*
X190Y2063D02*
X199Y2063D01*
X2367Y2063D02*
X2376Y2063D01*
X2473Y2063D02*
X2482Y2063D01*
X3345Y2063D02*
X3354Y2063D01*
X0Y2062D02*
X8Y2062D01*
X84Y2062D02*
X93Y2062D01*
X189Y2062D02*
X199Y2062D01*
X2367Y2062D02*
X2376Y2062D01*
X2473Y2062D02*
X2482Y2062D01*
X3345Y2062D02*
X3354Y2062D01*
X0Y2061D02*
X8Y2061D01*
X84Y2061D02*
X93Y2061D01*
X189Y2061D02*
X199Y2061D01*
X2367Y2061D02*
X2377Y2061D01*
X2472Y2061D02*
X2482Y2061D01*
X3345Y2061D02*
X3354Y2061D01*
X0Y2060D02*
X8Y2060D01*
X84Y2060D02*
X94Y2060D01*
X189Y2060D02*
X198Y2060D01*
X2367Y2060D02*
X2377Y2060D01*
X2472Y2060D02*
X2482Y2060D01*
X3345Y2060D02*
X3354Y2060D01*
X0Y2059D02*
X8Y2059D01*
X84Y2059D02*
X94Y2059D01*
X189Y2059D02*
X198Y2059D01*
X2368Y2059D02*
X2377Y2059D01*
X2472Y2059D02*
X2482Y2059D01*
X3345Y2059D02*
X3354Y2059D01*
X0Y2058D02*
X8Y2058D01*
X85Y2058D02*
X94Y2058D01*
X188Y2058D02*
X198Y2058D01*
X2368Y2058D02*
X2378Y2058D01*
X2472Y2058D02*
X2481Y2058D01*
X3345Y2058D02*
X3354Y2058D01*
X0Y2057D02*
X8Y2057D01*
X85Y2057D02*
X95Y2057D01*
X188Y2057D02*
X198Y2057D01*
X2368Y2057D02*
X2378Y2057D01*
X2471Y2057D02*
X2481Y2057D01*
X3345Y2057D02*
X3354Y2057D01*
X0Y2056D02*
X8Y2056D01*
X85Y2056D02*
X95Y2056D01*
X188Y2056D02*
X197Y2056D01*
X2368Y2056D02*
X2378Y2056D01*
X2471Y2056D02*
X2481Y2056D01*
X3345Y2056D02*
X3354Y2056D01*
X0Y2055D02*
X8Y2055D01*
X85Y2055D02*
X95Y2055D01*
X187Y2055D02*
X197Y2055D01*
X2369Y2055D02*
X2379Y2055D01*
X2471Y2055D02*
X2480Y2055D01*
X3345Y2055D02*
X3354Y2055D01*
X0Y2054D02*
X8Y2054D01*
X86Y2054D02*
X96Y2054D01*
X187Y2054D02*
X197Y2054D01*
X2369Y2054D02*
X2379Y2054D01*
X2470Y2054D02*
X2480Y2054D01*
X3345Y2054D02*
X3354Y2054D01*
X0Y2053D02*
X8Y2053D01*
X86Y2053D02*
X96Y2053D01*
X186Y2053D02*
X196Y2053D01*
X2369Y2053D02*
X2380Y2053D01*
X2470Y2053D02*
X2480Y2053D01*
X3345Y2053D02*
X3354Y2053D01*
X0Y2052D02*
X8Y2052D01*
X86Y2052D02*
X97Y2052D01*
X186Y2052D02*
X196Y2052D01*
X2370Y2052D02*
X2380Y2052D01*
X2469Y2052D02*
X2479Y2052D01*
X3345Y2052D02*
X3354Y2052D01*
X0Y2051D02*
X8Y2051D01*
X87Y2051D02*
X97Y2051D01*
X185Y2051D02*
X196Y2051D01*
X2370Y2051D02*
X2380Y2051D01*
X2469Y2051D02*
X2479Y2051D01*
X3345Y2051D02*
X3354Y2051D01*
X0Y2050D02*
X8Y2050D01*
X87Y2050D02*
X98Y2050D01*
X185Y2050D02*
X195Y2050D01*
X2371Y2050D02*
X2381Y2050D01*
X2468Y2050D02*
X2479Y2050D01*
X3345Y2050D02*
X3354Y2050D01*
X0Y2049D02*
X8Y2049D01*
X88Y2049D02*
X98Y2049D01*
X184Y2049D02*
X195Y2049D01*
X2371Y2049D02*
X2382Y2049D01*
X2468Y2049D02*
X2478Y2049D01*
X3345Y2049D02*
X3354Y2049D01*
X0Y2048D02*
X8Y2048D01*
X88Y2048D02*
X99Y2048D01*
X184Y2048D02*
X194Y2048D01*
X2372Y2048D02*
X2382Y2048D01*
X2467Y2048D02*
X2478Y2048D01*
X3345Y2048D02*
X3354Y2048D01*
X0Y2047D02*
X8Y2047D01*
X89Y2047D02*
X99Y2047D01*
X183Y2047D02*
X194Y2047D01*
X2372Y2047D02*
X2383Y2047D01*
X2466Y2047D02*
X2477Y2047D01*
X3345Y2047D02*
X3354Y2047D01*
X0Y2046D02*
X8Y2046D01*
X89Y2046D02*
X100Y2046D01*
X182Y2046D02*
X193Y2046D01*
X2373Y2046D02*
X2383Y2046D01*
X2466Y2046D02*
X2477Y2046D01*
X3345Y2046D02*
X3354Y2046D01*
X0Y2045D02*
X8Y2045D01*
X90Y2045D02*
X101Y2045D01*
X182Y2045D02*
X193Y2045D01*
X2373Y2045D02*
X2384Y2045D01*
X2465Y2045D02*
X2476Y2045D01*
X3345Y2045D02*
X3354Y2045D01*
X0Y2044D02*
X8Y2044D01*
X90Y2044D02*
X102Y2044D01*
X181Y2044D02*
X192Y2044D01*
X2374Y2044D02*
X2385Y2044D01*
X2464Y2044D02*
X2476Y2044D01*
X3345Y2044D02*
X3354Y2044D01*
X0Y2043D02*
X8Y2043D01*
X91Y2043D02*
X102Y2043D01*
X180Y2043D02*
X192Y2043D01*
X2374Y2043D02*
X2386Y2043D01*
X2463Y2043D02*
X2475Y2043D01*
X3345Y2043D02*
X3354Y2043D01*
X0Y2042D02*
X8Y2042D01*
X91Y2042D02*
X103Y2042D01*
X179Y2042D02*
X191Y2042D01*
X2375Y2042D02*
X2387Y2042D01*
X2463Y2042D02*
X2474Y2042D01*
X3345Y2042D02*
X3354Y2042D01*
X0Y2041D02*
X8Y2041D01*
X92Y2041D02*
X104Y2041D01*
X178Y2041D02*
X190Y2041D01*
X2375Y2041D02*
X2387Y2041D01*
X2462Y2041D02*
X2474Y2041D01*
X3345Y2041D02*
X3354Y2041D01*
X0Y2040D02*
X8Y2040D01*
X93Y2040D02*
X105Y2040D01*
X178Y2040D02*
X190Y2040D01*
X2376Y2040D02*
X2388Y2040D01*
X2461Y2040D02*
X2473Y2040D01*
X3345Y2040D02*
X3354Y2040D01*
X0Y2039D02*
X8Y2039D01*
X93Y2039D02*
X106Y2039D01*
X177Y2039D02*
X189Y2039D01*
X2377Y2039D02*
X2389Y2039D01*
X2460Y2039D02*
X2472Y2039D01*
X3345Y2039D02*
X3354Y2039D01*
X0Y2038D02*
X8Y2038D01*
X94Y2038D02*
X107Y2038D01*
X176Y2038D02*
X188Y2038D01*
X2378Y2038D02*
X2390Y2038D01*
X2459Y2038D02*
X2472Y2038D01*
X3345Y2038D02*
X3354Y2038D01*
X0Y2037D02*
X8Y2037D01*
X95Y2037D02*
X108Y2037D01*
X174Y2037D02*
X188Y2037D01*
X2378Y2037D02*
X2391Y2037D01*
X2458Y2037D02*
X2471Y2037D01*
X3345Y2037D02*
X3354Y2037D01*
X0Y2036D02*
X8Y2036D01*
X96Y2036D02*
X109Y2036D01*
X173Y2036D02*
X187Y2036D01*
X2379Y2036D02*
X2392Y2036D01*
X2457Y2036D02*
X2470Y2036D01*
X3345Y2036D02*
X3354Y2036D01*
X0Y2035D02*
X8Y2035D01*
X96Y2035D02*
X110Y2035D01*
X172Y2035D02*
X186Y2035D01*
X2380Y2035D02*
X2394Y2035D01*
X2456Y2035D02*
X2469Y2035D01*
X3345Y2035D02*
X3354Y2035D01*
X0Y2034D02*
X8Y2034D01*
X97Y2034D02*
X112Y2034D01*
X171Y2034D02*
X185Y2034D01*
X2381Y2034D02*
X2395Y2034D01*
X2454Y2034D02*
X2468Y2034D01*
X3345Y2034D02*
X3354Y2034D01*
X0Y2033D02*
X8Y2033D01*
X98Y2033D02*
X113Y2033D01*
X170Y2033D02*
X184Y2033D01*
X2382Y2033D02*
X2396Y2033D01*
X2453Y2033D02*
X2468Y2033D01*
X3345Y2033D02*
X3354Y2033D01*
X0Y2032D02*
X8Y2032D01*
X99Y2032D02*
X114Y2032D01*
X168Y2032D02*
X183Y2032D01*
X2383Y2032D02*
X2398Y2032D01*
X2451Y2032D02*
X2467Y2032D01*
X3345Y2032D02*
X3354Y2032D01*
X0Y2031D02*
X8Y2031D01*
X100Y2031D02*
X116Y2031D01*
X166Y2031D02*
X182Y2031D01*
X2384Y2031D02*
X2399Y2031D01*
X2450Y2031D02*
X2466Y2031D01*
X3345Y2031D02*
X3354Y2031D01*
X0Y2030D02*
X8Y2030D01*
X101Y2030D02*
X118Y2030D01*
X165Y2030D02*
X181Y2030D01*
X2385Y2030D02*
X2401Y2030D01*
X2448Y2030D02*
X2465Y2030D01*
X3345Y2030D02*
X3354Y2030D01*
X0Y2029D02*
X8Y2029D01*
X102Y2029D02*
X120Y2029D01*
X163Y2029D02*
X180Y2029D01*
X2386Y2029D02*
X2403Y2029D01*
X2446Y2029D02*
X2463Y2029D01*
X3345Y2029D02*
X3354Y2029D01*
X0Y2028D02*
X8Y2028D01*
X103Y2028D02*
X122Y2028D01*
X160Y2028D02*
X179Y2028D01*
X2387Y2028D02*
X2405Y2028D01*
X2444Y2028D02*
X2462Y2028D01*
X3345Y2028D02*
X3354Y2028D01*
X0Y2027D02*
X8Y2027D01*
X105Y2027D02*
X125Y2027D01*
X158Y2027D02*
X178Y2027D01*
X2388Y2027D02*
X2408Y2027D01*
X2441Y2027D02*
X2461Y2027D01*
X3345Y2027D02*
X3354Y2027D01*
X0Y2026D02*
X8Y2026D01*
X106Y2026D02*
X128Y2026D01*
X154Y2026D02*
X176Y2026D01*
X2389Y2026D02*
X2411Y2026D01*
X2438Y2026D02*
X2460Y2026D01*
X3345Y2026D02*
X3354Y2026D01*
X0Y2025D02*
X8Y2025D01*
X107Y2025D02*
X133Y2025D01*
X149Y2025D02*
X175Y2025D01*
X2391Y2025D02*
X2416Y2025D01*
X2433Y2025D02*
X2458Y2025D01*
X3345Y2025D02*
X3354Y2025D01*
X0Y2024D02*
X8Y2024D01*
X109Y2024D02*
X174Y2024D01*
X2392Y2024D02*
X2457Y2024D01*
X3345Y2024D02*
X3354Y2024D01*
X0Y2023D02*
X8Y2023D01*
X110Y2023D02*
X172Y2023D01*
X2394Y2023D02*
X2455Y2023D01*
X3345Y2023D02*
X3354Y2023D01*
X0Y2022D02*
X8Y2022D01*
X112Y2022D02*
X170Y2022D01*
X2396Y2022D02*
X2454Y2022D01*
X3345Y2022D02*
X3354Y2022D01*
X0Y2021D02*
X8Y2021D01*
X114Y2021D02*
X169Y2021D01*
X2397Y2021D02*
X2452Y2021D01*
X3345Y2021D02*
X3354Y2021D01*
X0Y2020D02*
X8Y2020D01*
X116Y2020D02*
X166Y2020D01*
X2399Y2020D02*
X2450Y2020D01*
X3345Y2020D02*
X3354Y2020D01*
X0Y2019D02*
X8Y2019D01*
X118Y2019D02*
X164Y2019D01*
X2401Y2019D02*
X2448Y2019D01*
X3345Y2019D02*
X3354Y2019D01*
X0Y2018D02*
X8Y2018D01*
X121Y2018D02*
X162Y2018D01*
X2404Y2018D02*
X2445Y2018D01*
X3345Y2018D02*
X3354Y2018D01*
X0Y2017D02*
X8Y2017D01*
X123Y2017D02*
X159Y2017D01*
X2407Y2017D02*
X2442Y2017D01*
X3345Y2017D02*
X3354Y2017D01*
X0Y2016D02*
X8Y2016D01*
X127Y2016D02*
X156Y2016D01*
X2410Y2016D02*
X2439Y2016D01*
X3345Y2016D02*
X3354Y2016D01*
X0Y2015D02*
X8Y2015D01*
X131Y2015D02*
X151Y2015D01*
X2415Y2015D02*
X2435Y2015D01*
X3345Y2015D02*
X3354Y2015D01*
X0Y2014D02*
X8Y2014D01*
X141Y2014D02*
X141Y2014D01*
X2424Y2014D02*
X2425Y2014D01*
X3345Y2014D02*
X3354Y2014D01*
X0Y2013D02*
X8Y2013D01*
X3345Y2013D02*
X3354Y2013D01*
X0Y2012D02*
X8Y2012D01*
X3345Y2012D02*
X3354Y2012D01*
X0Y2011D02*
X8Y2011D01*
X3345Y2011D02*
X3354Y2011D01*
X0Y2010D02*
X8Y2010D01*
X3345Y2010D02*
X3354Y2010D01*
X0Y2009D02*
X8Y2009D01*
X3345Y2009D02*
X3354Y2009D01*
X0Y2008D02*
X8Y2008D01*
X3345Y2008D02*
X3354Y2008D01*
X0Y2007D02*
X8Y2007D01*
X3345Y2007D02*
X3354Y2007D01*
X0Y2006D02*
X8Y2006D01*
X3345Y2006D02*
X3354Y2006D01*
X0Y2005D02*
X8Y2005D01*
X3345Y2005D02*
X3354Y2005D01*
X0Y2004D02*
X8Y2004D01*
X3345Y2004D02*
X3354Y2004D01*
X0Y2003D02*
X8Y2003D01*
X3345Y2003D02*
X3354Y2003D01*
X0Y2002D02*
X8Y2002D01*
X3345Y2002D02*
X3354Y2002D01*
X0Y2001D02*
X8Y2001D01*
X3345Y2001D02*
X3354Y2001D01*
X0Y2000D02*
X8Y2000D01*
X3345Y2000D02*
X3354Y2000D01*
X0Y1999D02*
X8Y1999D01*
X3345Y1999D02*
X3354Y1999D01*
X0Y1998D02*
X8Y1998D01*
X3345Y1998D02*
X3354Y1998D01*
X0Y1997D02*
X8Y1997D01*
X3345Y1997D02*
X3354Y1997D01*
X0Y1996D02*
X8Y1996D01*
X3345Y1996D02*
X3354Y1996D01*
X0Y1995D02*
X8Y1995D01*
X3345Y1995D02*
X3354Y1995D01*
X0Y1994D02*
X8Y1994D01*
X3345Y1994D02*
X3354Y1994D01*
X0Y1993D02*
X8Y1993D01*
X3345Y1993D02*
X3354Y1993D01*
X0Y1992D02*
X8Y1992D01*
X3345Y1992D02*
X3354Y1992D01*
X0Y1991D02*
X8Y1991D01*
X3345Y1991D02*
X3354Y1991D01*
X0Y1990D02*
X8Y1990D01*
X3345Y1990D02*
X3354Y1990D01*
X0Y1989D02*
X8Y1989D01*
X3345Y1989D02*
X3354Y1989D01*
X0Y1988D02*
X8Y1988D01*
X3345Y1988D02*
X3354Y1988D01*
X0Y1987D02*
X8Y1987D01*
X3345Y1987D02*
X3354Y1987D01*
X0Y1986D02*
X8Y1986D01*
X3345Y1986D02*
X3354Y1986D01*
X0Y1985D02*
X8Y1985D01*
X3345Y1985D02*
X3354Y1985D01*
X0Y1984D02*
X8Y1984D01*
X3345Y1984D02*
X3354Y1984D01*
X0Y1983D02*
X8Y1983D01*
X3345Y1983D02*
X3354Y1983D01*
X0Y1982D02*
X8Y1982D01*
X3345Y1982D02*
X3354Y1982D01*
X0Y1981D02*
X8Y1981D01*
X3345Y1981D02*
X3354Y1981D01*
X0Y1980D02*
X8Y1980D01*
X3345Y1980D02*
X3354Y1980D01*
X0Y1979D02*
X8Y1979D01*
X3345Y1979D02*
X3354Y1979D01*
X0Y1978D02*
X8Y1978D01*
X3345Y1978D02*
X3354Y1978D01*
X0Y1977D02*
X8Y1977D01*
X3345Y1977D02*
X3354Y1977D01*
X0Y1976D02*
X8Y1976D01*
X3345Y1976D02*
X3354Y1976D01*
X0Y1975D02*
X8Y1975D01*
X3345Y1975D02*
X3354Y1975D01*
X0Y1974D02*
X8Y1974D01*
X3345Y1974D02*
X3354Y1974D01*
X0Y1973D02*
X8Y1973D01*
X3345Y1973D02*
X3354Y1973D01*
X0Y1972D02*
X8Y1972D01*
X3345Y1972D02*
X3354Y1972D01*
X0Y1971D02*
X8Y1971D01*
X3345Y1971D02*
X3354Y1971D01*
X0Y1970D02*
X8Y1970D01*
X3345Y1970D02*
X3354Y1970D01*
X0Y1969D02*
X8Y1969D01*
X3345Y1969D02*
X3354Y1969D01*
X0Y1968D02*
X8Y1968D01*
X3345Y1968D02*
X3354Y1968D01*
X0Y1967D02*
X8Y1967D01*
X3345Y1967D02*
X3354Y1967D01*
X0Y1966D02*
X8Y1966D01*
X3345Y1966D02*
X3354Y1966D01*
X0Y1965D02*
X8Y1965D01*
X3345Y1965D02*
X3354Y1965D01*
X0Y1964D02*
X8Y1964D01*
X3345Y1964D02*
X3354Y1964D01*
X0Y1963D02*
X8Y1963D01*
X3345Y1963D02*
X3354Y1963D01*
X0Y1962D02*
X8Y1962D01*
X3345Y1962D02*
X3354Y1962D01*
X0Y1961D02*
X8Y1961D01*
X3345Y1961D02*
X3354Y1961D01*
X0Y1960D02*
X8Y1960D01*
X3345Y1960D02*
X3354Y1960D01*
X0Y1959D02*
X8Y1959D01*
X3345Y1959D02*
X3354Y1959D01*
X0Y1958D02*
X8Y1958D01*
X3345Y1958D02*
X3354Y1958D01*
X0Y1957D02*
X8Y1957D01*
X3345Y1957D02*
X3354Y1957D01*
X0Y1956D02*
X8Y1956D01*
X3345Y1956D02*
X3354Y1956D01*
X0Y1955D02*
X8Y1955D01*
X3345Y1955D02*
X3354Y1955D01*
X0Y1954D02*
X8Y1954D01*
X3345Y1954D02*
X3354Y1954D01*
X0Y1953D02*
X8Y1953D01*
X3345Y1953D02*
X3354Y1953D01*
X0Y1952D02*
X8Y1952D01*
X3345Y1952D02*
X3354Y1952D01*
X0Y1951D02*
X8Y1951D01*
X3345Y1951D02*
X3354Y1951D01*
X0Y1950D02*
X8Y1950D01*
X3345Y1950D02*
X3354Y1950D01*
X0Y1949D02*
X8Y1949D01*
X3345Y1949D02*
X3354Y1949D01*
X0Y1948D02*
X8Y1948D01*
X3345Y1948D02*
X3354Y1948D01*
X0Y1947D02*
X8Y1947D01*
X3345Y1947D02*
X3354Y1947D01*
X0Y1946D02*
X8Y1946D01*
X3345Y1946D02*
X3354Y1946D01*
X0Y1945D02*
X8Y1945D01*
X3345Y1945D02*
X3354Y1945D01*
X0Y1944D02*
X8Y1944D01*
X3345Y1944D02*
X3354Y1944D01*
X0Y1943D02*
X8Y1943D01*
X3345Y1943D02*
X3354Y1943D01*
X0Y1942D02*
X8Y1942D01*
X3345Y1942D02*
X3354Y1942D01*
X0Y1941D02*
X8Y1941D01*
X3345Y1941D02*
X3354Y1941D01*
X0Y1940D02*
X8Y1940D01*
X3345Y1940D02*
X3354Y1940D01*
X0Y1939D02*
X8Y1939D01*
X3345Y1939D02*
X3354Y1939D01*
X0Y1938D02*
X8Y1938D01*
X3345Y1938D02*
X3354Y1938D01*
X0Y1937D02*
X8Y1937D01*
X3345Y1937D02*
X3354Y1937D01*
X0Y1936D02*
X8Y1936D01*
X3345Y1936D02*
X3354Y1936D01*
X0Y1935D02*
X8Y1935D01*
X3345Y1935D02*
X3354Y1935D01*
X0Y1934D02*
X8Y1934D01*
X3345Y1934D02*
X3354Y1934D01*
X0Y1933D02*
X8Y1933D01*
X3345Y1933D02*
X3354Y1933D01*
X0Y1932D02*
X8Y1932D01*
X3345Y1932D02*
X3354Y1932D01*
X0Y1931D02*
X8Y1931D01*
X3345Y1931D02*
X3354Y1931D01*
X0Y1930D02*
X8Y1930D01*
X3345Y1930D02*
X3354Y1930D01*
X0Y1929D02*
X8Y1929D01*
X3345Y1929D02*
X3354Y1929D01*
X0Y1928D02*
X8Y1928D01*
X3345Y1928D02*
X3354Y1928D01*
X0Y1927D02*
X8Y1927D01*
X3345Y1927D02*
X3354Y1927D01*
X0Y1926D02*
X8Y1926D01*
X3345Y1926D02*
X3354Y1926D01*
X0Y1925D02*
X8Y1925D01*
X3345Y1925D02*
X3354Y1925D01*
X0Y1924D02*
X8Y1924D01*
X3345Y1924D02*
X3354Y1924D01*
X0Y1923D02*
X8Y1923D01*
X3345Y1923D02*
X3354Y1923D01*
X0Y1922D02*
X8Y1922D01*
X3345Y1922D02*
X3354Y1922D01*
X0Y1921D02*
X8Y1921D01*
X3345Y1921D02*
X3354Y1921D01*
X0Y1920D02*
X8Y1920D01*
X3345Y1920D02*
X3354Y1920D01*
X0Y1919D02*
X8Y1919D01*
X3345Y1919D02*
X3354Y1919D01*
X0Y1918D02*
X8Y1918D01*
X3345Y1918D02*
X3354Y1918D01*
X0Y1917D02*
X8Y1917D01*
X3345Y1917D02*
X3354Y1917D01*
X0Y1916D02*
X8Y1916D01*
X3345Y1916D02*
X3354Y1916D01*
X0Y1915D02*
X8Y1915D01*
X3345Y1915D02*
X3354Y1915D01*
X0Y1914D02*
X8Y1914D01*
X3345Y1914D02*
X3354Y1914D01*
X0Y1913D02*
X8Y1913D01*
X3345Y1913D02*
X3354Y1913D01*
X0Y1912D02*
X8Y1912D01*
X3345Y1912D02*
X3354Y1912D01*
X0Y1911D02*
X8Y1911D01*
X3345Y1911D02*
X3354Y1911D01*
X0Y1910D02*
X8Y1910D01*
X3345Y1910D02*
X3354Y1910D01*
X0Y1909D02*
X8Y1909D01*
X3345Y1909D02*
X3354Y1909D01*
X0Y1908D02*
X8Y1908D01*
X3345Y1908D02*
X3354Y1908D01*
X0Y1907D02*
X8Y1907D01*
X3345Y1907D02*
X3354Y1907D01*
X0Y1906D02*
X8Y1906D01*
X3345Y1906D02*
X3354Y1906D01*
X0Y1905D02*
X8Y1905D01*
X3345Y1905D02*
X3354Y1905D01*
X0Y1904D02*
X8Y1904D01*
X3345Y1904D02*
X3354Y1904D01*
X0Y1903D02*
X8Y1903D01*
X3345Y1903D02*
X3354Y1903D01*
X0Y1902D02*
X8Y1902D01*
X3345Y1902D02*
X3354Y1902D01*
X0Y1901D02*
X8Y1901D01*
X3345Y1901D02*
X3354Y1901D01*
X0Y1900D02*
X8Y1900D01*
X3345Y1900D02*
X3354Y1900D01*
X0Y1899D02*
X8Y1899D01*
X3345Y1899D02*
X3354Y1899D01*
X0Y1898D02*
X8Y1898D01*
X3345Y1898D02*
X3354Y1898D01*
X0Y1897D02*
X8Y1897D01*
X3345Y1897D02*
X3354Y1897D01*
X0Y1896D02*
X8Y1896D01*
X3345Y1896D02*
X3354Y1896D01*
X0Y1895D02*
X8Y1895D01*
X3345Y1895D02*
X3354Y1895D01*
X0Y1894D02*
X8Y1894D01*
X3345Y1894D02*
X3354Y1894D01*
X0Y1893D02*
X8Y1893D01*
X3345Y1893D02*
X3354Y1893D01*
X0Y1892D02*
X8Y1892D01*
X3345Y1892D02*
X3354Y1892D01*
X0Y1891D02*
X8Y1891D01*
X3345Y1891D02*
X3354Y1891D01*
X0Y1890D02*
X8Y1890D01*
X3345Y1890D02*
X3354Y1890D01*
X0Y1889D02*
X8Y1889D01*
X3345Y1889D02*
X3354Y1889D01*
X0Y1888D02*
X8Y1888D01*
X3345Y1888D02*
X3354Y1888D01*
X0Y1887D02*
X8Y1887D01*
X3345Y1887D02*
X3354Y1887D01*
X0Y1886D02*
X8Y1886D01*
X3345Y1886D02*
X3354Y1886D01*
X0Y1885D02*
X8Y1885D01*
X3345Y1885D02*
X3354Y1885D01*
X0Y1884D02*
X8Y1884D01*
X3345Y1884D02*
X3354Y1884D01*
X0Y1883D02*
X8Y1883D01*
X3345Y1883D02*
X3354Y1883D01*
X0Y1882D02*
X8Y1882D01*
X3345Y1882D02*
X3354Y1882D01*
X0Y1881D02*
X8Y1881D01*
X3345Y1881D02*
X3354Y1881D01*
X0Y1880D02*
X8Y1880D01*
X3345Y1880D02*
X3354Y1880D01*
X0Y1879D02*
X8Y1879D01*
X3345Y1879D02*
X3354Y1879D01*
X0Y1878D02*
X8Y1878D01*
X3345Y1878D02*
X3354Y1878D01*
X0Y1877D02*
X8Y1877D01*
X3345Y1877D02*
X3354Y1877D01*
X0Y1876D02*
X8Y1876D01*
X3345Y1876D02*
X3354Y1876D01*
X0Y1875D02*
X8Y1875D01*
X3345Y1875D02*
X3354Y1875D01*
X0Y1874D02*
X8Y1874D01*
X3345Y1874D02*
X3354Y1874D01*
X0Y1873D02*
X8Y1873D01*
X3345Y1873D02*
X3354Y1873D01*
X0Y1872D02*
X8Y1872D01*
X3345Y1872D02*
X3354Y1872D01*
X0Y1871D02*
X8Y1871D01*
X3345Y1871D02*
X3354Y1871D01*
X0Y1870D02*
X8Y1870D01*
X3345Y1870D02*
X3354Y1870D01*
X0Y1869D02*
X8Y1869D01*
X3345Y1869D02*
X3354Y1869D01*
X0Y1868D02*
X8Y1868D01*
X3345Y1868D02*
X3354Y1868D01*
X0Y1867D02*
X8Y1867D01*
X3345Y1867D02*
X3354Y1867D01*
X0Y1866D02*
X8Y1866D01*
X3345Y1866D02*
X3354Y1866D01*
X0Y1865D02*
X8Y1865D01*
X3345Y1865D02*
X3354Y1865D01*
X0Y1864D02*
X8Y1864D01*
X3345Y1864D02*
X3354Y1864D01*
X0Y1863D02*
X8Y1863D01*
X3345Y1863D02*
X3354Y1863D01*
X0Y1862D02*
X8Y1862D01*
X3345Y1862D02*
X3354Y1862D01*
X0Y1861D02*
X8Y1861D01*
X3345Y1861D02*
X3354Y1861D01*
X0Y1860D02*
X8Y1860D01*
X3345Y1860D02*
X3354Y1860D01*
X0Y1859D02*
X8Y1859D01*
X3345Y1859D02*
X3354Y1859D01*
X0Y1858D02*
X8Y1858D01*
X3345Y1858D02*
X3354Y1858D01*
X0Y1857D02*
X8Y1857D01*
X3345Y1857D02*
X3354Y1857D01*
X0Y1856D02*
X8Y1856D01*
X3345Y1856D02*
X3354Y1856D01*
X0Y1855D02*
X8Y1855D01*
X3345Y1855D02*
X3354Y1855D01*
X0Y1854D02*
X8Y1854D01*
X3345Y1854D02*
X3354Y1854D01*
X0Y1853D02*
X8Y1853D01*
X3345Y1853D02*
X3354Y1853D01*
X0Y1852D02*
X8Y1852D01*
X3345Y1852D02*
X3354Y1852D01*
X0Y1851D02*
X8Y1851D01*
X3345Y1851D02*
X3354Y1851D01*
X0Y1850D02*
X8Y1850D01*
X3345Y1850D02*
X3354Y1850D01*
X0Y1849D02*
X8Y1849D01*
X3345Y1849D02*
X3354Y1849D01*
X0Y1848D02*
X8Y1848D01*
X3345Y1848D02*
X3354Y1848D01*
X0Y1847D02*
X8Y1847D01*
X3345Y1847D02*
X3354Y1847D01*
X0Y1846D02*
X8Y1846D01*
X3345Y1846D02*
X3354Y1846D01*
X0Y1845D02*
X8Y1845D01*
X3345Y1845D02*
X3354Y1845D01*
X0Y1844D02*
X8Y1844D01*
X3345Y1844D02*
X3354Y1844D01*
X0Y1843D02*
X8Y1843D01*
X3345Y1843D02*
X3354Y1843D01*
X0Y1842D02*
X8Y1842D01*
X3345Y1842D02*
X3354Y1842D01*
X0Y1841D02*
X8Y1841D01*
X3345Y1841D02*
X3354Y1841D01*
X0Y1840D02*
X8Y1840D01*
X3345Y1840D02*
X3354Y1840D01*
X0Y1839D02*
X8Y1839D01*
X3345Y1839D02*
X3354Y1839D01*
X0Y1838D02*
X8Y1838D01*
X3345Y1838D02*
X3354Y1838D01*
X0Y1837D02*
X8Y1837D01*
X3345Y1837D02*
X3354Y1837D01*
X0Y1836D02*
X8Y1836D01*
X3345Y1836D02*
X3354Y1836D01*
X0Y1835D02*
X8Y1835D01*
X3345Y1835D02*
X3354Y1835D01*
X0Y1834D02*
X8Y1834D01*
X3345Y1834D02*
X3354Y1834D01*
X0Y1833D02*
X8Y1833D01*
X3345Y1833D02*
X3354Y1833D01*
X0Y1832D02*
X8Y1832D01*
X3345Y1832D02*
X3354Y1832D01*
X0Y1831D02*
X8Y1831D01*
X3345Y1831D02*
X3354Y1831D01*
X0Y1830D02*
X8Y1830D01*
X3345Y1830D02*
X3354Y1830D01*
X0Y1829D02*
X8Y1829D01*
X3345Y1829D02*
X3354Y1829D01*
X0Y1828D02*
X8Y1828D01*
X3345Y1828D02*
X3354Y1828D01*
X0Y1827D02*
X8Y1827D01*
X3345Y1827D02*
X3354Y1827D01*
X0Y1826D02*
X8Y1826D01*
X3345Y1826D02*
X3354Y1826D01*
X0Y1825D02*
X8Y1825D01*
X3345Y1825D02*
X3354Y1825D01*
X0Y1824D02*
X8Y1824D01*
X3345Y1824D02*
X3354Y1824D01*
X0Y1823D02*
X8Y1823D01*
X3345Y1823D02*
X3354Y1823D01*
X0Y1822D02*
X8Y1822D01*
X3345Y1822D02*
X3354Y1822D01*
X0Y1821D02*
X8Y1821D01*
X3345Y1821D02*
X3354Y1821D01*
X0Y1820D02*
X8Y1820D01*
X3345Y1820D02*
X3354Y1820D01*
X0Y1819D02*
X8Y1819D01*
X3345Y1819D02*
X3354Y1819D01*
X0Y1818D02*
X8Y1818D01*
X3345Y1818D02*
X3354Y1818D01*
X0Y1817D02*
X8Y1817D01*
X3345Y1817D02*
X3354Y1817D01*
X0Y1816D02*
X8Y1816D01*
X3345Y1816D02*
X3354Y1816D01*
X0Y1815D02*
X8Y1815D01*
X3345Y1815D02*
X3354Y1815D01*
X0Y1814D02*
X8Y1814D01*
X3345Y1814D02*
X3354Y1814D01*
X0Y1813D02*
X8Y1813D01*
X3345Y1813D02*
X3354Y1813D01*
X0Y1812D02*
X8Y1812D01*
X3345Y1812D02*
X3354Y1812D01*
X0Y1811D02*
X8Y1811D01*
X3345Y1811D02*
X3354Y1811D01*
X0Y1810D02*
X8Y1810D01*
X3345Y1810D02*
X3354Y1810D01*
X0Y1809D02*
X8Y1809D01*
X3345Y1809D02*
X3354Y1809D01*
X0Y1808D02*
X8Y1808D01*
X3345Y1808D02*
X3354Y1808D01*
X0Y1807D02*
X8Y1807D01*
X3345Y1807D02*
X3354Y1807D01*
X0Y1806D02*
X8Y1806D01*
X3345Y1806D02*
X3354Y1806D01*
X0Y1805D02*
X8Y1805D01*
X3345Y1805D02*
X3354Y1805D01*
X0Y1804D02*
X8Y1804D01*
X3345Y1804D02*
X3354Y1804D01*
X0Y1803D02*
X8Y1803D01*
X3345Y1803D02*
X3354Y1803D01*
X0Y1802D02*
X8Y1802D01*
X3345Y1802D02*
X3354Y1802D01*
X0Y1801D02*
X8Y1801D01*
X3345Y1801D02*
X3354Y1801D01*
X0Y1800D02*
X8Y1800D01*
X3345Y1800D02*
X3354Y1800D01*
X0Y1799D02*
X8Y1799D01*
X3345Y1799D02*
X3354Y1799D01*
X0Y1798D02*
X8Y1798D01*
X3345Y1798D02*
X3354Y1798D01*
X0Y1797D02*
X8Y1797D01*
X3345Y1797D02*
X3354Y1797D01*
X0Y1796D02*
X8Y1796D01*
X3345Y1796D02*
X3354Y1796D01*
X0Y1795D02*
X8Y1795D01*
X3345Y1795D02*
X3354Y1795D01*
X0Y1794D02*
X8Y1794D01*
X3345Y1794D02*
X3354Y1794D01*
X0Y1793D02*
X8Y1793D01*
X3345Y1793D02*
X3354Y1793D01*
X0Y1792D02*
X8Y1792D01*
X3345Y1792D02*
X3354Y1792D01*
X0Y1791D02*
X8Y1791D01*
X3345Y1791D02*
X3354Y1791D01*
X0Y1790D02*
X8Y1790D01*
X3345Y1790D02*
X3354Y1790D01*
X0Y1789D02*
X8Y1789D01*
X3345Y1789D02*
X3354Y1789D01*
X0Y1788D02*
X8Y1788D01*
X3345Y1788D02*
X3354Y1788D01*
X0Y1787D02*
X8Y1787D01*
X3345Y1787D02*
X3354Y1787D01*
X0Y1786D02*
X8Y1786D01*
X3345Y1786D02*
X3354Y1786D01*
X0Y1785D02*
X8Y1785D01*
X3345Y1785D02*
X3354Y1785D01*
X0Y1784D02*
X8Y1784D01*
X3345Y1784D02*
X3354Y1784D01*
X0Y1783D02*
X8Y1783D01*
X3345Y1783D02*
X3354Y1783D01*
X0Y1782D02*
X8Y1782D01*
X3345Y1782D02*
X3354Y1782D01*
X0Y1781D02*
X8Y1781D01*
X3345Y1781D02*
X3354Y1781D01*
X0Y1780D02*
X8Y1780D01*
X3345Y1780D02*
X3354Y1780D01*
X0Y1779D02*
X8Y1779D01*
X3345Y1779D02*
X3354Y1779D01*
X0Y1778D02*
X8Y1778D01*
X3345Y1778D02*
X3354Y1778D01*
X0Y1777D02*
X8Y1777D01*
X3345Y1777D02*
X3354Y1777D01*
X0Y1776D02*
X8Y1776D01*
X3345Y1776D02*
X3354Y1776D01*
X0Y1775D02*
X8Y1775D01*
X3345Y1775D02*
X3354Y1775D01*
X0Y1774D02*
X8Y1774D01*
X3345Y1774D02*
X3354Y1774D01*
X0Y1773D02*
X8Y1773D01*
X3345Y1773D02*
X3354Y1773D01*
X0Y1772D02*
X8Y1772D01*
X3345Y1772D02*
X3354Y1772D01*
X0Y1771D02*
X8Y1771D01*
X3345Y1771D02*
X3354Y1771D01*
X0Y1770D02*
X8Y1770D01*
X3345Y1770D02*
X3354Y1770D01*
X0Y1769D02*
X8Y1769D01*
X3345Y1769D02*
X3354Y1769D01*
X0Y1768D02*
X8Y1768D01*
X3345Y1768D02*
X3354Y1768D01*
X0Y1767D02*
X8Y1767D01*
X3345Y1767D02*
X3354Y1767D01*
X0Y1766D02*
X8Y1766D01*
X3345Y1766D02*
X3354Y1766D01*
X0Y1765D02*
X8Y1765D01*
X3345Y1765D02*
X3354Y1765D01*
X0Y1764D02*
X8Y1764D01*
X3345Y1764D02*
X3354Y1764D01*
X0Y1763D02*
X8Y1763D01*
X3345Y1763D02*
X3354Y1763D01*
X0Y1762D02*
X8Y1762D01*
X3345Y1762D02*
X3354Y1762D01*
X0Y1761D02*
X8Y1761D01*
X3345Y1761D02*
X3354Y1761D01*
X0Y1760D02*
X8Y1760D01*
X3345Y1760D02*
X3354Y1760D01*
X0Y1759D02*
X8Y1759D01*
X3345Y1759D02*
X3354Y1759D01*
X0Y1758D02*
X8Y1758D01*
X3345Y1758D02*
X3354Y1758D01*
X0Y1757D02*
X8Y1757D01*
X3345Y1757D02*
X3354Y1757D01*
X0Y1756D02*
X8Y1756D01*
X3345Y1756D02*
X3354Y1756D01*
X0Y1755D02*
X8Y1755D01*
X3345Y1755D02*
X3354Y1755D01*
X0Y1754D02*
X8Y1754D01*
X3345Y1754D02*
X3354Y1754D01*
X0Y1753D02*
X8Y1753D01*
X3345Y1753D02*
X3354Y1753D01*
X0Y1752D02*
X8Y1752D01*
X3345Y1752D02*
X3354Y1752D01*
X0Y1751D02*
X8Y1751D01*
X3345Y1751D02*
X3354Y1751D01*
X0Y1750D02*
X8Y1750D01*
X3345Y1750D02*
X3354Y1750D01*
X0Y1749D02*
X8Y1749D01*
X3345Y1749D02*
X3354Y1749D01*
X0Y1748D02*
X8Y1748D01*
X3345Y1748D02*
X3354Y1748D01*
X0Y1747D02*
X8Y1747D01*
X3345Y1747D02*
X3354Y1747D01*
X0Y1746D02*
X8Y1746D01*
X3345Y1746D02*
X3354Y1746D01*
X0Y1745D02*
X8Y1745D01*
X3345Y1745D02*
X3354Y1745D01*
X0Y1744D02*
X8Y1744D01*
X3345Y1744D02*
X3354Y1744D01*
X0Y1743D02*
X8Y1743D01*
X3345Y1743D02*
X3354Y1743D01*
X0Y1742D02*
X8Y1742D01*
X3345Y1742D02*
X3354Y1742D01*
X0Y1741D02*
X8Y1741D01*
X3345Y1741D02*
X3354Y1741D01*
X0Y1740D02*
X8Y1740D01*
X3345Y1740D02*
X3354Y1740D01*
X0Y1739D02*
X8Y1739D01*
X3345Y1739D02*
X3354Y1739D01*
X0Y1738D02*
X8Y1738D01*
X3345Y1738D02*
X3354Y1738D01*
X0Y1737D02*
X8Y1737D01*
X3345Y1737D02*
X3354Y1737D01*
X0Y1736D02*
X8Y1736D01*
X3345Y1736D02*
X3354Y1736D01*
X0Y1735D02*
X8Y1735D01*
X3345Y1735D02*
X3354Y1735D01*
X0Y1734D02*
X8Y1734D01*
X3345Y1734D02*
X3354Y1734D01*
X0Y1733D02*
X8Y1733D01*
X3345Y1733D02*
X3354Y1733D01*
X0Y1732D02*
X8Y1732D01*
X3345Y1732D02*
X3354Y1732D01*
X0Y1731D02*
X8Y1731D01*
X3345Y1731D02*
X3354Y1731D01*
X0Y1730D02*
X8Y1730D01*
X3345Y1730D02*
X3354Y1730D01*
X0Y1729D02*
X8Y1729D01*
X3345Y1729D02*
X3354Y1729D01*
X0Y1728D02*
X8Y1728D01*
X3345Y1728D02*
X3354Y1728D01*
X0Y1727D02*
X8Y1727D01*
X3345Y1727D02*
X3354Y1727D01*
X0Y1726D02*
X8Y1726D01*
X3345Y1726D02*
X3354Y1726D01*
X0Y1725D02*
X8Y1725D01*
X3345Y1725D02*
X3354Y1725D01*
X0Y1724D02*
X8Y1724D01*
X3345Y1724D02*
X3354Y1724D01*
X0Y1723D02*
X8Y1723D01*
X3345Y1723D02*
X3354Y1723D01*
X0Y1722D02*
X8Y1722D01*
X3345Y1722D02*
X3354Y1722D01*
X0Y1721D02*
X8Y1721D01*
X3345Y1721D02*
X3354Y1721D01*
X0Y1720D02*
X8Y1720D01*
X3345Y1720D02*
X3354Y1720D01*
X0Y1719D02*
X8Y1719D01*
X3345Y1719D02*
X3354Y1719D01*
X0Y1718D02*
X8Y1718D01*
X3345Y1718D02*
X3354Y1718D01*
X0Y1717D02*
X8Y1717D01*
X3345Y1717D02*
X3354Y1717D01*
X0Y1716D02*
X8Y1716D01*
X3345Y1716D02*
X3354Y1716D01*
X0Y1715D02*
X8Y1715D01*
X3345Y1715D02*
X3354Y1715D01*
X0Y1714D02*
X8Y1714D01*
X3345Y1714D02*
X3354Y1714D01*
X0Y1713D02*
X8Y1713D01*
X3345Y1713D02*
X3354Y1713D01*
X0Y1712D02*
X8Y1712D01*
X3345Y1712D02*
X3354Y1712D01*
X0Y1711D02*
X8Y1711D01*
X3345Y1711D02*
X3354Y1711D01*
X0Y1710D02*
X8Y1710D01*
X3345Y1710D02*
X3354Y1710D01*
X0Y1709D02*
X8Y1709D01*
X3345Y1709D02*
X3354Y1709D01*
X0Y1708D02*
X8Y1708D01*
X3345Y1708D02*
X3354Y1708D01*
X0Y1707D02*
X8Y1707D01*
X3345Y1707D02*
X3354Y1707D01*
X0Y1706D02*
X8Y1706D01*
X3345Y1706D02*
X3354Y1706D01*
X0Y1705D02*
X8Y1705D01*
X3345Y1705D02*
X3354Y1705D01*
X0Y1704D02*
X8Y1704D01*
X3345Y1704D02*
X3354Y1704D01*
X0Y1703D02*
X8Y1703D01*
X3345Y1703D02*
X3354Y1703D01*
X0Y1702D02*
X8Y1702D01*
X3345Y1702D02*
X3354Y1702D01*
X0Y1701D02*
X8Y1701D01*
X3345Y1701D02*
X3354Y1701D01*
X0Y1700D02*
X8Y1700D01*
X3345Y1700D02*
X3354Y1700D01*
X0Y1699D02*
X8Y1699D01*
X3345Y1699D02*
X3354Y1699D01*
X0Y1698D02*
X8Y1698D01*
X3345Y1698D02*
X3354Y1698D01*
X0Y1697D02*
X8Y1697D01*
X3345Y1697D02*
X3354Y1697D01*
X0Y1696D02*
X8Y1696D01*
X3345Y1696D02*
X3354Y1696D01*
X0Y1695D02*
X8Y1695D01*
X3345Y1695D02*
X3354Y1695D01*
X0Y1694D02*
X8Y1694D01*
X3345Y1694D02*
X3354Y1694D01*
X0Y1693D02*
X8Y1693D01*
X3345Y1693D02*
X3354Y1693D01*
X0Y1692D02*
X8Y1692D01*
X3345Y1692D02*
X3354Y1692D01*
X0Y1691D02*
X8Y1691D01*
X3345Y1691D02*
X3354Y1691D01*
X0Y1690D02*
X8Y1690D01*
X3345Y1690D02*
X3354Y1690D01*
X0Y1689D02*
X8Y1689D01*
X3345Y1689D02*
X3354Y1689D01*
X0Y1688D02*
X8Y1688D01*
X3345Y1688D02*
X3354Y1688D01*
X0Y1687D02*
X8Y1687D01*
X3345Y1687D02*
X3354Y1687D01*
X0Y1686D02*
X8Y1686D01*
X3345Y1686D02*
X3354Y1686D01*
X0Y1685D02*
X8Y1685D01*
X3345Y1685D02*
X3354Y1685D01*
X0Y1684D02*
X8Y1684D01*
X3345Y1684D02*
X3354Y1684D01*
X0Y1683D02*
X8Y1683D01*
X3345Y1683D02*
X3354Y1683D01*
X0Y1682D02*
X8Y1682D01*
X3345Y1682D02*
X3354Y1682D01*
X0Y1681D02*
X8Y1681D01*
X3345Y1681D02*
X3354Y1681D01*
X0Y1680D02*
X8Y1680D01*
X3345Y1680D02*
X3354Y1680D01*
X0Y1679D02*
X8Y1679D01*
X3345Y1679D02*
X3354Y1679D01*
X0Y1678D02*
X8Y1678D01*
X3345Y1678D02*
X3354Y1678D01*
X0Y1677D02*
X8Y1677D01*
X3345Y1677D02*
X3354Y1677D01*
X0Y1676D02*
X8Y1676D01*
X3345Y1676D02*
X3354Y1676D01*
X0Y1675D02*
X8Y1675D01*
X3345Y1675D02*
X3354Y1675D01*
X0Y1674D02*
X8Y1674D01*
X3345Y1674D02*
X3354Y1674D01*
X0Y1673D02*
X8Y1673D01*
X3345Y1673D02*
X3354Y1673D01*
X0Y1672D02*
X8Y1672D01*
X3345Y1672D02*
X3354Y1672D01*
X0Y1671D02*
X8Y1671D01*
X3345Y1671D02*
X3354Y1671D01*
X0Y1670D02*
X8Y1670D01*
X3345Y1670D02*
X3354Y1670D01*
X0Y1669D02*
X8Y1669D01*
X3345Y1669D02*
X3354Y1669D01*
X0Y1668D02*
X8Y1668D01*
X3345Y1668D02*
X3354Y1668D01*
X0Y1667D02*
X8Y1667D01*
X3345Y1667D02*
X3354Y1667D01*
X0Y1666D02*
X8Y1666D01*
X3345Y1666D02*
X3354Y1666D01*
X0Y1665D02*
X8Y1665D01*
X3345Y1665D02*
X3354Y1665D01*
X0Y1664D02*
X8Y1664D01*
X3345Y1664D02*
X3354Y1664D01*
X0Y1663D02*
X8Y1663D01*
X3345Y1663D02*
X3354Y1663D01*
X0Y1662D02*
X8Y1662D01*
X3345Y1662D02*
X3354Y1662D01*
X0Y1661D02*
X8Y1661D01*
X3345Y1661D02*
X3354Y1661D01*
X0Y1660D02*
X8Y1660D01*
X3345Y1660D02*
X3354Y1660D01*
X0Y1659D02*
X8Y1659D01*
X3345Y1659D02*
X3354Y1659D01*
X0Y1658D02*
X8Y1658D01*
X3345Y1658D02*
X3354Y1658D01*
X0Y1657D02*
X8Y1657D01*
X3345Y1657D02*
X3354Y1657D01*
X0Y1656D02*
X8Y1656D01*
X3345Y1656D02*
X3354Y1656D01*
X0Y1655D02*
X8Y1655D01*
X3345Y1655D02*
X3354Y1655D01*
X0Y1654D02*
X8Y1654D01*
X3345Y1654D02*
X3354Y1654D01*
X0Y1653D02*
X8Y1653D01*
X3345Y1653D02*
X3354Y1653D01*
X0Y1652D02*
X8Y1652D01*
X3345Y1652D02*
X3354Y1652D01*
X0Y1651D02*
X8Y1651D01*
X3345Y1651D02*
X3354Y1651D01*
X0Y1650D02*
X8Y1650D01*
X3345Y1650D02*
X3354Y1650D01*
X0Y1649D02*
X8Y1649D01*
X3345Y1649D02*
X3354Y1649D01*
X0Y1648D02*
X8Y1648D01*
X3345Y1648D02*
X3354Y1648D01*
X0Y1647D02*
X8Y1647D01*
X3345Y1647D02*
X3354Y1647D01*
X0Y1646D02*
X8Y1646D01*
X3345Y1646D02*
X3354Y1646D01*
X0Y1645D02*
X8Y1645D01*
X3345Y1645D02*
X3354Y1645D01*
X0Y1644D02*
X8Y1644D01*
X3345Y1644D02*
X3354Y1644D01*
X0Y1643D02*
X8Y1643D01*
X3345Y1643D02*
X3354Y1643D01*
X0Y1642D02*
X8Y1642D01*
X3345Y1642D02*
X3354Y1642D01*
X0Y1641D02*
X8Y1641D01*
X3345Y1641D02*
X3354Y1641D01*
X0Y1640D02*
X8Y1640D01*
X3345Y1640D02*
X3354Y1640D01*
X0Y1639D02*
X8Y1639D01*
X3345Y1639D02*
X3354Y1639D01*
X0Y1638D02*
X8Y1638D01*
X3345Y1638D02*
X3354Y1638D01*
X0Y1637D02*
X8Y1637D01*
X3345Y1637D02*
X3354Y1637D01*
X0Y1636D02*
X8Y1636D01*
X3345Y1636D02*
X3354Y1636D01*
X0Y1635D02*
X8Y1635D01*
X3345Y1635D02*
X3354Y1635D01*
X0Y1634D02*
X8Y1634D01*
X3345Y1634D02*
X3354Y1634D01*
X0Y1633D02*
X8Y1633D01*
X3345Y1633D02*
X3354Y1633D01*
X0Y1632D02*
X8Y1632D01*
X3345Y1632D02*
X3354Y1632D01*
X0Y1631D02*
X8Y1631D01*
X3345Y1631D02*
X3354Y1631D01*
X0Y1630D02*
X8Y1630D01*
X3345Y1630D02*
X3354Y1630D01*
X0Y1629D02*
X8Y1629D01*
X3345Y1629D02*
X3354Y1629D01*
X0Y1628D02*
X8Y1628D01*
X3345Y1628D02*
X3354Y1628D01*
X0Y1627D02*
X8Y1627D01*
X3345Y1627D02*
X3354Y1627D01*
X0Y1626D02*
X8Y1626D01*
X3345Y1626D02*
X3354Y1626D01*
X0Y1625D02*
X8Y1625D01*
X3345Y1625D02*
X3354Y1625D01*
X0Y1624D02*
X8Y1624D01*
X3345Y1624D02*
X3354Y1624D01*
X0Y1623D02*
X8Y1623D01*
X3345Y1623D02*
X3354Y1623D01*
X0Y1622D02*
X8Y1622D01*
X3345Y1622D02*
X3354Y1622D01*
X0Y1621D02*
X8Y1621D01*
X3345Y1621D02*
X3354Y1621D01*
X0Y1620D02*
X8Y1620D01*
X3345Y1620D02*
X3354Y1620D01*
X0Y1619D02*
X8Y1619D01*
X3345Y1619D02*
X3354Y1619D01*
X0Y1618D02*
X8Y1618D01*
X3345Y1618D02*
X3354Y1618D01*
X0Y1617D02*
X8Y1617D01*
X3345Y1617D02*
X3354Y1617D01*
X0Y1616D02*
X8Y1616D01*
X3345Y1616D02*
X3354Y1616D01*
X0Y1615D02*
X8Y1615D01*
X3345Y1615D02*
X3354Y1615D01*
X0Y1614D02*
X8Y1614D01*
X3345Y1614D02*
X3354Y1614D01*
X0Y1613D02*
X8Y1613D01*
X3345Y1613D02*
X3354Y1613D01*
X0Y1612D02*
X8Y1612D01*
X3345Y1612D02*
X3354Y1612D01*
X0Y1611D02*
X8Y1611D01*
X3345Y1611D02*
X3354Y1611D01*
X0Y1610D02*
X8Y1610D01*
X3345Y1610D02*
X3354Y1610D01*
X0Y1609D02*
X8Y1609D01*
X3345Y1609D02*
X3354Y1609D01*
X0Y1608D02*
X8Y1608D01*
X3345Y1608D02*
X3354Y1608D01*
X0Y1607D02*
X8Y1607D01*
X3345Y1607D02*
X3354Y1607D01*
X0Y1606D02*
X8Y1606D01*
X3345Y1606D02*
X3354Y1606D01*
X0Y1605D02*
X8Y1605D01*
X3345Y1605D02*
X3354Y1605D01*
X0Y1604D02*
X8Y1604D01*
X3345Y1604D02*
X3354Y1604D01*
X0Y1603D02*
X8Y1603D01*
X3345Y1603D02*
X3354Y1603D01*
X0Y1602D02*
X8Y1602D01*
X3345Y1602D02*
X3354Y1602D01*
X0Y1601D02*
X8Y1601D01*
X3345Y1601D02*
X3354Y1601D01*
X0Y1600D02*
X8Y1600D01*
X3345Y1600D02*
X3354Y1600D01*
X0Y1599D02*
X8Y1599D01*
X3345Y1599D02*
X3354Y1599D01*
X0Y1598D02*
X8Y1598D01*
X3345Y1598D02*
X3354Y1598D01*
X0Y1597D02*
X8Y1597D01*
X3345Y1597D02*
X3354Y1597D01*
X0Y1596D02*
X8Y1596D01*
X3345Y1596D02*
X3354Y1596D01*
X0Y1595D02*
X8Y1595D01*
X3345Y1595D02*
X3354Y1595D01*
X0Y1594D02*
X8Y1594D01*
X3345Y1594D02*
X3354Y1594D01*
X0Y1593D02*
X8Y1593D01*
X3345Y1593D02*
X3354Y1593D01*
X0Y1592D02*
X8Y1592D01*
X3345Y1592D02*
X3354Y1592D01*
X0Y1591D02*
X8Y1591D01*
X3345Y1591D02*
X3354Y1591D01*
X0Y1590D02*
X8Y1590D01*
X3345Y1590D02*
X3354Y1590D01*
X0Y1589D02*
X8Y1589D01*
X3345Y1589D02*
X3354Y1589D01*
X0Y1588D02*
X8Y1588D01*
X3345Y1588D02*
X3354Y1588D01*
X0Y1587D02*
X8Y1587D01*
X3345Y1587D02*
X3354Y1587D01*
X0Y1586D02*
X8Y1586D01*
X3345Y1586D02*
X3354Y1586D01*
X0Y1585D02*
X8Y1585D01*
X3345Y1585D02*
X3354Y1585D01*
X0Y1584D02*
X8Y1584D01*
X3345Y1584D02*
X3354Y1584D01*
X0Y1583D02*
X8Y1583D01*
X3345Y1583D02*
X3354Y1583D01*
X0Y1582D02*
X8Y1582D01*
X3345Y1582D02*
X3354Y1582D01*
X0Y1581D02*
X8Y1581D01*
X3345Y1581D02*
X3354Y1581D01*
X0Y1580D02*
X8Y1580D01*
X3345Y1580D02*
X3354Y1580D01*
X0Y1579D02*
X8Y1579D01*
X3345Y1579D02*
X3354Y1579D01*
X0Y1578D02*
X8Y1578D01*
X3345Y1578D02*
X3354Y1578D01*
X0Y1577D02*
X8Y1577D01*
X3345Y1577D02*
X3354Y1577D01*
X0Y1576D02*
X8Y1576D01*
X3345Y1576D02*
X3354Y1576D01*
X0Y1575D02*
X8Y1575D01*
X3345Y1575D02*
X3354Y1575D01*
X0Y1574D02*
X8Y1574D01*
X3345Y1574D02*
X3354Y1574D01*
X0Y1573D02*
X8Y1573D01*
X3345Y1573D02*
X3354Y1573D01*
X0Y1572D02*
X8Y1572D01*
X3345Y1572D02*
X3354Y1572D01*
X0Y1571D02*
X8Y1571D01*
X3345Y1571D02*
X3354Y1571D01*
X0Y1570D02*
X8Y1570D01*
X3345Y1570D02*
X3354Y1570D01*
X0Y1569D02*
X8Y1569D01*
X3345Y1569D02*
X3354Y1569D01*
X0Y1568D02*
X8Y1568D01*
X3345Y1568D02*
X3354Y1568D01*
X0Y1567D02*
X8Y1567D01*
X3345Y1567D02*
X3354Y1567D01*
X0Y1566D02*
X8Y1566D01*
X3345Y1566D02*
X3354Y1566D01*
X0Y1565D02*
X8Y1565D01*
X3345Y1565D02*
X3354Y1565D01*
X0Y1564D02*
X8Y1564D01*
X3345Y1564D02*
X3354Y1564D01*
X0Y1563D02*
X8Y1563D01*
X3345Y1563D02*
X3354Y1563D01*
X0Y1562D02*
X8Y1562D01*
X3345Y1562D02*
X3354Y1562D01*
X0Y1561D02*
X8Y1561D01*
X3345Y1561D02*
X3354Y1561D01*
X0Y1560D02*
X8Y1560D01*
X3345Y1560D02*
X3354Y1560D01*
X0Y1559D02*
X8Y1559D01*
X3345Y1559D02*
X3354Y1559D01*
X0Y1558D02*
X8Y1558D01*
X3345Y1558D02*
X3354Y1558D01*
X0Y1557D02*
X8Y1557D01*
X3345Y1557D02*
X3354Y1557D01*
X0Y1556D02*
X8Y1556D01*
X3345Y1556D02*
X3354Y1556D01*
X0Y1555D02*
X8Y1555D01*
X3345Y1555D02*
X3354Y1555D01*
X0Y1554D02*
X8Y1554D01*
X3345Y1554D02*
X3354Y1554D01*
X0Y1553D02*
X8Y1553D01*
X3345Y1553D02*
X3354Y1553D01*
X0Y1552D02*
X8Y1552D01*
X3345Y1552D02*
X3354Y1552D01*
X0Y1551D02*
X8Y1551D01*
X3345Y1551D02*
X3354Y1551D01*
X0Y1550D02*
X8Y1550D01*
X3345Y1550D02*
X3354Y1550D01*
X0Y1549D02*
X8Y1549D01*
X3345Y1549D02*
X3354Y1549D01*
X0Y1548D02*
X8Y1548D01*
X3345Y1548D02*
X3354Y1548D01*
X0Y1547D02*
X8Y1547D01*
X3345Y1547D02*
X3354Y1547D01*
X0Y1546D02*
X8Y1546D01*
X3345Y1546D02*
X3354Y1546D01*
X0Y1545D02*
X8Y1545D01*
X3345Y1545D02*
X3354Y1545D01*
X0Y1544D02*
X8Y1544D01*
X3345Y1544D02*
X3354Y1544D01*
X0Y1543D02*
X8Y1543D01*
X3345Y1543D02*
X3354Y1543D01*
X0Y1542D02*
X8Y1542D01*
X3345Y1542D02*
X3354Y1542D01*
X0Y1541D02*
X8Y1541D01*
X3345Y1541D02*
X3354Y1541D01*
X0Y1540D02*
X8Y1540D01*
X3345Y1540D02*
X3354Y1540D01*
X0Y1539D02*
X8Y1539D01*
X3345Y1539D02*
X3354Y1539D01*
X0Y1538D02*
X8Y1538D01*
X3345Y1538D02*
X3354Y1538D01*
X0Y1537D02*
X8Y1537D01*
X3345Y1537D02*
X3354Y1537D01*
X0Y1536D02*
X8Y1536D01*
X3345Y1536D02*
X3354Y1536D01*
X0Y1535D02*
X8Y1535D01*
X3345Y1535D02*
X3354Y1535D01*
X0Y1534D02*
X8Y1534D01*
X3345Y1534D02*
X3354Y1534D01*
X0Y1533D02*
X8Y1533D01*
X3345Y1533D02*
X3354Y1533D01*
X0Y1532D02*
X8Y1532D01*
X3345Y1532D02*
X3354Y1532D01*
X0Y1531D02*
X8Y1531D01*
X3345Y1531D02*
X3354Y1531D01*
X0Y1530D02*
X8Y1530D01*
X3345Y1530D02*
X3354Y1530D01*
X0Y1529D02*
X8Y1529D01*
X3345Y1529D02*
X3354Y1529D01*
X0Y1528D02*
X8Y1528D01*
X3345Y1528D02*
X3354Y1528D01*
X0Y1527D02*
X8Y1527D01*
X3345Y1527D02*
X3354Y1527D01*
X0Y1526D02*
X8Y1526D01*
X3345Y1526D02*
X3354Y1526D01*
X0Y1525D02*
X8Y1525D01*
X3345Y1525D02*
X3354Y1525D01*
X0Y1524D02*
X8Y1524D01*
X3345Y1524D02*
X3354Y1524D01*
X0Y1523D02*
X8Y1523D01*
X3345Y1523D02*
X3354Y1523D01*
X0Y1522D02*
X8Y1522D01*
X3345Y1522D02*
X3354Y1522D01*
X0Y1521D02*
X8Y1521D01*
X3345Y1521D02*
X3354Y1521D01*
X0Y1520D02*
X8Y1520D01*
X3345Y1520D02*
X3354Y1520D01*
X0Y1519D02*
X8Y1519D01*
X3345Y1519D02*
X3354Y1519D01*
X0Y1518D02*
X8Y1518D01*
X3345Y1518D02*
X3354Y1518D01*
X0Y1517D02*
X8Y1517D01*
X3345Y1517D02*
X3354Y1517D01*
X0Y1516D02*
X8Y1516D01*
X3345Y1516D02*
X3354Y1516D01*
X0Y1515D02*
X8Y1515D01*
X3345Y1515D02*
X3354Y1515D01*
X0Y1514D02*
X8Y1514D01*
X3345Y1514D02*
X3354Y1514D01*
X0Y1513D02*
X8Y1513D01*
X3345Y1513D02*
X3354Y1513D01*
X0Y1512D02*
X8Y1512D01*
X3345Y1512D02*
X3354Y1512D01*
X0Y1511D02*
X8Y1511D01*
X3345Y1511D02*
X3354Y1511D01*
X0Y1510D02*
X8Y1510D01*
X3345Y1510D02*
X3354Y1510D01*
X0Y1509D02*
X8Y1509D01*
X3345Y1509D02*
X3354Y1509D01*
X0Y1508D02*
X8Y1508D01*
X3345Y1508D02*
X3354Y1508D01*
X0Y1507D02*
X8Y1507D01*
X3345Y1507D02*
X3354Y1507D01*
X0Y1506D02*
X8Y1506D01*
X3345Y1506D02*
X3354Y1506D01*
X0Y1505D02*
X8Y1505D01*
X3345Y1505D02*
X3354Y1505D01*
X0Y1504D02*
X8Y1504D01*
X3345Y1504D02*
X3354Y1504D01*
X0Y1503D02*
X8Y1503D01*
X3345Y1503D02*
X3354Y1503D01*
X0Y1502D02*
X8Y1502D01*
X3345Y1502D02*
X3354Y1502D01*
X0Y1501D02*
X8Y1501D01*
X3345Y1501D02*
X3354Y1501D01*
X0Y1500D02*
X8Y1500D01*
X3345Y1500D02*
X3354Y1500D01*
X0Y1499D02*
X8Y1499D01*
X3345Y1499D02*
X3354Y1499D01*
X0Y1498D02*
X8Y1498D01*
X3345Y1498D02*
X3354Y1498D01*
X0Y1497D02*
X8Y1497D01*
X3345Y1497D02*
X3354Y1497D01*
X0Y1496D02*
X8Y1496D01*
X3345Y1496D02*
X3354Y1496D01*
X0Y1495D02*
X8Y1495D01*
X3345Y1495D02*
X3354Y1495D01*
X0Y1494D02*
X8Y1494D01*
X3345Y1494D02*
X3354Y1494D01*
X0Y1493D02*
X8Y1493D01*
X3345Y1493D02*
X3354Y1493D01*
X0Y1492D02*
X8Y1492D01*
X3345Y1492D02*
X3354Y1492D01*
X0Y1491D02*
X8Y1491D01*
X3345Y1491D02*
X3354Y1491D01*
X0Y1490D02*
X8Y1490D01*
X3345Y1490D02*
X3354Y1490D01*
X0Y1489D02*
X8Y1489D01*
X3345Y1489D02*
X3354Y1489D01*
X0Y1488D02*
X8Y1488D01*
X3345Y1488D02*
X3354Y1488D01*
X0Y1487D02*
X8Y1487D01*
X3345Y1487D02*
X3354Y1487D01*
X0Y1486D02*
X8Y1486D01*
X3345Y1486D02*
X3354Y1486D01*
X0Y1485D02*
X8Y1485D01*
X3345Y1485D02*
X3354Y1485D01*
X0Y1484D02*
X8Y1484D01*
X3345Y1484D02*
X3354Y1484D01*
X0Y1483D02*
X8Y1483D01*
X3345Y1483D02*
X3354Y1483D01*
X0Y1482D02*
X8Y1482D01*
X3345Y1482D02*
X3354Y1482D01*
X0Y1481D02*
X8Y1481D01*
X3345Y1481D02*
X3354Y1481D01*
X0Y1480D02*
X8Y1480D01*
X3345Y1480D02*
X3354Y1480D01*
X0Y1479D02*
X8Y1479D01*
X3345Y1479D02*
X3354Y1479D01*
X0Y1478D02*
X8Y1478D01*
X3345Y1478D02*
X3354Y1478D01*
X0Y1477D02*
X8Y1477D01*
X3345Y1477D02*
X3354Y1477D01*
X0Y1476D02*
X8Y1476D01*
X3345Y1476D02*
X3354Y1476D01*
X0Y1475D02*
X8Y1475D01*
X3345Y1475D02*
X3354Y1475D01*
X0Y1474D02*
X8Y1474D01*
X3345Y1474D02*
X3354Y1474D01*
X0Y1473D02*
X8Y1473D01*
X3345Y1473D02*
X3354Y1473D01*
X0Y1472D02*
X8Y1472D01*
X3345Y1472D02*
X3354Y1472D01*
X0Y1471D02*
X8Y1471D01*
X3345Y1471D02*
X3354Y1471D01*
X0Y1470D02*
X8Y1470D01*
X3345Y1470D02*
X3354Y1470D01*
X0Y1469D02*
X8Y1469D01*
X3345Y1469D02*
X3354Y1469D01*
X0Y1468D02*
X8Y1468D01*
X3345Y1468D02*
X3354Y1468D01*
X0Y1467D02*
X8Y1467D01*
X3345Y1467D02*
X3354Y1467D01*
X0Y1466D02*
X8Y1466D01*
X3345Y1466D02*
X3354Y1466D01*
X0Y1465D02*
X8Y1465D01*
X3345Y1465D02*
X3354Y1465D01*
X0Y1464D02*
X8Y1464D01*
X3345Y1464D02*
X3354Y1464D01*
X0Y1463D02*
X8Y1463D01*
X3345Y1463D02*
X3354Y1463D01*
X0Y1462D02*
X8Y1462D01*
X3345Y1462D02*
X3354Y1462D01*
X0Y1461D02*
X8Y1461D01*
X3345Y1461D02*
X3354Y1461D01*
X0Y1460D02*
X8Y1460D01*
X3345Y1460D02*
X3354Y1460D01*
X0Y1459D02*
X8Y1459D01*
X3345Y1459D02*
X3354Y1459D01*
X0Y1458D02*
X8Y1458D01*
X3345Y1458D02*
X3354Y1458D01*
X0Y1457D02*
X8Y1457D01*
X3345Y1457D02*
X3354Y1457D01*
X0Y1456D02*
X8Y1456D01*
X3345Y1456D02*
X3354Y1456D01*
X0Y1455D02*
X8Y1455D01*
X3345Y1455D02*
X3354Y1455D01*
X0Y1454D02*
X8Y1454D01*
X3345Y1454D02*
X3354Y1454D01*
X0Y1453D02*
X8Y1453D01*
X3345Y1453D02*
X3354Y1453D01*
X0Y1452D02*
X8Y1452D01*
X3345Y1452D02*
X3354Y1452D01*
X0Y1451D02*
X8Y1451D01*
X3345Y1451D02*
X3354Y1451D01*
X0Y1450D02*
X8Y1450D01*
X3345Y1450D02*
X3354Y1450D01*
X0Y1449D02*
X8Y1449D01*
X3345Y1449D02*
X3354Y1449D01*
X0Y1448D02*
X8Y1448D01*
X3345Y1448D02*
X3354Y1448D01*
X0Y1447D02*
X8Y1447D01*
X3345Y1447D02*
X3354Y1447D01*
X0Y1446D02*
X8Y1446D01*
X3345Y1446D02*
X3354Y1446D01*
X0Y1445D02*
X8Y1445D01*
X3345Y1445D02*
X3354Y1445D01*
X0Y1444D02*
X8Y1444D01*
X3345Y1444D02*
X3354Y1444D01*
X0Y1443D02*
X8Y1443D01*
X3345Y1443D02*
X3354Y1443D01*
X0Y1442D02*
X8Y1442D01*
X3345Y1442D02*
X3354Y1442D01*
X0Y1441D02*
X8Y1441D01*
X3345Y1441D02*
X3354Y1441D01*
X0Y1440D02*
X8Y1440D01*
X3345Y1440D02*
X3354Y1440D01*
X0Y1439D02*
X8Y1439D01*
X3345Y1439D02*
X3354Y1439D01*
X0Y1438D02*
X8Y1438D01*
X3345Y1438D02*
X3354Y1438D01*
X0Y1437D02*
X8Y1437D01*
X3345Y1437D02*
X3354Y1437D01*
X0Y1436D02*
X8Y1436D01*
X3345Y1436D02*
X3354Y1436D01*
X0Y1435D02*
X8Y1435D01*
X3345Y1435D02*
X3354Y1435D01*
X0Y1434D02*
X8Y1434D01*
X3345Y1434D02*
X3354Y1434D01*
X0Y1433D02*
X8Y1433D01*
X3345Y1433D02*
X3354Y1433D01*
X0Y1432D02*
X8Y1432D01*
X3345Y1432D02*
X3354Y1432D01*
X0Y1431D02*
X8Y1431D01*
X3345Y1431D02*
X3354Y1431D01*
X0Y1430D02*
X8Y1430D01*
X3345Y1430D02*
X3354Y1430D01*
X0Y1429D02*
X8Y1429D01*
X3345Y1429D02*
X3354Y1429D01*
X0Y1428D02*
X8Y1428D01*
X3345Y1428D02*
X3354Y1428D01*
X0Y1427D02*
X8Y1427D01*
X3345Y1427D02*
X3354Y1427D01*
X0Y1426D02*
X8Y1426D01*
X3345Y1426D02*
X3354Y1426D01*
X0Y1425D02*
X8Y1425D01*
X3345Y1425D02*
X3354Y1425D01*
X0Y1424D02*
X8Y1424D01*
X3345Y1424D02*
X3354Y1424D01*
X0Y1423D02*
X8Y1423D01*
X3345Y1423D02*
X3354Y1423D01*
X0Y1422D02*
X8Y1422D01*
X3345Y1422D02*
X3354Y1422D01*
X0Y1421D02*
X8Y1421D01*
X3345Y1421D02*
X3354Y1421D01*
X0Y1420D02*
X8Y1420D01*
X3345Y1420D02*
X3354Y1420D01*
X0Y1419D02*
X8Y1419D01*
X3345Y1419D02*
X3354Y1419D01*
X0Y1418D02*
X8Y1418D01*
X3345Y1418D02*
X3354Y1418D01*
X0Y1417D02*
X8Y1417D01*
X3345Y1417D02*
X3354Y1417D01*
X0Y1416D02*
X8Y1416D01*
X3345Y1416D02*
X3354Y1416D01*
X0Y1415D02*
X8Y1415D01*
X3345Y1415D02*
X3354Y1415D01*
X0Y1414D02*
X8Y1414D01*
X3345Y1414D02*
X3354Y1414D01*
X0Y1413D02*
X8Y1413D01*
X3345Y1413D02*
X3354Y1413D01*
X0Y1412D02*
X8Y1412D01*
X3345Y1412D02*
X3354Y1412D01*
X0Y1411D02*
X8Y1411D01*
X3345Y1411D02*
X3354Y1411D01*
X0Y1410D02*
X8Y1410D01*
X3345Y1410D02*
X3354Y1410D01*
X0Y1409D02*
X8Y1409D01*
X3345Y1409D02*
X3354Y1409D01*
X0Y1408D02*
X8Y1408D01*
X3345Y1408D02*
X3354Y1408D01*
X0Y1407D02*
X8Y1407D01*
X3345Y1407D02*
X3354Y1407D01*
X0Y1406D02*
X8Y1406D01*
X3345Y1406D02*
X3354Y1406D01*
X0Y1405D02*
X8Y1405D01*
X3345Y1405D02*
X3354Y1405D01*
X0Y1404D02*
X8Y1404D01*
X3345Y1404D02*
X3354Y1404D01*
X0Y1403D02*
X8Y1403D01*
X3345Y1403D02*
X3354Y1403D01*
X0Y1402D02*
X8Y1402D01*
X3345Y1402D02*
X3354Y1402D01*
X0Y1401D02*
X8Y1401D01*
X3345Y1401D02*
X3354Y1401D01*
X0Y1400D02*
X8Y1400D01*
X3345Y1400D02*
X3354Y1400D01*
X0Y1399D02*
X8Y1399D01*
X3345Y1399D02*
X3354Y1399D01*
X0Y1398D02*
X8Y1398D01*
X3345Y1398D02*
X3354Y1398D01*
X0Y1397D02*
X8Y1397D01*
X3345Y1397D02*
X3354Y1397D01*
X0Y1396D02*
X8Y1396D01*
X3345Y1396D02*
X3354Y1396D01*
X0Y1395D02*
X8Y1395D01*
X3345Y1395D02*
X3354Y1395D01*
X0Y1394D02*
X8Y1394D01*
X3345Y1394D02*
X3354Y1394D01*
X0Y1393D02*
X8Y1393D01*
X3345Y1393D02*
X3354Y1393D01*
X0Y1392D02*
X8Y1392D01*
X3345Y1392D02*
X3354Y1392D01*
X0Y1391D02*
X8Y1391D01*
X3345Y1391D02*
X3354Y1391D01*
X0Y1390D02*
X8Y1390D01*
X3345Y1390D02*
X3354Y1390D01*
X0Y1389D02*
X8Y1389D01*
X3345Y1389D02*
X3354Y1389D01*
X0Y1388D02*
X8Y1388D01*
X3345Y1388D02*
X3354Y1388D01*
X0Y1387D02*
X8Y1387D01*
X3345Y1387D02*
X3354Y1387D01*
X0Y1386D02*
X8Y1386D01*
X3345Y1386D02*
X3354Y1386D01*
X0Y1385D02*
X8Y1385D01*
X3345Y1385D02*
X3354Y1385D01*
X0Y1384D02*
X8Y1384D01*
X3345Y1384D02*
X3354Y1384D01*
X0Y1383D02*
X8Y1383D01*
X3345Y1383D02*
X3354Y1383D01*
X0Y1382D02*
X8Y1382D01*
X3345Y1382D02*
X3354Y1382D01*
X0Y1381D02*
X8Y1381D01*
X3345Y1381D02*
X3354Y1381D01*
X0Y1380D02*
X8Y1380D01*
X3345Y1380D02*
X3354Y1380D01*
X0Y1379D02*
X8Y1379D01*
X3345Y1379D02*
X3354Y1379D01*
X0Y1378D02*
X8Y1378D01*
X3345Y1378D02*
X3354Y1378D01*
X0Y1377D02*
X8Y1377D01*
X3345Y1377D02*
X3354Y1377D01*
X0Y1376D02*
X8Y1376D01*
X3345Y1376D02*
X3354Y1376D01*
X0Y1375D02*
X8Y1375D01*
X3345Y1375D02*
X3354Y1375D01*
X0Y1374D02*
X8Y1374D01*
X3345Y1374D02*
X3354Y1374D01*
X0Y1373D02*
X8Y1373D01*
X3345Y1373D02*
X3354Y1373D01*
X0Y1372D02*
X8Y1372D01*
X3345Y1372D02*
X3354Y1372D01*
X0Y1371D02*
X8Y1371D01*
X3345Y1371D02*
X3354Y1371D01*
X0Y1370D02*
X8Y1370D01*
X3345Y1370D02*
X3354Y1370D01*
X0Y1369D02*
X8Y1369D01*
X3345Y1369D02*
X3354Y1369D01*
X0Y1368D02*
X8Y1368D01*
X3345Y1368D02*
X3354Y1368D01*
X0Y1367D02*
X8Y1367D01*
X3345Y1367D02*
X3354Y1367D01*
X0Y1366D02*
X8Y1366D01*
X3345Y1366D02*
X3354Y1366D01*
X0Y1365D02*
X8Y1365D01*
X3345Y1365D02*
X3354Y1365D01*
X0Y1364D02*
X8Y1364D01*
X3345Y1364D02*
X3354Y1364D01*
X0Y1363D02*
X8Y1363D01*
X3345Y1363D02*
X3354Y1363D01*
X0Y1362D02*
X8Y1362D01*
X3345Y1362D02*
X3354Y1362D01*
X0Y1361D02*
X8Y1361D01*
X3345Y1361D02*
X3354Y1361D01*
X0Y1360D02*
X8Y1360D01*
X3345Y1360D02*
X3354Y1360D01*
X0Y1359D02*
X8Y1359D01*
X3345Y1359D02*
X3354Y1359D01*
X0Y1358D02*
X8Y1358D01*
X3345Y1358D02*
X3354Y1358D01*
X0Y1357D02*
X8Y1357D01*
X3345Y1357D02*
X3354Y1357D01*
X0Y1356D02*
X8Y1356D01*
X3345Y1356D02*
X3354Y1356D01*
X0Y1355D02*
X8Y1355D01*
X3345Y1355D02*
X3354Y1355D01*
X0Y1354D02*
X8Y1354D01*
X3345Y1354D02*
X3354Y1354D01*
X0Y1353D02*
X8Y1353D01*
X3345Y1353D02*
X3354Y1353D01*
X0Y1352D02*
X8Y1352D01*
X3345Y1352D02*
X3354Y1352D01*
X0Y1351D02*
X8Y1351D01*
X3345Y1351D02*
X3354Y1351D01*
X0Y1350D02*
X8Y1350D01*
X3345Y1350D02*
X3354Y1350D01*
X0Y1349D02*
X8Y1349D01*
X3345Y1349D02*
X3354Y1349D01*
X0Y1348D02*
X8Y1348D01*
X3345Y1348D02*
X3354Y1348D01*
X0Y1347D02*
X8Y1347D01*
X3345Y1347D02*
X3354Y1347D01*
X0Y1346D02*
X8Y1346D01*
X3345Y1346D02*
X3354Y1346D01*
X0Y1345D02*
X8Y1345D01*
X3345Y1345D02*
X3354Y1345D01*
X0Y1344D02*
X8Y1344D01*
X3345Y1344D02*
X3354Y1344D01*
X0Y1343D02*
X8Y1343D01*
X3345Y1343D02*
X3354Y1343D01*
X0Y1342D02*
X8Y1342D01*
X3345Y1342D02*
X3354Y1342D01*
X0Y1341D02*
X8Y1341D01*
X3345Y1341D02*
X3354Y1341D01*
X0Y1340D02*
X8Y1340D01*
X3345Y1340D02*
X3354Y1340D01*
X0Y1339D02*
X8Y1339D01*
X3345Y1339D02*
X3354Y1339D01*
X0Y1338D02*
X8Y1338D01*
X3345Y1338D02*
X3354Y1338D01*
X0Y1337D02*
X8Y1337D01*
X3345Y1337D02*
X3354Y1337D01*
X0Y1336D02*
X8Y1336D01*
X3345Y1336D02*
X3354Y1336D01*
X0Y1335D02*
X8Y1335D01*
X3345Y1335D02*
X3354Y1335D01*
X0Y1334D02*
X8Y1334D01*
X3345Y1334D02*
X3354Y1334D01*
X0Y1333D02*
X8Y1333D01*
X3345Y1333D02*
X3354Y1333D01*
X0Y1332D02*
X8Y1332D01*
X3345Y1332D02*
X3354Y1332D01*
X0Y1331D02*
X8Y1331D01*
X3345Y1331D02*
X3354Y1331D01*
X0Y1330D02*
X8Y1330D01*
X3345Y1330D02*
X3354Y1330D01*
X0Y1329D02*
X8Y1329D01*
X3345Y1329D02*
X3354Y1329D01*
X0Y1328D02*
X8Y1328D01*
X3345Y1328D02*
X3354Y1328D01*
X0Y1327D02*
X8Y1327D01*
X3345Y1327D02*
X3354Y1327D01*
X0Y1326D02*
X8Y1326D01*
X3345Y1326D02*
X3354Y1326D01*
X0Y1325D02*
X8Y1325D01*
X3345Y1325D02*
X3354Y1325D01*
X0Y1324D02*
X8Y1324D01*
X3345Y1324D02*
X3354Y1324D01*
X0Y1323D02*
X8Y1323D01*
X3345Y1323D02*
X3354Y1323D01*
X0Y1322D02*
X8Y1322D01*
X3345Y1322D02*
X3354Y1322D01*
X0Y1321D02*
X8Y1321D01*
X3345Y1321D02*
X3354Y1321D01*
X0Y1320D02*
X8Y1320D01*
X3345Y1320D02*
X3354Y1320D01*
X0Y1319D02*
X8Y1319D01*
X3345Y1319D02*
X3354Y1319D01*
X0Y1318D02*
X8Y1318D01*
X3345Y1318D02*
X3354Y1318D01*
X0Y1317D02*
X8Y1317D01*
X3345Y1317D02*
X3354Y1317D01*
X0Y1316D02*
X8Y1316D01*
X3345Y1316D02*
X3354Y1316D01*
X0Y1315D02*
X8Y1315D01*
X3345Y1315D02*
X3354Y1315D01*
X0Y1314D02*
X8Y1314D01*
X3345Y1314D02*
X3354Y1314D01*
X0Y1313D02*
X8Y1313D01*
X3345Y1313D02*
X3354Y1313D01*
X0Y1312D02*
X8Y1312D01*
X3345Y1312D02*
X3354Y1312D01*
X0Y1311D02*
X8Y1311D01*
X3345Y1311D02*
X3354Y1311D01*
X0Y1310D02*
X8Y1310D01*
X3345Y1310D02*
X3354Y1310D01*
X0Y1309D02*
X8Y1309D01*
X3345Y1309D02*
X3354Y1309D01*
X0Y1308D02*
X8Y1308D01*
X3345Y1308D02*
X3354Y1308D01*
X0Y1307D02*
X8Y1307D01*
X3345Y1307D02*
X3354Y1307D01*
X0Y1306D02*
X8Y1306D01*
X3345Y1306D02*
X3354Y1306D01*
X0Y1305D02*
X8Y1305D01*
X3345Y1305D02*
X3354Y1305D01*
X0Y1304D02*
X8Y1304D01*
X3345Y1304D02*
X3354Y1304D01*
X0Y1303D02*
X8Y1303D01*
X3345Y1303D02*
X3354Y1303D01*
X0Y1302D02*
X8Y1302D01*
X3345Y1302D02*
X3354Y1302D01*
X0Y1301D02*
X8Y1301D01*
X3345Y1301D02*
X3354Y1301D01*
X0Y1300D02*
X8Y1300D01*
X3345Y1300D02*
X3354Y1300D01*
X0Y1299D02*
X8Y1299D01*
X3345Y1299D02*
X3354Y1299D01*
X0Y1298D02*
X8Y1298D01*
X3345Y1298D02*
X3354Y1298D01*
X0Y1297D02*
X8Y1297D01*
X3345Y1297D02*
X3354Y1297D01*
X0Y1296D02*
X8Y1296D01*
X3345Y1296D02*
X3354Y1296D01*
X0Y1295D02*
X8Y1295D01*
X3345Y1295D02*
X3354Y1295D01*
X0Y1294D02*
X8Y1294D01*
X3345Y1294D02*
X3354Y1294D01*
X0Y1293D02*
X8Y1293D01*
X3345Y1293D02*
X3354Y1293D01*
X0Y1292D02*
X8Y1292D01*
X3345Y1292D02*
X3354Y1292D01*
X0Y1291D02*
X8Y1291D01*
X3345Y1291D02*
X3354Y1291D01*
X0Y1290D02*
X8Y1290D01*
X3345Y1290D02*
X3354Y1290D01*
X0Y1289D02*
X8Y1289D01*
X3345Y1289D02*
X3354Y1289D01*
X0Y1288D02*
X8Y1288D01*
X3345Y1288D02*
X3354Y1288D01*
X0Y1287D02*
X8Y1287D01*
X3345Y1287D02*
X3354Y1287D01*
X0Y1286D02*
X8Y1286D01*
X3345Y1286D02*
X3354Y1286D01*
X0Y1285D02*
X8Y1285D01*
X3345Y1285D02*
X3354Y1285D01*
X0Y1284D02*
X8Y1284D01*
X3345Y1284D02*
X3354Y1284D01*
X0Y1283D02*
X8Y1283D01*
X3345Y1283D02*
X3354Y1283D01*
X0Y1282D02*
X8Y1282D01*
X3345Y1282D02*
X3354Y1282D01*
X0Y1281D02*
X8Y1281D01*
X3345Y1281D02*
X3354Y1281D01*
X0Y1280D02*
X8Y1280D01*
X3345Y1280D02*
X3354Y1280D01*
X0Y1279D02*
X8Y1279D01*
X3345Y1279D02*
X3354Y1279D01*
X0Y1278D02*
X8Y1278D01*
X3345Y1278D02*
X3354Y1278D01*
X0Y1277D02*
X8Y1277D01*
X3345Y1277D02*
X3354Y1277D01*
X0Y1276D02*
X8Y1276D01*
X3345Y1276D02*
X3354Y1276D01*
X0Y1275D02*
X8Y1275D01*
X3345Y1275D02*
X3354Y1275D01*
X0Y1274D02*
X8Y1274D01*
X3345Y1274D02*
X3354Y1274D01*
X0Y1273D02*
X8Y1273D01*
X3345Y1273D02*
X3354Y1273D01*
X0Y1272D02*
X8Y1272D01*
X3345Y1272D02*
X3354Y1272D01*
X0Y1271D02*
X8Y1271D01*
X3345Y1271D02*
X3354Y1271D01*
X0Y1270D02*
X8Y1270D01*
X3345Y1270D02*
X3354Y1270D01*
X0Y1269D02*
X8Y1269D01*
X3345Y1269D02*
X3354Y1269D01*
X0Y1268D02*
X8Y1268D01*
X3345Y1268D02*
X3354Y1268D01*
X0Y1267D02*
X8Y1267D01*
X3345Y1267D02*
X3354Y1267D01*
X0Y1266D02*
X8Y1266D01*
X3345Y1266D02*
X3354Y1266D01*
X0Y1265D02*
X8Y1265D01*
X3345Y1265D02*
X3354Y1265D01*
X0Y1264D02*
X8Y1264D01*
X3345Y1264D02*
X3354Y1264D01*
X0Y1263D02*
X8Y1263D01*
X3345Y1263D02*
X3354Y1263D01*
X0Y1262D02*
X8Y1262D01*
X3345Y1262D02*
X3354Y1262D01*
X0Y1261D02*
X8Y1261D01*
X3345Y1261D02*
X3354Y1261D01*
X0Y1260D02*
X8Y1260D01*
X3345Y1260D02*
X3354Y1260D01*
X0Y1259D02*
X8Y1259D01*
X3345Y1259D02*
X3354Y1259D01*
X0Y1258D02*
X8Y1258D01*
X3345Y1258D02*
X3354Y1258D01*
X0Y1257D02*
X8Y1257D01*
X3345Y1257D02*
X3354Y1257D01*
X0Y1256D02*
X8Y1256D01*
X3345Y1256D02*
X3354Y1256D01*
X0Y1255D02*
X8Y1255D01*
X3345Y1255D02*
X3354Y1255D01*
X0Y1254D02*
X8Y1254D01*
X3345Y1254D02*
X3354Y1254D01*
X0Y1253D02*
X8Y1253D01*
X3345Y1253D02*
X3354Y1253D01*
X0Y1252D02*
X8Y1252D01*
X3345Y1252D02*
X3354Y1252D01*
X0Y1251D02*
X8Y1251D01*
X3345Y1251D02*
X3354Y1251D01*
X0Y1250D02*
X8Y1250D01*
X3345Y1250D02*
X3354Y1250D01*
X0Y1249D02*
X8Y1249D01*
X3345Y1249D02*
X3354Y1249D01*
X0Y1248D02*
X8Y1248D01*
X3345Y1248D02*
X3354Y1248D01*
X0Y1247D02*
X8Y1247D01*
X3345Y1247D02*
X3354Y1247D01*
X0Y1246D02*
X8Y1246D01*
X3345Y1246D02*
X3354Y1246D01*
X0Y1245D02*
X8Y1245D01*
X3345Y1245D02*
X3354Y1245D01*
X0Y1244D02*
X8Y1244D01*
X3345Y1244D02*
X3354Y1244D01*
X0Y1243D02*
X8Y1243D01*
X3345Y1243D02*
X3354Y1243D01*
X0Y1242D02*
X8Y1242D01*
X3345Y1242D02*
X3354Y1242D01*
X0Y1241D02*
X8Y1241D01*
X3345Y1241D02*
X3354Y1241D01*
X0Y1240D02*
X8Y1240D01*
X3345Y1240D02*
X3354Y1240D01*
X0Y1239D02*
X8Y1239D01*
X3345Y1239D02*
X3354Y1239D01*
X0Y1238D02*
X8Y1238D01*
X3345Y1238D02*
X3354Y1238D01*
X0Y1237D02*
X8Y1237D01*
X3345Y1237D02*
X3354Y1237D01*
X0Y1236D02*
X8Y1236D01*
X3345Y1236D02*
X3354Y1236D01*
X0Y1235D02*
X8Y1235D01*
X3345Y1235D02*
X3354Y1235D01*
X0Y1234D02*
X8Y1234D01*
X3345Y1234D02*
X3354Y1234D01*
X0Y1233D02*
X8Y1233D01*
X3345Y1233D02*
X3354Y1233D01*
X0Y1232D02*
X8Y1232D01*
X3345Y1232D02*
X3354Y1232D01*
X0Y1231D02*
X8Y1231D01*
X3345Y1231D02*
X3354Y1231D01*
X0Y1230D02*
X8Y1230D01*
X3345Y1230D02*
X3354Y1230D01*
X0Y1229D02*
X8Y1229D01*
X3345Y1229D02*
X3354Y1229D01*
X0Y1228D02*
X8Y1228D01*
X3345Y1228D02*
X3354Y1228D01*
X0Y1227D02*
X8Y1227D01*
X3345Y1227D02*
X3354Y1227D01*
X0Y1226D02*
X8Y1226D01*
X3345Y1226D02*
X3354Y1226D01*
X0Y1225D02*
X8Y1225D01*
X3345Y1225D02*
X3354Y1225D01*
X0Y1224D02*
X8Y1224D01*
X3345Y1224D02*
X3354Y1224D01*
X0Y1223D02*
X8Y1223D01*
X3345Y1223D02*
X3354Y1223D01*
X0Y1222D02*
X8Y1222D01*
X3345Y1222D02*
X3354Y1222D01*
X0Y1221D02*
X8Y1221D01*
X3345Y1221D02*
X3354Y1221D01*
X0Y1220D02*
X8Y1220D01*
X3345Y1220D02*
X3354Y1220D01*
X0Y1219D02*
X8Y1219D01*
X3345Y1219D02*
X3354Y1219D01*
X0Y1218D02*
X8Y1218D01*
X3345Y1218D02*
X3354Y1218D01*
X0Y1217D02*
X8Y1217D01*
X3345Y1217D02*
X3354Y1217D01*
X0Y1216D02*
X8Y1216D01*
X3345Y1216D02*
X3354Y1216D01*
X0Y1215D02*
X8Y1215D01*
X3345Y1215D02*
X3354Y1215D01*
X0Y1214D02*
X8Y1214D01*
X3345Y1214D02*
X3354Y1214D01*
X0Y1213D02*
X8Y1213D01*
X3345Y1213D02*
X3354Y1213D01*
X0Y1212D02*
X8Y1212D01*
X3345Y1212D02*
X3354Y1212D01*
X0Y1211D02*
X8Y1211D01*
X3345Y1211D02*
X3354Y1211D01*
X0Y1210D02*
X8Y1210D01*
X3345Y1210D02*
X3354Y1210D01*
X0Y1209D02*
X8Y1209D01*
X3345Y1209D02*
X3354Y1209D01*
X0Y1208D02*
X8Y1208D01*
X3345Y1208D02*
X3354Y1208D01*
X0Y1207D02*
X8Y1207D01*
X3345Y1207D02*
X3354Y1207D01*
X0Y1206D02*
X8Y1206D01*
X3345Y1206D02*
X3354Y1206D01*
X0Y1205D02*
X8Y1205D01*
X3345Y1205D02*
X3354Y1205D01*
X0Y1204D02*
X8Y1204D01*
X3345Y1204D02*
X3354Y1204D01*
X0Y1203D02*
X8Y1203D01*
X3345Y1203D02*
X3354Y1203D01*
X0Y1202D02*
X8Y1202D01*
X3345Y1202D02*
X3354Y1202D01*
X0Y1201D02*
X8Y1201D01*
X3345Y1201D02*
X3354Y1201D01*
X0Y1200D02*
X8Y1200D01*
X3345Y1200D02*
X3354Y1200D01*
X0Y1199D02*
X8Y1199D01*
X3345Y1199D02*
X3354Y1199D01*
X0Y1198D02*
X8Y1198D01*
X3345Y1198D02*
X3354Y1198D01*
X0Y1197D02*
X8Y1197D01*
X3345Y1197D02*
X3354Y1197D01*
X0Y1196D02*
X8Y1196D01*
X3345Y1196D02*
X3354Y1196D01*
X0Y1195D02*
X8Y1195D01*
X3345Y1195D02*
X3354Y1195D01*
X0Y1194D02*
X8Y1194D01*
X3345Y1194D02*
X3354Y1194D01*
X0Y1193D02*
X8Y1193D01*
X3345Y1193D02*
X3354Y1193D01*
X0Y1192D02*
X8Y1192D01*
X3345Y1192D02*
X3354Y1192D01*
X0Y1191D02*
X8Y1191D01*
X3345Y1191D02*
X3354Y1191D01*
X0Y1190D02*
X8Y1190D01*
X3345Y1190D02*
X3354Y1190D01*
X0Y1189D02*
X8Y1189D01*
X3345Y1189D02*
X3354Y1189D01*
X0Y1188D02*
X8Y1188D01*
X3345Y1188D02*
X3354Y1188D01*
X0Y1187D02*
X8Y1187D01*
X3345Y1187D02*
X3354Y1187D01*
X0Y1186D02*
X8Y1186D01*
X3345Y1186D02*
X3354Y1186D01*
X0Y1185D02*
X8Y1185D01*
X3345Y1185D02*
X3354Y1185D01*
X0Y1184D02*
X8Y1184D01*
X3345Y1184D02*
X3354Y1184D01*
X0Y1183D02*
X8Y1183D01*
X3345Y1183D02*
X3354Y1183D01*
X0Y1182D02*
X8Y1182D01*
X3345Y1182D02*
X3354Y1182D01*
X0Y1181D02*
X8Y1181D01*
X3345Y1181D02*
X3354Y1181D01*
X0Y1180D02*
X8Y1180D01*
X3345Y1180D02*
X3354Y1180D01*
X0Y1179D02*
X8Y1179D01*
X3345Y1179D02*
X3354Y1179D01*
X0Y1178D02*
X8Y1178D01*
X3345Y1178D02*
X3354Y1178D01*
X0Y1177D02*
X8Y1177D01*
X3345Y1177D02*
X3354Y1177D01*
X0Y1176D02*
X8Y1176D01*
X3345Y1176D02*
X3354Y1176D01*
X0Y1175D02*
X8Y1175D01*
X3345Y1175D02*
X3354Y1175D01*
X0Y1174D02*
X8Y1174D01*
X3345Y1174D02*
X3354Y1174D01*
X0Y1173D02*
X8Y1173D01*
X3345Y1173D02*
X3354Y1173D01*
X0Y1172D02*
X8Y1172D01*
X3345Y1172D02*
X3354Y1172D01*
X0Y1171D02*
X8Y1171D01*
X3345Y1171D02*
X3354Y1171D01*
X0Y1170D02*
X8Y1170D01*
X3345Y1170D02*
X3354Y1170D01*
X0Y1169D02*
X8Y1169D01*
X3345Y1169D02*
X3354Y1169D01*
X0Y1168D02*
X8Y1168D01*
X3345Y1168D02*
X3354Y1168D01*
X0Y1167D02*
X8Y1167D01*
X3345Y1167D02*
X3354Y1167D01*
X0Y1166D02*
X8Y1166D01*
X3345Y1166D02*
X3354Y1166D01*
X0Y1165D02*
X8Y1165D01*
X3345Y1165D02*
X3354Y1165D01*
X0Y1164D02*
X8Y1164D01*
X3345Y1164D02*
X3354Y1164D01*
X0Y1163D02*
X8Y1163D01*
X3345Y1163D02*
X3354Y1163D01*
X0Y1162D02*
X8Y1162D01*
X3345Y1162D02*
X3354Y1162D01*
X0Y1161D02*
X8Y1161D01*
X3345Y1161D02*
X3354Y1161D01*
X0Y1160D02*
X8Y1160D01*
X3345Y1160D02*
X3354Y1160D01*
X0Y1159D02*
X8Y1159D01*
X3345Y1159D02*
X3354Y1159D01*
X0Y1158D02*
X8Y1158D01*
X3345Y1158D02*
X3354Y1158D01*
X0Y1157D02*
X8Y1157D01*
X3345Y1157D02*
X3354Y1157D01*
X0Y1156D02*
X8Y1156D01*
X3345Y1156D02*
X3354Y1156D01*
X0Y1155D02*
X8Y1155D01*
X3345Y1155D02*
X3354Y1155D01*
X0Y1154D02*
X8Y1154D01*
X3345Y1154D02*
X3354Y1154D01*
X0Y1153D02*
X8Y1153D01*
X3345Y1153D02*
X3354Y1153D01*
X0Y1152D02*
X8Y1152D01*
X3345Y1152D02*
X3354Y1152D01*
X0Y1151D02*
X8Y1151D01*
X3345Y1151D02*
X3354Y1151D01*
X0Y1150D02*
X8Y1150D01*
X3345Y1150D02*
X3354Y1150D01*
X0Y1149D02*
X8Y1149D01*
X3345Y1149D02*
X3354Y1149D01*
X0Y1148D02*
X8Y1148D01*
X3345Y1148D02*
X3354Y1148D01*
X0Y1147D02*
X8Y1147D01*
X3345Y1147D02*
X3354Y1147D01*
X0Y1146D02*
X8Y1146D01*
X3345Y1146D02*
X3354Y1146D01*
X0Y1145D02*
X8Y1145D01*
X3345Y1145D02*
X3354Y1145D01*
X0Y1144D02*
X8Y1144D01*
X3345Y1144D02*
X3354Y1144D01*
X0Y1143D02*
X8Y1143D01*
X3345Y1143D02*
X3354Y1143D01*
X0Y1142D02*
X8Y1142D01*
X3345Y1142D02*
X3354Y1142D01*
X0Y1141D02*
X8Y1141D01*
X3345Y1141D02*
X3354Y1141D01*
X0Y1140D02*
X8Y1140D01*
X3345Y1140D02*
X3354Y1140D01*
X0Y1139D02*
X8Y1139D01*
X3345Y1139D02*
X3354Y1139D01*
X0Y1138D02*
X8Y1138D01*
X3345Y1138D02*
X3354Y1138D01*
X0Y1137D02*
X8Y1137D01*
X3345Y1137D02*
X3354Y1137D01*
X0Y1136D02*
X8Y1136D01*
X3345Y1136D02*
X3354Y1136D01*
X0Y1135D02*
X8Y1135D01*
X3345Y1135D02*
X3354Y1135D01*
X0Y1134D02*
X8Y1134D01*
X3345Y1134D02*
X3354Y1134D01*
X0Y1133D02*
X8Y1133D01*
X3345Y1133D02*
X3354Y1133D01*
X0Y1132D02*
X8Y1132D01*
X3345Y1132D02*
X3354Y1132D01*
X0Y1131D02*
X8Y1131D01*
X3345Y1131D02*
X3354Y1131D01*
X0Y1130D02*
X8Y1130D01*
X3345Y1130D02*
X3354Y1130D01*
X0Y1129D02*
X8Y1129D01*
X3345Y1129D02*
X3354Y1129D01*
X0Y1128D02*
X8Y1128D01*
X3345Y1128D02*
X3354Y1128D01*
X0Y1127D02*
X8Y1127D01*
X3345Y1127D02*
X3354Y1127D01*
X0Y1126D02*
X8Y1126D01*
X3345Y1126D02*
X3354Y1126D01*
X0Y1125D02*
X8Y1125D01*
X3345Y1125D02*
X3354Y1125D01*
X0Y1124D02*
X8Y1124D01*
X3345Y1124D02*
X3354Y1124D01*
X0Y1123D02*
X8Y1123D01*
X3345Y1123D02*
X3354Y1123D01*
X0Y1122D02*
X8Y1122D01*
X3345Y1122D02*
X3354Y1122D01*
X0Y1121D02*
X8Y1121D01*
X3345Y1121D02*
X3354Y1121D01*
X0Y1120D02*
X8Y1120D01*
X3345Y1120D02*
X3354Y1120D01*
X0Y1119D02*
X8Y1119D01*
X3345Y1119D02*
X3354Y1119D01*
X0Y1118D02*
X8Y1118D01*
X3345Y1118D02*
X3354Y1118D01*
X0Y1117D02*
X8Y1117D01*
X3345Y1117D02*
X3354Y1117D01*
X0Y1116D02*
X8Y1116D01*
X3345Y1116D02*
X3354Y1116D01*
X0Y1115D02*
X8Y1115D01*
X3345Y1115D02*
X3354Y1115D01*
X0Y1114D02*
X8Y1114D01*
X3345Y1114D02*
X3354Y1114D01*
X0Y1113D02*
X8Y1113D01*
X3345Y1113D02*
X3354Y1113D01*
X0Y1112D02*
X8Y1112D01*
X3345Y1112D02*
X3354Y1112D01*
X0Y1111D02*
X8Y1111D01*
X3345Y1111D02*
X3354Y1111D01*
X0Y1110D02*
X8Y1110D01*
X3345Y1110D02*
X3354Y1110D01*
X0Y1109D02*
X8Y1109D01*
X3345Y1109D02*
X3354Y1109D01*
X0Y1108D02*
X8Y1108D01*
X3345Y1108D02*
X3354Y1108D01*
X0Y1107D02*
X8Y1107D01*
X3345Y1107D02*
X3354Y1107D01*
X0Y1106D02*
X8Y1106D01*
X3345Y1106D02*
X3354Y1106D01*
X0Y1105D02*
X8Y1105D01*
X3345Y1105D02*
X3354Y1105D01*
X0Y1104D02*
X8Y1104D01*
X3345Y1104D02*
X3354Y1104D01*
X0Y1103D02*
X8Y1103D01*
X3345Y1103D02*
X3354Y1103D01*
X0Y1102D02*
X8Y1102D01*
X3345Y1102D02*
X3354Y1102D01*
X0Y1101D02*
X8Y1101D01*
X3345Y1101D02*
X3354Y1101D01*
X0Y1100D02*
X8Y1100D01*
X3345Y1100D02*
X3354Y1100D01*
X0Y1099D02*
X8Y1099D01*
X3345Y1099D02*
X3354Y1099D01*
X0Y1098D02*
X8Y1098D01*
X3345Y1098D02*
X3354Y1098D01*
X0Y1097D02*
X8Y1097D01*
X3345Y1097D02*
X3354Y1097D01*
X0Y1096D02*
X8Y1096D01*
X3345Y1096D02*
X3354Y1096D01*
X0Y1095D02*
X8Y1095D01*
X3345Y1095D02*
X3354Y1095D01*
X0Y1094D02*
X8Y1094D01*
X3345Y1094D02*
X3354Y1094D01*
X0Y1093D02*
X8Y1093D01*
X3345Y1093D02*
X3354Y1093D01*
X0Y1092D02*
X8Y1092D01*
X3345Y1092D02*
X3354Y1092D01*
X0Y1091D02*
X8Y1091D01*
X3345Y1091D02*
X3354Y1091D01*
X0Y1090D02*
X8Y1090D01*
X3345Y1090D02*
X3354Y1090D01*
X0Y1089D02*
X8Y1089D01*
X3345Y1089D02*
X3354Y1089D01*
X0Y1088D02*
X8Y1088D01*
X3345Y1088D02*
X3354Y1088D01*
X0Y1087D02*
X8Y1087D01*
X3345Y1087D02*
X3354Y1087D01*
X0Y1086D02*
X8Y1086D01*
X3345Y1086D02*
X3354Y1086D01*
X0Y1085D02*
X8Y1085D01*
X3345Y1085D02*
X3354Y1085D01*
X0Y1084D02*
X8Y1084D01*
X3345Y1084D02*
X3354Y1084D01*
X0Y1083D02*
X8Y1083D01*
X3345Y1083D02*
X3354Y1083D01*
X0Y1082D02*
X8Y1082D01*
X3345Y1082D02*
X3354Y1082D01*
X0Y1081D02*
X8Y1081D01*
X3345Y1081D02*
X3354Y1081D01*
X0Y1080D02*
X8Y1080D01*
X3345Y1080D02*
X3354Y1080D01*
X0Y1079D02*
X8Y1079D01*
X3345Y1079D02*
X3354Y1079D01*
X0Y1078D02*
X8Y1078D01*
X3345Y1078D02*
X3354Y1078D01*
X0Y1077D02*
X8Y1077D01*
X3345Y1077D02*
X3354Y1077D01*
X0Y1076D02*
X8Y1076D01*
X3345Y1076D02*
X3354Y1076D01*
X0Y1075D02*
X8Y1075D01*
X3345Y1075D02*
X3354Y1075D01*
X0Y1074D02*
X8Y1074D01*
X3345Y1074D02*
X3354Y1074D01*
X0Y1073D02*
X8Y1073D01*
X3345Y1073D02*
X3354Y1073D01*
X0Y1072D02*
X8Y1072D01*
X3345Y1072D02*
X3354Y1072D01*
X0Y1071D02*
X8Y1071D01*
X3345Y1071D02*
X3354Y1071D01*
X0Y1070D02*
X8Y1070D01*
X3345Y1070D02*
X3354Y1070D01*
X0Y1069D02*
X8Y1069D01*
X3345Y1069D02*
X3354Y1069D01*
X0Y1068D02*
X8Y1068D01*
X3345Y1068D02*
X3354Y1068D01*
X0Y1067D02*
X8Y1067D01*
X3345Y1067D02*
X3354Y1067D01*
X0Y1066D02*
X8Y1066D01*
X3345Y1066D02*
X3354Y1066D01*
X0Y1065D02*
X8Y1065D01*
X3345Y1065D02*
X3354Y1065D01*
X0Y1064D02*
X8Y1064D01*
X3345Y1064D02*
X3354Y1064D01*
X0Y1063D02*
X8Y1063D01*
X3345Y1063D02*
X3354Y1063D01*
X0Y1062D02*
X8Y1062D01*
X3345Y1062D02*
X3354Y1062D01*
X0Y1061D02*
X8Y1061D01*
X3345Y1061D02*
X3354Y1061D01*
X0Y1060D02*
X8Y1060D01*
X3345Y1060D02*
X3354Y1060D01*
X0Y1059D02*
X8Y1059D01*
X3345Y1059D02*
X3354Y1059D01*
X0Y1058D02*
X8Y1058D01*
X3345Y1058D02*
X3354Y1058D01*
X0Y1057D02*
X8Y1057D01*
X3345Y1057D02*
X3354Y1057D01*
X0Y1056D02*
X8Y1056D01*
X3345Y1056D02*
X3354Y1056D01*
X0Y1055D02*
X8Y1055D01*
X3345Y1055D02*
X3354Y1055D01*
X0Y1054D02*
X8Y1054D01*
X3345Y1054D02*
X3354Y1054D01*
X0Y1053D02*
X8Y1053D01*
X3345Y1053D02*
X3354Y1053D01*
X0Y1052D02*
X8Y1052D01*
X3345Y1052D02*
X3354Y1052D01*
X0Y1051D02*
X8Y1051D01*
X3345Y1051D02*
X3354Y1051D01*
X0Y1050D02*
X8Y1050D01*
X3345Y1050D02*
X3354Y1050D01*
X0Y1049D02*
X8Y1049D01*
X3345Y1049D02*
X3354Y1049D01*
X0Y1048D02*
X8Y1048D01*
X3345Y1048D02*
X3354Y1048D01*
X0Y1047D02*
X8Y1047D01*
X3345Y1047D02*
X3354Y1047D01*
X0Y1046D02*
X8Y1046D01*
X3345Y1046D02*
X3354Y1046D01*
X0Y1045D02*
X8Y1045D01*
X3345Y1045D02*
X3354Y1045D01*
X0Y1044D02*
X8Y1044D01*
X3345Y1044D02*
X3354Y1044D01*
X0Y1043D02*
X8Y1043D01*
X3345Y1043D02*
X3354Y1043D01*
X0Y1042D02*
X8Y1042D01*
X3345Y1042D02*
X3354Y1042D01*
X0Y1041D02*
X8Y1041D01*
X3345Y1041D02*
X3354Y1041D01*
X0Y1040D02*
X8Y1040D01*
X3345Y1040D02*
X3354Y1040D01*
X0Y1039D02*
X8Y1039D01*
X3345Y1039D02*
X3354Y1039D01*
X0Y1038D02*
X8Y1038D01*
X3345Y1038D02*
X3354Y1038D01*
X0Y1037D02*
X8Y1037D01*
X3345Y1037D02*
X3354Y1037D01*
X0Y1036D02*
X8Y1036D01*
X3345Y1036D02*
X3354Y1036D01*
X0Y1035D02*
X8Y1035D01*
X3345Y1035D02*
X3354Y1035D01*
X0Y1034D02*
X8Y1034D01*
X3345Y1034D02*
X3354Y1034D01*
X0Y1033D02*
X8Y1033D01*
X3345Y1033D02*
X3354Y1033D01*
X0Y1032D02*
X8Y1032D01*
X3345Y1032D02*
X3354Y1032D01*
X0Y1031D02*
X8Y1031D01*
X3345Y1031D02*
X3354Y1031D01*
X0Y1030D02*
X8Y1030D01*
X3345Y1030D02*
X3354Y1030D01*
X0Y1029D02*
X8Y1029D01*
X3345Y1029D02*
X3354Y1029D01*
X0Y1028D02*
X8Y1028D01*
X3345Y1028D02*
X3354Y1028D01*
X0Y1027D02*
X8Y1027D01*
X3345Y1027D02*
X3354Y1027D01*
X0Y1026D02*
X8Y1026D01*
X3345Y1026D02*
X3354Y1026D01*
X0Y1025D02*
X8Y1025D01*
X3345Y1025D02*
X3354Y1025D01*
X0Y1024D02*
X8Y1024D01*
X3345Y1024D02*
X3354Y1024D01*
X0Y1023D02*
X8Y1023D01*
X3345Y1023D02*
X3354Y1023D01*
X0Y1022D02*
X8Y1022D01*
X3345Y1022D02*
X3354Y1022D01*
X0Y1021D02*
X8Y1021D01*
X3345Y1021D02*
X3354Y1021D01*
X0Y1020D02*
X8Y1020D01*
X3345Y1020D02*
X3354Y1020D01*
X0Y1019D02*
X8Y1019D01*
X3345Y1019D02*
X3354Y1019D01*
X0Y1018D02*
X8Y1018D01*
X3345Y1018D02*
X3354Y1018D01*
X0Y1017D02*
X8Y1017D01*
X3345Y1017D02*
X3354Y1017D01*
X0Y1016D02*
X8Y1016D01*
X3345Y1016D02*
X3354Y1016D01*
X0Y1015D02*
X8Y1015D01*
X3345Y1015D02*
X3354Y1015D01*
X0Y1014D02*
X8Y1014D01*
X3345Y1014D02*
X3354Y1014D01*
X0Y1013D02*
X8Y1013D01*
X3345Y1013D02*
X3354Y1013D01*
X0Y1012D02*
X8Y1012D01*
X3345Y1012D02*
X3354Y1012D01*
X0Y1011D02*
X8Y1011D01*
X3345Y1011D02*
X3354Y1011D01*
X0Y1010D02*
X8Y1010D01*
X3345Y1010D02*
X3354Y1010D01*
X0Y1009D02*
X8Y1009D01*
X3345Y1009D02*
X3354Y1009D01*
X0Y1008D02*
X8Y1008D01*
X3345Y1008D02*
X3354Y1008D01*
X0Y1007D02*
X8Y1007D01*
X3345Y1007D02*
X3354Y1007D01*
X0Y1006D02*
X8Y1006D01*
X3345Y1006D02*
X3354Y1006D01*
X0Y1005D02*
X8Y1005D01*
X3345Y1005D02*
X3354Y1005D01*
X0Y1004D02*
X8Y1004D01*
X3345Y1004D02*
X3354Y1004D01*
X0Y1003D02*
X8Y1003D01*
X3345Y1003D02*
X3354Y1003D01*
X0Y1002D02*
X8Y1002D01*
X3345Y1002D02*
X3354Y1002D01*
X0Y1001D02*
X8Y1001D01*
X3345Y1001D02*
X3354Y1001D01*
X0Y1000D02*
X8Y1000D01*
X3345Y1000D02*
X3354Y1000D01*
X0Y999D02*
X8Y999D01*
X3345Y999D02*
X3354Y999D01*
X0Y998D02*
X8Y998D01*
X3345Y998D02*
X3354Y998D01*
X0Y997D02*
X8Y997D01*
X3345Y997D02*
X3354Y997D01*
X0Y996D02*
X8Y996D01*
X3345Y996D02*
X3354Y996D01*
X0Y995D02*
X8Y995D01*
X3345Y995D02*
X3354Y995D01*
X0Y994D02*
X8Y994D01*
X3345Y994D02*
X3354Y994D01*
X0Y993D02*
X8Y993D01*
X3345Y993D02*
X3354Y993D01*
X0Y992D02*
X8Y992D01*
X3345Y992D02*
X3354Y992D01*
X0Y991D02*
X8Y991D01*
X3345Y991D02*
X3354Y991D01*
X0Y990D02*
X8Y990D01*
X3345Y990D02*
X3354Y990D01*
X0Y989D02*
X8Y989D01*
X3345Y989D02*
X3354Y989D01*
X0Y988D02*
X8Y988D01*
X3345Y988D02*
X3354Y988D01*
X0Y987D02*
X8Y987D01*
X3345Y987D02*
X3354Y987D01*
X0Y986D02*
X8Y986D01*
X3345Y986D02*
X3354Y986D01*
X0Y985D02*
X8Y985D01*
X3345Y985D02*
X3354Y985D01*
X0Y984D02*
X8Y984D01*
X3345Y984D02*
X3354Y984D01*
X0Y983D02*
X8Y983D01*
X3345Y983D02*
X3354Y983D01*
X0Y982D02*
X8Y982D01*
X3345Y982D02*
X3354Y982D01*
X0Y981D02*
X8Y981D01*
X3345Y981D02*
X3354Y981D01*
X0Y980D02*
X8Y980D01*
X3345Y980D02*
X3354Y980D01*
X0Y979D02*
X8Y979D01*
X3345Y979D02*
X3354Y979D01*
X0Y978D02*
X8Y978D01*
X3345Y978D02*
X3354Y978D01*
X0Y977D02*
X8Y977D01*
X3345Y977D02*
X3354Y977D01*
X0Y976D02*
X8Y976D01*
X3345Y976D02*
X3354Y976D01*
X0Y975D02*
X8Y975D01*
X3345Y975D02*
X3354Y975D01*
X0Y974D02*
X8Y974D01*
X3345Y974D02*
X3354Y974D01*
X0Y973D02*
X8Y973D01*
X3345Y973D02*
X3354Y973D01*
X0Y972D02*
X8Y972D01*
X3345Y972D02*
X3354Y972D01*
X0Y971D02*
X8Y971D01*
X3345Y971D02*
X3354Y971D01*
X0Y970D02*
X8Y970D01*
X3345Y970D02*
X3354Y970D01*
X0Y969D02*
X8Y969D01*
X3345Y969D02*
X3354Y969D01*
X0Y968D02*
X8Y968D01*
X3345Y968D02*
X3354Y968D01*
X0Y967D02*
X8Y967D01*
X3345Y967D02*
X3354Y967D01*
X0Y966D02*
X8Y966D01*
X3345Y966D02*
X3354Y966D01*
X0Y965D02*
X8Y965D01*
X3345Y965D02*
X3354Y965D01*
X0Y964D02*
X8Y964D01*
X3345Y964D02*
X3354Y964D01*
X0Y963D02*
X8Y963D01*
X3345Y963D02*
X3354Y963D01*
X0Y962D02*
X8Y962D01*
X3345Y962D02*
X3354Y962D01*
X0Y961D02*
X8Y961D01*
X3345Y961D02*
X3354Y961D01*
X0Y960D02*
X8Y960D01*
X3345Y960D02*
X3354Y960D01*
X0Y959D02*
X8Y959D01*
X3345Y959D02*
X3354Y959D01*
X0Y958D02*
X8Y958D01*
X3345Y958D02*
X3354Y958D01*
X0Y957D02*
X8Y957D01*
X3345Y957D02*
X3354Y957D01*
X0Y956D02*
X8Y956D01*
X3345Y956D02*
X3354Y956D01*
X0Y955D02*
X8Y955D01*
X3345Y955D02*
X3354Y955D01*
X0Y954D02*
X8Y954D01*
X3345Y954D02*
X3354Y954D01*
X0Y953D02*
X8Y953D01*
X3345Y953D02*
X3354Y953D01*
X0Y952D02*
X8Y952D01*
X3345Y952D02*
X3354Y952D01*
X0Y951D02*
X8Y951D01*
X3345Y951D02*
X3354Y951D01*
X0Y950D02*
X8Y950D01*
X3345Y950D02*
X3354Y950D01*
X0Y949D02*
X8Y949D01*
X3345Y949D02*
X3354Y949D01*
X0Y948D02*
X8Y948D01*
X3345Y948D02*
X3354Y948D01*
X0Y947D02*
X8Y947D01*
X3345Y947D02*
X3354Y947D01*
X0Y946D02*
X8Y946D01*
X3345Y946D02*
X3354Y946D01*
X0Y945D02*
X8Y945D01*
X3345Y945D02*
X3354Y945D01*
X0Y944D02*
X8Y944D01*
X3345Y944D02*
X3354Y944D01*
X0Y943D02*
X8Y943D01*
X3345Y943D02*
X3354Y943D01*
X0Y942D02*
X8Y942D01*
X3345Y942D02*
X3354Y942D01*
X0Y941D02*
X8Y941D01*
X3345Y941D02*
X3354Y941D01*
X0Y940D02*
X8Y940D01*
X3345Y940D02*
X3354Y940D01*
X0Y939D02*
X8Y939D01*
X3345Y939D02*
X3354Y939D01*
X0Y938D02*
X8Y938D01*
X3345Y938D02*
X3354Y938D01*
X0Y937D02*
X8Y937D01*
X3345Y937D02*
X3354Y937D01*
X0Y936D02*
X8Y936D01*
X3345Y936D02*
X3354Y936D01*
X0Y935D02*
X8Y935D01*
X3345Y935D02*
X3354Y935D01*
X0Y934D02*
X8Y934D01*
X3345Y934D02*
X3354Y934D01*
X0Y933D02*
X8Y933D01*
X3345Y933D02*
X3354Y933D01*
X0Y932D02*
X8Y932D01*
X3345Y932D02*
X3354Y932D01*
X0Y931D02*
X8Y931D01*
X3345Y931D02*
X3354Y931D01*
X0Y930D02*
X8Y930D01*
X3345Y930D02*
X3354Y930D01*
X0Y929D02*
X8Y929D01*
X3345Y929D02*
X3354Y929D01*
X0Y928D02*
X8Y928D01*
X3345Y928D02*
X3354Y928D01*
X0Y927D02*
X8Y927D01*
X3345Y927D02*
X3354Y927D01*
X0Y926D02*
X8Y926D01*
X3345Y926D02*
X3354Y926D01*
X0Y925D02*
X8Y925D01*
X3345Y925D02*
X3354Y925D01*
X0Y924D02*
X8Y924D01*
X3345Y924D02*
X3354Y924D01*
X0Y923D02*
X8Y923D01*
X3345Y923D02*
X3354Y923D01*
X0Y922D02*
X8Y922D01*
X3345Y922D02*
X3354Y922D01*
X0Y921D02*
X8Y921D01*
X3345Y921D02*
X3354Y921D01*
X0Y920D02*
X8Y920D01*
X3345Y920D02*
X3354Y920D01*
X0Y919D02*
X8Y919D01*
X3345Y919D02*
X3354Y919D01*
X0Y918D02*
X8Y918D01*
X3345Y918D02*
X3354Y918D01*
X0Y917D02*
X8Y917D01*
X3345Y917D02*
X3354Y917D01*
X0Y916D02*
X8Y916D01*
X3345Y916D02*
X3354Y916D01*
X0Y915D02*
X8Y915D01*
X3345Y915D02*
X3354Y915D01*
X0Y914D02*
X8Y914D01*
X3345Y914D02*
X3354Y914D01*
X0Y913D02*
X8Y913D01*
X3345Y913D02*
X3354Y913D01*
X0Y912D02*
X8Y912D01*
X3345Y912D02*
X3354Y912D01*
X0Y911D02*
X8Y911D01*
X3345Y911D02*
X3354Y911D01*
X0Y910D02*
X8Y910D01*
X3345Y910D02*
X3354Y910D01*
X0Y909D02*
X8Y909D01*
X3345Y909D02*
X3354Y909D01*
X0Y908D02*
X8Y908D01*
X3345Y908D02*
X3354Y908D01*
X0Y907D02*
X8Y907D01*
X3345Y907D02*
X3354Y907D01*
X0Y906D02*
X8Y906D01*
X3345Y906D02*
X3354Y906D01*
X0Y905D02*
X8Y905D01*
X3345Y905D02*
X3354Y905D01*
X0Y904D02*
X8Y904D01*
X3345Y904D02*
X3354Y904D01*
X0Y903D02*
X8Y903D01*
X3345Y903D02*
X3354Y903D01*
X0Y902D02*
X8Y902D01*
X3345Y902D02*
X3354Y902D01*
X0Y901D02*
X8Y901D01*
X3345Y901D02*
X3354Y901D01*
X0Y900D02*
X8Y900D01*
X3345Y900D02*
X3354Y900D01*
X0Y899D02*
X8Y899D01*
X3345Y899D02*
X3354Y899D01*
X0Y898D02*
X8Y898D01*
X3345Y898D02*
X3354Y898D01*
X0Y897D02*
X8Y897D01*
X3345Y897D02*
X3354Y897D01*
X0Y896D02*
X8Y896D01*
X3345Y896D02*
X3354Y896D01*
X0Y895D02*
X8Y895D01*
X3345Y895D02*
X3354Y895D01*
X0Y894D02*
X8Y894D01*
X3345Y894D02*
X3354Y894D01*
X0Y893D02*
X8Y893D01*
X3345Y893D02*
X3354Y893D01*
X0Y892D02*
X8Y892D01*
X3345Y892D02*
X3354Y892D01*
X0Y891D02*
X8Y891D01*
X3345Y891D02*
X3354Y891D01*
X0Y890D02*
X8Y890D01*
X3345Y890D02*
X3354Y890D01*
X0Y889D02*
X8Y889D01*
X3345Y889D02*
X3354Y889D01*
X0Y888D02*
X8Y888D01*
X3345Y888D02*
X3354Y888D01*
X0Y887D02*
X8Y887D01*
X3345Y887D02*
X3354Y887D01*
X0Y886D02*
X8Y886D01*
X3345Y886D02*
X3354Y886D01*
X0Y885D02*
X8Y885D01*
X3345Y885D02*
X3354Y885D01*
X0Y884D02*
X8Y884D01*
X3345Y884D02*
X3354Y884D01*
X0Y883D02*
X8Y883D01*
X3345Y883D02*
X3354Y883D01*
X0Y882D02*
X8Y882D01*
X3345Y882D02*
X3354Y882D01*
X0Y881D02*
X8Y881D01*
X3345Y881D02*
X3354Y881D01*
X0Y880D02*
X8Y880D01*
X3345Y880D02*
X3354Y880D01*
X0Y879D02*
X8Y879D01*
X3345Y879D02*
X3354Y879D01*
X0Y878D02*
X8Y878D01*
X3345Y878D02*
X3354Y878D01*
X0Y877D02*
X8Y877D01*
X3345Y877D02*
X3354Y877D01*
X0Y876D02*
X8Y876D01*
X3345Y876D02*
X3354Y876D01*
X0Y875D02*
X8Y875D01*
X3345Y875D02*
X3354Y875D01*
X0Y874D02*
X8Y874D01*
X3345Y874D02*
X3354Y874D01*
X0Y873D02*
X8Y873D01*
X3345Y873D02*
X3354Y873D01*
X0Y872D02*
X8Y872D01*
X3345Y872D02*
X3354Y872D01*
X0Y871D02*
X8Y871D01*
X3345Y871D02*
X3354Y871D01*
X0Y870D02*
X8Y870D01*
X3345Y870D02*
X3354Y870D01*
X0Y869D02*
X8Y869D01*
X3345Y869D02*
X3354Y869D01*
X0Y868D02*
X8Y868D01*
X3345Y868D02*
X3354Y868D01*
X0Y867D02*
X8Y867D01*
X3345Y867D02*
X3354Y867D01*
X0Y866D02*
X8Y866D01*
X3345Y866D02*
X3354Y866D01*
X0Y865D02*
X8Y865D01*
X3345Y865D02*
X3354Y865D01*
X0Y864D02*
X8Y864D01*
X3345Y864D02*
X3354Y864D01*
X0Y863D02*
X8Y863D01*
X3345Y863D02*
X3354Y863D01*
X0Y862D02*
X8Y862D01*
X3345Y862D02*
X3354Y862D01*
X0Y861D02*
X8Y861D01*
X3345Y861D02*
X3354Y861D01*
X0Y860D02*
X8Y860D01*
X3345Y860D02*
X3354Y860D01*
X0Y859D02*
X8Y859D01*
X3345Y859D02*
X3354Y859D01*
X0Y858D02*
X8Y858D01*
X3345Y858D02*
X3354Y858D01*
X0Y857D02*
X8Y857D01*
X3345Y857D02*
X3354Y857D01*
X0Y856D02*
X8Y856D01*
X3345Y856D02*
X3354Y856D01*
X0Y855D02*
X8Y855D01*
X3345Y855D02*
X3354Y855D01*
X0Y854D02*
X8Y854D01*
X3345Y854D02*
X3354Y854D01*
X0Y853D02*
X8Y853D01*
X3345Y853D02*
X3354Y853D01*
X0Y852D02*
X8Y852D01*
X3345Y852D02*
X3354Y852D01*
X0Y851D02*
X8Y851D01*
X3345Y851D02*
X3354Y851D01*
X0Y850D02*
X8Y850D01*
X3345Y850D02*
X3354Y850D01*
X0Y849D02*
X8Y849D01*
X3345Y849D02*
X3354Y849D01*
X0Y848D02*
X8Y848D01*
X3345Y848D02*
X3354Y848D01*
X0Y847D02*
X8Y847D01*
X3345Y847D02*
X3354Y847D01*
X0Y846D02*
X8Y846D01*
X3345Y846D02*
X3354Y846D01*
X0Y845D02*
X8Y845D01*
X3345Y845D02*
X3354Y845D01*
X0Y844D02*
X8Y844D01*
X3345Y844D02*
X3354Y844D01*
X0Y843D02*
X8Y843D01*
X3345Y843D02*
X3354Y843D01*
X0Y842D02*
X8Y842D01*
X3345Y842D02*
X3354Y842D01*
X0Y841D02*
X8Y841D01*
X3345Y841D02*
X3354Y841D01*
X0Y840D02*
X8Y840D01*
X3345Y840D02*
X3354Y840D01*
X0Y839D02*
X8Y839D01*
X3345Y839D02*
X3354Y839D01*
X0Y838D02*
X8Y838D01*
X3345Y838D02*
X3354Y838D01*
X0Y837D02*
X8Y837D01*
X3345Y837D02*
X3354Y837D01*
X0Y836D02*
X8Y836D01*
X3345Y836D02*
X3354Y836D01*
X0Y835D02*
X8Y835D01*
X3345Y835D02*
X3354Y835D01*
X0Y834D02*
X8Y834D01*
X3345Y834D02*
X3354Y834D01*
X0Y833D02*
X8Y833D01*
X3345Y833D02*
X3354Y833D01*
X0Y832D02*
X8Y832D01*
X3345Y832D02*
X3354Y832D01*
X0Y831D02*
X8Y831D01*
X3345Y831D02*
X3354Y831D01*
X0Y830D02*
X8Y830D01*
X3345Y830D02*
X3354Y830D01*
X0Y829D02*
X8Y829D01*
X3345Y829D02*
X3354Y829D01*
X0Y828D02*
X8Y828D01*
X3345Y828D02*
X3354Y828D01*
X0Y827D02*
X8Y827D01*
X3345Y827D02*
X3354Y827D01*
X0Y826D02*
X8Y826D01*
X3345Y826D02*
X3354Y826D01*
X0Y825D02*
X8Y825D01*
X3345Y825D02*
X3354Y825D01*
X0Y824D02*
X8Y824D01*
X3345Y824D02*
X3354Y824D01*
X0Y823D02*
X8Y823D01*
X3345Y823D02*
X3354Y823D01*
X0Y822D02*
X8Y822D01*
X3345Y822D02*
X3354Y822D01*
X0Y821D02*
X8Y821D01*
X3345Y821D02*
X3354Y821D01*
X0Y820D02*
X8Y820D01*
X3345Y820D02*
X3354Y820D01*
X0Y819D02*
X8Y819D01*
X3345Y819D02*
X3354Y819D01*
X0Y818D02*
X8Y818D01*
X3345Y818D02*
X3354Y818D01*
X0Y817D02*
X8Y817D01*
X3345Y817D02*
X3354Y817D01*
X0Y816D02*
X8Y816D01*
X3345Y816D02*
X3354Y816D01*
X0Y815D02*
X8Y815D01*
X3345Y815D02*
X3354Y815D01*
X0Y814D02*
X8Y814D01*
X3345Y814D02*
X3354Y814D01*
X0Y813D02*
X8Y813D01*
X3345Y813D02*
X3354Y813D01*
X0Y812D02*
X8Y812D01*
X3345Y812D02*
X3354Y812D01*
X0Y811D02*
X8Y811D01*
X3345Y811D02*
X3354Y811D01*
X0Y810D02*
X8Y810D01*
X3345Y810D02*
X3354Y810D01*
X0Y809D02*
X8Y809D01*
X3345Y809D02*
X3354Y809D01*
X0Y808D02*
X8Y808D01*
X3345Y808D02*
X3354Y808D01*
X0Y807D02*
X8Y807D01*
X3345Y807D02*
X3354Y807D01*
X0Y806D02*
X8Y806D01*
X3345Y806D02*
X3354Y806D01*
X0Y805D02*
X8Y805D01*
X3345Y805D02*
X3354Y805D01*
X0Y804D02*
X8Y804D01*
X3345Y804D02*
X3354Y804D01*
X0Y803D02*
X8Y803D01*
X3345Y803D02*
X3354Y803D01*
X0Y802D02*
X8Y802D01*
X3345Y802D02*
X3354Y802D01*
X0Y801D02*
X8Y801D01*
X3345Y801D02*
X3354Y801D01*
X0Y800D02*
X8Y800D01*
X3345Y800D02*
X3354Y800D01*
X0Y799D02*
X8Y799D01*
X3345Y799D02*
X3354Y799D01*
X0Y798D02*
X8Y798D01*
X3345Y798D02*
X3354Y798D01*
X0Y797D02*
X8Y797D01*
X3345Y797D02*
X3354Y797D01*
X0Y796D02*
X8Y796D01*
X3345Y796D02*
X3354Y796D01*
X0Y795D02*
X8Y795D01*
X3345Y795D02*
X3354Y795D01*
X0Y794D02*
X8Y794D01*
X3345Y794D02*
X3354Y794D01*
X0Y793D02*
X8Y793D01*
X3345Y793D02*
X3354Y793D01*
X0Y792D02*
X8Y792D01*
X3345Y792D02*
X3354Y792D01*
X0Y791D02*
X8Y791D01*
X3345Y791D02*
X3354Y791D01*
X0Y790D02*
X8Y790D01*
X3345Y790D02*
X3354Y790D01*
X0Y789D02*
X8Y789D01*
X3345Y789D02*
X3354Y789D01*
X0Y788D02*
X8Y788D01*
X3345Y788D02*
X3354Y788D01*
X0Y787D02*
X8Y787D01*
X3345Y787D02*
X3354Y787D01*
X0Y786D02*
X8Y786D01*
X3345Y786D02*
X3354Y786D01*
X0Y785D02*
X8Y785D01*
X3345Y785D02*
X3354Y785D01*
X0Y784D02*
X8Y784D01*
X3345Y784D02*
X3354Y784D01*
X0Y783D02*
X8Y783D01*
X3345Y783D02*
X3354Y783D01*
X0Y782D02*
X8Y782D01*
X3345Y782D02*
X3354Y782D01*
X0Y781D02*
X8Y781D01*
X3345Y781D02*
X3354Y781D01*
X0Y780D02*
X8Y780D01*
X3345Y780D02*
X3354Y780D01*
X0Y779D02*
X8Y779D01*
X3345Y779D02*
X3354Y779D01*
X0Y778D02*
X8Y778D01*
X3345Y778D02*
X3354Y778D01*
X0Y777D02*
X8Y777D01*
X3345Y777D02*
X3354Y777D01*
X0Y776D02*
X8Y776D01*
X3345Y776D02*
X3354Y776D01*
X0Y775D02*
X8Y775D01*
X3345Y775D02*
X3354Y775D01*
X0Y774D02*
X8Y774D01*
X3345Y774D02*
X3354Y774D01*
X0Y773D02*
X8Y773D01*
X3345Y773D02*
X3354Y773D01*
X0Y772D02*
X8Y772D01*
X3345Y772D02*
X3354Y772D01*
X0Y771D02*
X8Y771D01*
X3345Y771D02*
X3354Y771D01*
X0Y770D02*
X8Y770D01*
X3345Y770D02*
X3354Y770D01*
X0Y769D02*
X8Y769D01*
X3345Y769D02*
X3354Y769D01*
X0Y768D02*
X8Y768D01*
X3345Y768D02*
X3354Y768D01*
X0Y767D02*
X8Y767D01*
X3345Y767D02*
X3354Y767D01*
X0Y766D02*
X8Y766D01*
X3345Y766D02*
X3354Y766D01*
X0Y765D02*
X8Y765D01*
X3345Y765D02*
X3354Y765D01*
X0Y764D02*
X8Y764D01*
X3345Y764D02*
X3354Y764D01*
X0Y763D02*
X8Y763D01*
X3345Y763D02*
X3354Y763D01*
X0Y762D02*
X8Y762D01*
X3345Y762D02*
X3354Y762D01*
X0Y761D02*
X8Y761D01*
X3345Y761D02*
X3354Y761D01*
X0Y760D02*
X8Y760D01*
X3345Y760D02*
X3354Y760D01*
X0Y759D02*
X8Y759D01*
X3345Y759D02*
X3354Y759D01*
X0Y758D02*
X8Y758D01*
X3345Y758D02*
X3354Y758D01*
X0Y757D02*
X8Y757D01*
X3345Y757D02*
X3354Y757D01*
X0Y756D02*
X8Y756D01*
X3345Y756D02*
X3354Y756D01*
X0Y755D02*
X8Y755D01*
X3345Y755D02*
X3354Y755D01*
X0Y754D02*
X8Y754D01*
X3345Y754D02*
X3354Y754D01*
X0Y753D02*
X8Y753D01*
X3345Y753D02*
X3354Y753D01*
X0Y752D02*
X8Y752D01*
X3345Y752D02*
X3354Y752D01*
X0Y751D02*
X8Y751D01*
X3345Y751D02*
X3354Y751D01*
X0Y750D02*
X8Y750D01*
X3345Y750D02*
X3354Y750D01*
X0Y749D02*
X8Y749D01*
X3345Y749D02*
X3354Y749D01*
X0Y748D02*
X8Y748D01*
X3345Y748D02*
X3354Y748D01*
X0Y747D02*
X8Y747D01*
X3345Y747D02*
X3354Y747D01*
X0Y746D02*
X8Y746D01*
X3345Y746D02*
X3354Y746D01*
X0Y745D02*
X8Y745D01*
X3345Y745D02*
X3354Y745D01*
X0Y744D02*
X8Y744D01*
X3345Y744D02*
X3354Y744D01*
X0Y743D02*
X8Y743D01*
X3345Y743D02*
X3354Y743D01*
X0Y742D02*
X8Y742D01*
X3345Y742D02*
X3354Y742D01*
X0Y741D02*
X8Y741D01*
X3345Y741D02*
X3354Y741D01*
X0Y740D02*
X8Y740D01*
X3345Y740D02*
X3354Y740D01*
X0Y739D02*
X8Y739D01*
X3345Y739D02*
X3354Y739D01*
X0Y738D02*
X8Y738D01*
X3345Y738D02*
X3354Y738D01*
X0Y737D02*
X8Y737D01*
X3345Y737D02*
X3354Y737D01*
X0Y736D02*
X8Y736D01*
X3345Y736D02*
X3354Y736D01*
X0Y735D02*
X8Y735D01*
X3345Y735D02*
X3354Y735D01*
X0Y734D02*
X8Y734D01*
X3345Y734D02*
X3354Y734D01*
X0Y733D02*
X8Y733D01*
X3345Y733D02*
X3354Y733D01*
X0Y732D02*
X8Y732D01*
X3345Y732D02*
X3354Y732D01*
X0Y731D02*
X8Y731D01*
X3345Y731D02*
X3354Y731D01*
X0Y730D02*
X8Y730D01*
X3345Y730D02*
X3354Y730D01*
X0Y729D02*
X8Y729D01*
X3345Y729D02*
X3354Y729D01*
X0Y728D02*
X8Y728D01*
X3345Y728D02*
X3354Y728D01*
X0Y727D02*
X8Y727D01*
X3345Y727D02*
X3354Y727D01*
X0Y726D02*
X8Y726D01*
X3345Y726D02*
X3354Y726D01*
X0Y725D02*
X8Y725D01*
X3345Y725D02*
X3354Y725D01*
X0Y724D02*
X8Y724D01*
X3345Y724D02*
X3354Y724D01*
X0Y723D02*
X8Y723D01*
X3345Y723D02*
X3354Y723D01*
X0Y722D02*
X8Y722D01*
X3345Y722D02*
X3354Y722D01*
X0Y721D02*
X8Y721D01*
X3345Y721D02*
X3354Y721D01*
X0Y720D02*
X8Y720D01*
X3345Y720D02*
X3354Y720D01*
X0Y719D02*
X8Y719D01*
X3345Y719D02*
X3354Y719D01*
X0Y718D02*
X8Y718D01*
X3345Y718D02*
X3354Y718D01*
X0Y717D02*
X8Y717D01*
X3345Y717D02*
X3354Y717D01*
X0Y716D02*
X8Y716D01*
X3345Y716D02*
X3354Y716D01*
X0Y715D02*
X8Y715D01*
X3345Y715D02*
X3354Y715D01*
X0Y714D02*
X8Y714D01*
X3345Y714D02*
X3354Y714D01*
X0Y713D02*
X8Y713D01*
X3345Y713D02*
X3354Y713D01*
X0Y712D02*
X8Y712D01*
X3345Y712D02*
X3354Y712D01*
X0Y711D02*
X8Y711D01*
X3345Y711D02*
X3354Y711D01*
X0Y710D02*
X8Y710D01*
X3345Y710D02*
X3354Y710D01*
X0Y709D02*
X8Y709D01*
X3345Y709D02*
X3354Y709D01*
X0Y708D02*
X8Y708D01*
X3345Y708D02*
X3354Y708D01*
X0Y707D02*
X8Y707D01*
X3345Y707D02*
X3354Y707D01*
X0Y706D02*
X8Y706D01*
X3345Y706D02*
X3354Y706D01*
X0Y705D02*
X8Y705D01*
X3345Y705D02*
X3354Y705D01*
X0Y704D02*
X8Y704D01*
X3345Y704D02*
X3354Y704D01*
X0Y703D02*
X8Y703D01*
X3345Y703D02*
X3354Y703D01*
X0Y702D02*
X8Y702D01*
X3345Y702D02*
X3354Y702D01*
X0Y701D02*
X8Y701D01*
X3345Y701D02*
X3354Y701D01*
X0Y700D02*
X8Y700D01*
X3345Y700D02*
X3354Y700D01*
X0Y699D02*
X8Y699D01*
X3345Y699D02*
X3354Y699D01*
X0Y698D02*
X8Y698D01*
X3345Y698D02*
X3354Y698D01*
X0Y697D02*
X8Y697D01*
X3345Y697D02*
X3354Y697D01*
X0Y696D02*
X8Y696D01*
X3345Y696D02*
X3354Y696D01*
X0Y695D02*
X8Y695D01*
X3345Y695D02*
X3354Y695D01*
X0Y694D02*
X8Y694D01*
X3345Y694D02*
X3354Y694D01*
X0Y693D02*
X8Y693D01*
X3345Y693D02*
X3354Y693D01*
X0Y692D02*
X8Y692D01*
X3345Y692D02*
X3354Y692D01*
X0Y691D02*
X8Y691D01*
X3345Y691D02*
X3354Y691D01*
X0Y690D02*
X8Y690D01*
X3345Y690D02*
X3354Y690D01*
X0Y689D02*
X8Y689D01*
X3345Y689D02*
X3354Y689D01*
X0Y688D02*
X8Y688D01*
X3345Y688D02*
X3354Y688D01*
X0Y687D02*
X8Y687D01*
X3345Y687D02*
X3354Y687D01*
X0Y686D02*
X8Y686D01*
X3345Y686D02*
X3354Y686D01*
X0Y685D02*
X8Y685D01*
X3345Y685D02*
X3354Y685D01*
X0Y684D02*
X8Y684D01*
X3345Y684D02*
X3354Y684D01*
X0Y683D02*
X8Y683D01*
X3345Y683D02*
X3354Y683D01*
X0Y682D02*
X8Y682D01*
X3345Y682D02*
X3354Y682D01*
X0Y681D02*
X8Y681D01*
X3345Y681D02*
X3354Y681D01*
X0Y680D02*
X8Y680D01*
X3345Y680D02*
X3354Y680D01*
X0Y679D02*
X8Y679D01*
X3345Y679D02*
X3354Y679D01*
X0Y678D02*
X8Y678D01*
X3345Y678D02*
X3354Y678D01*
X0Y677D02*
X8Y677D01*
X3345Y677D02*
X3354Y677D01*
X0Y676D02*
X8Y676D01*
X3345Y676D02*
X3354Y676D01*
X0Y675D02*
X8Y675D01*
X3345Y675D02*
X3354Y675D01*
X0Y674D02*
X8Y674D01*
X3345Y674D02*
X3354Y674D01*
X0Y673D02*
X8Y673D01*
X3345Y673D02*
X3354Y673D01*
X0Y672D02*
X8Y672D01*
X3345Y672D02*
X3354Y672D01*
X0Y671D02*
X8Y671D01*
X3345Y671D02*
X3354Y671D01*
X0Y670D02*
X8Y670D01*
X3345Y670D02*
X3354Y670D01*
X0Y669D02*
X8Y669D01*
X3345Y669D02*
X3354Y669D01*
X0Y668D02*
X8Y668D01*
X3345Y668D02*
X3354Y668D01*
X0Y667D02*
X8Y667D01*
X3345Y667D02*
X3354Y667D01*
X0Y666D02*
X8Y666D01*
X3345Y666D02*
X3354Y666D01*
X0Y665D02*
X8Y665D01*
X3345Y665D02*
X3354Y665D01*
X0Y664D02*
X8Y664D01*
X3345Y664D02*
X3354Y664D01*
X0Y663D02*
X8Y663D01*
X3345Y663D02*
X3354Y663D01*
X0Y662D02*
X8Y662D01*
X3345Y662D02*
X3354Y662D01*
X0Y661D02*
X8Y661D01*
X3345Y661D02*
X3354Y661D01*
X0Y660D02*
X8Y660D01*
X3345Y660D02*
X3354Y660D01*
X0Y659D02*
X8Y659D01*
X3345Y659D02*
X3354Y659D01*
X0Y658D02*
X8Y658D01*
X3345Y658D02*
X3354Y658D01*
X0Y657D02*
X8Y657D01*
X3345Y657D02*
X3354Y657D01*
X0Y656D02*
X8Y656D01*
X3345Y656D02*
X3354Y656D01*
X0Y655D02*
X8Y655D01*
X3345Y655D02*
X3354Y655D01*
X0Y654D02*
X8Y654D01*
X3345Y654D02*
X3354Y654D01*
X0Y653D02*
X8Y653D01*
X3345Y653D02*
X3354Y653D01*
X0Y652D02*
X8Y652D01*
X3345Y652D02*
X3354Y652D01*
X0Y651D02*
X8Y651D01*
X3345Y651D02*
X3354Y651D01*
X0Y650D02*
X8Y650D01*
X3345Y650D02*
X3354Y650D01*
X0Y649D02*
X8Y649D01*
X3345Y649D02*
X3354Y649D01*
X0Y648D02*
X8Y648D01*
X3345Y648D02*
X3354Y648D01*
X0Y647D02*
X8Y647D01*
X3345Y647D02*
X3354Y647D01*
X0Y646D02*
X8Y646D01*
X3345Y646D02*
X3354Y646D01*
X0Y645D02*
X8Y645D01*
X3345Y645D02*
X3354Y645D01*
X0Y644D02*
X8Y644D01*
X3345Y644D02*
X3354Y644D01*
X0Y643D02*
X8Y643D01*
X3345Y643D02*
X3354Y643D01*
X0Y642D02*
X8Y642D01*
X3345Y642D02*
X3354Y642D01*
X0Y641D02*
X8Y641D01*
X3345Y641D02*
X3354Y641D01*
X0Y640D02*
X8Y640D01*
X3345Y640D02*
X3354Y640D01*
X0Y639D02*
X8Y639D01*
X3345Y639D02*
X3354Y639D01*
X0Y638D02*
X8Y638D01*
X3345Y638D02*
X3354Y638D01*
X0Y637D02*
X8Y637D01*
X3345Y637D02*
X3354Y637D01*
X0Y636D02*
X8Y636D01*
X3345Y636D02*
X3354Y636D01*
X0Y635D02*
X8Y635D01*
X3345Y635D02*
X3354Y635D01*
X0Y634D02*
X8Y634D01*
X3345Y634D02*
X3354Y634D01*
X0Y633D02*
X8Y633D01*
X3345Y633D02*
X3354Y633D01*
X0Y632D02*
X8Y632D01*
X3345Y632D02*
X3354Y632D01*
X0Y631D02*
X8Y631D01*
X3345Y631D02*
X3354Y631D01*
X0Y630D02*
X8Y630D01*
X3345Y630D02*
X3354Y630D01*
X0Y629D02*
X8Y629D01*
X3345Y629D02*
X3354Y629D01*
X0Y628D02*
X8Y628D01*
X3345Y628D02*
X3354Y628D01*
X0Y627D02*
X8Y627D01*
X3345Y627D02*
X3354Y627D01*
X0Y626D02*
X8Y626D01*
X3345Y626D02*
X3354Y626D01*
X0Y625D02*
X8Y625D01*
X3345Y625D02*
X3354Y625D01*
X0Y624D02*
X8Y624D01*
X3345Y624D02*
X3354Y624D01*
X0Y623D02*
X8Y623D01*
X3345Y623D02*
X3354Y623D01*
X0Y622D02*
X8Y622D01*
X3345Y622D02*
X3354Y622D01*
X0Y621D02*
X8Y621D01*
X3345Y621D02*
X3354Y621D01*
X0Y620D02*
X8Y620D01*
X3345Y620D02*
X3354Y620D01*
X0Y619D02*
X8Y619D01*
X3345Y619D02*
X3354Y619D01*
X0Y618D02*
X8Y618D01*
X3345Y618D02*
X3354Y618D01*
X0Y617D02*
X8Y617D01*
X3345Y617D02*
X3354Y617D01*
X0Y616D02*
X8Y616D01*
X3345Y616D02*
X3354Y616D01*
X0Y615D02*
X8Y615D01*
X3345Y615D02*
X3354Y615D01*
X0Y614D02*
X8Y614D01*
X3345Y614D02*
X3354Y614D01*
X0Y613D02*
X8Y613D01*
X3345Y613D02*
X3354Y613D01*
X0Y612D02*
X8Y612D01*
X3345Y612D02*
X3354Y612D01*
X0Y611D02*
X8Y611D01*
X3345Y611D02*
X3354Y611D01*
X0Y610D02*
X8Y610D01*
X3345Y610D02*
X3354Y610D01*
X0Y609D02*
X8Y609D01*
X3345Y609D02*
X3354Y609D01*
X0Y608D02*
X8Y608D01*
X3345Y608D02*
X3354Y608D01*
X0Y607D02*
X8Y607D01*
X3345Y607D02*
X3354Y607D01*
X0Y606D02*
X8Y606D01*
X3345Y606D02*
X3354Y606D01*
X0Y605D02*
X8Y605D01*
X3345Y605D02*
X3354Y605D01*
X0Y604D02*
X8Y604D01*
X3345Y604D02*
X3354Y604D01*
X0Y603D02*
X8Y603D01*
X3345Y603D02*
X3354Y603D01*
X0Y602D02*
X8Y602D01*
X3345Y602D02*
X3354Y602D01*
X0Y601D02*
X8Y601D01*
X3345Y601D02*
X3354Y601D01*
X0Y600D02*
X8Y600D01*
X3345Y600D02*
X3354Y600D01*
X0Y599D02*
X8Y599D01*
X3345Y599D02*
X3354Y599D01*
X0Y598D02*
X8Y598D01*
X3345Y598D02*
X3354Y598D01*
X0Y597D02*
X8Y597D01*
X3345Y597D02*
X3354Y597D01*
X0Y596D02*
X8Y596D01*
X3345Y596D02*
X3354Y596D01*
X0Y595D02*
X8Y595D01*
X3345Y595D02*
X3354Y595D01*
X0Y594D02*
X8Y594D01*
X3345Y594D02*
X3354Y594D01*
X0Y593D02*
X8Y593D01*
X3345Y593D02*
X3354Y593D01*
X0Y592D02*
X8Y592D01*
X3345Y592D02*
X3354Y592D01*
X0Y591D02*
X8Y591D01*
X3345Y591D02*
X3354Y591D01*
X0Y590D02*
X8Y590D01*
X3345Y590D02*
X3354Y590D01*
X0Y589D02*
X8Y589D01*
X3345Y589D02*
X3354Y589D01*
X0Y588D02*
X8Y588D01*
X3345Y588D02*
X3354Y588D01*
X0Y587D02*
X8Y587D01*
X3345Y587D02*
X3354Y587D01*
X0Y586D02*
X8Y586D01*
X3345Y586D02*
X3354Y586D01*
X0Y585D02*
X8Y585D01*
X3345Y585D02*
X3354Y585D01*
X0Y584D02*
X8Y584D01*
X3345Y584D02*
X3354Y584D01*
X0Y583D02*
X8Y583D01*
X3345Y583D02*
X3354Y583D01*
X0Y582D02*
X8Y582D01*
X3345Y582D02*
X3354Y582D01*
X0Y581D02*
X8Y581D01*
X3345Y581D02*
X3354Y581D01*
X0Y580D02*
X8Y580D01*
X3345Y580D02*
X3354Y580D01*
X0Y579D02*
X8Y579D01*
X3345Y579D02*
X3354Y579D01*
X0Y578D02*
X8Y578D01*
X3345Y578D02*
X3354Y578D01*
X0Y577D02*
X8Y577D01*
X3345Y577D02*
X3354Y577D01*
X0Y576D02*
X8Y576D01*
X3345Y576D02*
X3354Y576D01*
X0Y575D02*
X8Y575D01*
X3345Y575D02*
X3354Y575D01*
X0Y574D02*
X8Y574D01*
X3345Y574D02*
X3354Y574D01*
X0Y573D02*
X8Y573D01*
X3345Y573D02*
X3354Y573D01*
X0Y572D02*
X8Y572D01*
X3345Y572D02*
X3354Y572D01*
X0Y571D02*
X8Y571D01*
X3345Y571D02*
X3354Y571D01*
X0Y570D02*
X8Y570D01*
X3345Y570D02*
X3354Y570D01*
X0Y569D02*
X8Y569D01*
X3345Y569D02*
X3354Y569D01*
X0Y568D02*
X8Y568D01*
X3345Y568D02*
X3354Y568D01*
X0Y567D02*
X8Y567D01*
X3345Y567D02*
X3354Y567D01*
X0Y566D02*
X8Y566D01*
X3345Y566D02*
X3354Y566D01*
X0Y565D02*
X8Y565D01*
X3345Y565D02*
X3354Y565D01*
X0Y564D02*
X8Y564D01*
X3345Y564D02*
X3354Y564D01*
X0Y563D02*
X8Y563D01*
X3345Y563D02*
X3354Y563D01*
X0Y562D02*
X8Y562D01*
X3345Y562D02*
X3354Y562D01*
X0Y561D02*
X8Y561D01*
X3345Y561D02*
X3354Y561D01*
X0Y560D02*
X8Y560D01*
X3345Y560D02*
X3354Y560D01*
X0Y559D02*
X8Y559D01*
X3345Y559D02*
X3354Y559D01*
X0Y558D02*
X8Y558D01*
X3345Y558D02*
X3354Y558D01*
X0Y557D02*
X8Y557D01*
X3345Y557D02*
X3354Y557D01*
X0Y556D02*
X8Y556D01*
X3345Y556D02*
X3354Y556D01*
X0Y555D02*
X8Y555D01*
X3345Y555D02*
X3354Y555D01*
X0Y554D02*
X8Y554D01*
X3345Y554D02*
X3354Y554D01*
X0Y553D02*
X8Y553D01*
X3345Y553D02*
X3354Y553D01*
X0Y552D02*
X8Y552D01*
X3345Y552D02*
X3354Y552D01*
X0Y551D02*
X8Y551D01*
X3345Y551D02*
X3354Y551D01*
X0Y550D02*
X8Y550D01*
X3345Y550D02*
X3354Y550D01*
X0Y549D02*
X8Y549D01*
X3345Y549D02*
X3354Y549D01*
X0Y548D02*
X8Y548D01*
X3345Y548D02*
X3354Y548D01*
X0Y547D02*
X8Y547D01*
X3345Y547D02*
X3354Y547D01*
X0Y546D02*
X8Y546D01*
X3345Y546D02*
X3354Y546D01*
X0Y545D02*
X8Y545D01*
X3345Y545D02*
X3354Y545D01*
X0Y544D02*
X8Y544D01*
X3345Y544D02*
X3354Y544D01*
X0Y543D02*
X8Y543D01*
X3345Y543D02*
X3354Y543D01*
X0Y542D02*
X8Y542D01*
X3345Y542D02*
X3354Y542D01*
X0Y541D02*
X8Y541D01*
X3345Y541D02*
X3354Y541D01*
X0Y540D02*
X8Y540D01*
X3345Y540D02*
X3354Y540D01*
X0Y539D02*
X8Y539D01*
X3345Y539D02*
X3354Y539D01*
X0Y538D02*
X8Y538D01*
X3345Y538D02*
X3354Y538D01*
X0Y537D02*
X8Y537D01*
X3345Y537D02*
X3354Y537D01*
X0Y536D02*
X8Y536D01*
X3345Y536D02*
X3354Y536D01*
X0Y535D02*
X8Y535D01*
X3345Y535D02*
X3354Y535D01*
X0Y534D02*
X8Y534D01*
X3345Y534D02*
X3354Y534D01*
X0Y533D02*
X8Y533D01*
X3345Y533D02*
X3354Y533D01*
X0Y532D02*
X8Y532D01*
X3345Y532D02*
X3354Y532D01*
X0Y531D02*
X8Y531D01*
X3345Y531D02*
X3354Y531D01*
X0Y530D02*
X8Y530D01*
X3345Y530D02*
X3354Y530D01*
X0Y529D02*
X8Y529D01*
X3345Y529D02*
X3354Y529D01*
X0Y528D02*
X8Y528D01*
X3345Y528D02*
X3354Y528D01*
X0Y527D02*
X8Y527D01*
X3345Y527D02*
X3354Y527D01*
X0Y526D02*
X8Y526D01*
X3345Y526D02*
X3354Y526D01*
X0Y525D02*
X8Y525D01*
X3345Y525D02*
X3354Y525D01*
X0Y524D02*
X8Y524D01*
X3345Y524D02*
X3354Y524D01*
X0Y523D02*
X8Y523D01*
X3345Y523D02*
X3354Y523D01*
X0Y522D02*
X8Y522D01*
X3345Y522D02*
X3354Y522D01*
X0Y521D02*
X8Y521D01*
X3345Y521D02*
X3354Y521D01*
X0Y520D02*
X8Y520D01*
X3345Y520D02*
X3354Y520D01*
X0Y519D02*
X8Y519D01*
X3345Y519D02*
X3354Y519D01*
X0Y518D02*
X8Y518D01*
X3345Y518D02*
X3354Y518D01*
X0Y517D02*
X8Y517D01*
X3345Y517D02*
X3354Y517D01*
X0Y516D02*
X8Y516D01*
X3345Y516D02*
X3354Y516D01*
X0Y515D02*
X8Y515D01*
X3345Y515D02*
X3354Y515D01*
X0Y514D02*
X8Y514D01*
X3345Y514D02*
X3354Y514D01*
X0Y513D02*
X8Y513D01*
X3345Y513D02*
X3354Y513D01*
X0Y512D02*
X8Y512D01*
X3345Y512D02*
X3354Y512D01*
X0Y511D02*
X8Y511D01*
X3345Y511D02*
X3354Y511D01*
X0Y510D02*
X8Y510D01*
X3345Y510D02*
X3354Y510D01*
X0Y509D02*
X8Y509D01*
X3345Y509D02*
X3354Y509D01*
X0Y508D02*
X8Y508D01*
X3345Y508D02*
X3354Y508D01*
X0Y507D02*
X8Y507D01*
X3345Y507D02*
X3354Y507D01*
X0Y506D02*
X8Y506D01*
X3345Y506D02*
X3354Y506D01*
X0Y505D02*
X8Y505D01*
X3345Y505D02*
X3354Y505D01*
X0Y504D02*
X8Y504D01*
X3345Y504D02*
X3354Y504D01*
X0Y503D02*
X8Y503D01*
X3345Y503D02*
X3354Y503D01*
X0Y502D02*
X8Y502D01*
X3345Y502D02*
X3354Y502D01*
X0Y501D02*
X8Y501D01*
X3345Y501D02*
X3354Y501D01*
X0Y500D02*
X8Y500D01*
X3345Y500D02*
X3354Y500D01*
X0Y499D02*
X8Y499D01*
X3345Y499D02*
X3354Y499D01*
X0Y498D02*
X8Y498D01*
X3345Y498D02*
X3354Y498D01*
X0Y497D02*
X8Y497D01*
X3345Y497D02*
X3354Y497D01*
X0Y496D02*
X8Y496D01*
X3345Y496D02*
X3354Y496D01*
X0Y495D02*
X8Y495D01*
X3345Y495D02*
X3354Y495D01*
X0Y494D02*
X8Y494D01*
X3345Y494D02*
X3354Y494D01*
X0Y493D02*
X8Y493D01*
X3345Y493D02*
X3354Y493D01*
X0Y492D02*
X8Y492D01*
X3345Y492D02*
X3354Y492D01*
X0Y491D02*
X8Y491D01*
X3345Y491D02*
X3354Y491D01*
X0Y490D02*
X8Y490D01*
X3345Y490D02*
X3354Y490D01*
X0Y489D02*
X8Y489D01*
X3345Y489D02*
X3354Y489D01*
X0Y488D02*
X8Y488D01*
X3345Y488D02*
X3354Y488D01*
X0Y487D02*
X8Y487D01*
X3345Y487D02*
X3354Y487D01*
X0Y486D02*
X8Y486D01*
X3345Y486D02*
X3354Y486D01*
X0Y485D02*
X8Y485D01*
X3345Y485D02*
X3354Y485D01*
X0Y484D02*
X8Y484D01*
X3345Y484D02*
X3354Y484D01*
X0Y483D02*
X8Y483D01*
X3345Y483D02*
X3354Y483D01*
X0Y482D02*
X8Y482D01*
X3345Y482D02*
X3354Y482D01*
X0Y481D02*
X8Y481D01*
X3345Y481D02*
X3354Y481D01*
X0Y480D02*
X8Y480D01*
X3345Y480D02*
X3354Y480D01*
X0Y479D02*
X8Y479D01*
X3345Y479D02*
X3354Y479D01*
X0Y478D02*
X8Y478D01*
X3345Y478D02*
X3354Y478D01*
X0Y477D02*
X8Y477D01*
X3345Y477D02*
X3354Y477D01*
X0Y476D02*
X8Y476D01*
X3345Y476D02*
X3354Y476D01*
X0Y475D02*
X8Y475D01*
X3345Y475D02*
X3354Y475D01*
X0Y474D02*
X8Y474D01*
X3345Y474D02*
X3354Y474D01*
X0Y473D02*
X8Y473D01*
X3345Y473D02*
X3354Y473D01*
X0Y472D02*
X8Y472D01*
X3345Y472D02*
X3354Y472D01*
X0Y471D02*
X8Y471D01*
X3345Y471D02*
X3354Y471D01*
X0Y470D02*
X8Y470D01*
X3345Y470D02*
X3354Y470D01*
X0Y469D02*
X8Y469D01*
X3345Y469D02*
X3354Y469D01*
X0Y468D02*
X8Y468D01*
X3345Y468D02*
X3354Y468D01*
X0Y467D02*
X8Y467D01*
X3345Y467D02*
X3354Y467D01*
X0Y466D02*
X8Y466D01*
X3345Y466D02*
X3354Y466D01*
X0Y465D02*
X8Y465D01*
X3345Y465D02*
X3354Y465D01*
X0Y464D02*
X8Y464D01*
X3345Y464D02*
X3354Y464D01*
X0Y463D02*
X8Y463D01*
X3345Y463D02*
X3354Y463D01*
X0Y462D02*
X8Y462D01*
X3345Y462D02*
X3354Y462D01*
X0Y461D02*
X8Y461D01*
X3345Y461D02*
X3354Y461D01*
X0Y460D02*
X8Y460D01*
X3345Y460D02*
X3354Y460D01*
X0Y459D02*
X8Y459D01*
X3345Y459D02*
X3354Y459D01*
X0Y458D02*
X8Y458D01*
X3345Y458D02*
X3354Y458D01*
X0Y457D02*
X8Y457D01*
X3345Y457D02*
X3354Y457D01*
X0Y456D02*
X8Y456D01*
X3345Y456D02*
X3354Y456D01*
X0Y455D02*
X8Y455D01*
X3345Y455D02*
X3354Y455D01*
X0Y454D02*
X8Y454D01*
X3345Y454D02*
X3354Y454D01*
X0Y453D02*
X8Y453D01*
X3345Y453D02*
X3354Y453D01*
X0Y452D02*
X8Y452D01*
X3345Y452D02*
X3354Y452D01*
X0Y451D02*
X8Y451D01*
X3345Y451D02*
X3354Y451D01*
X0Y450D02*
X8Y450D01*
X3345Y450D02*
X3354Y450D01*
X0Y449D02*
X8Y449D01*
X3345Y449D02*
X3354Y449D01*
X0Y448D02*
X8Y448D01*
X3345Y448D02*
X3354Y448D01*
X0Y447D02*
X8Y447D01*
X3345Y447D02*
X3354Y447D01*
X0Y446D02*
X8Y446D01*
X3345Y446D02*
X3354Y446D01*
X0Y445D02*
X8Y445D01*
X3345Y445D02*
X3354Y445D01*
X0Y444D02*
X8Y444D01*
X3345Y444D02*
X3354Y444D01*
X0Y443D02*
X8Y443D01*
X3345Y443D02*
X3354Y443D01*
X0Y442D02*
X8Y442D01*
X3345Y442D02*
X3354Y442D01*
X0Y441D02*
X8Y441D01*
X3345Y441D02*
X3354Y441D01*
X0Y440D02*
X8Y440D01*
X3345Y440D02*
X3354Y440D01*
X0Y439D02*
X8Y439D01*
X3345Y439D02*
X3354Y439D01*
X0Y438D02*
X8Y438D01*
X3345Y438D02*
X3354Y438D01*
X0Y437D02*
X8Y437D01*
X3345Y437D02*
X3354Y437D01*
X0Y436D02*
X8Y436D01*
X3345Y436D02*
X3354Y436D01*
X0Y435D02*
X8Y435D01*
X3345Y435D02*
X3354Y435D01*
X0Y434D02*
X8Y434D01*
X3345Y434D02*
X3354Y434D01*
X0Y433D02*
X8Y433D01*
X3345Y433D02*
X3354Y433D01*
X0Y432D02*
X8Y432D01*
X3345Y432D02*
X3354Y432D01*
X0Y431D02*
X8Y431D01*
X3345Y431D02*
X3354Y431D01*
X0Y430D02*
X8Y430D01*
X3345Y430D02*
X3354Y430D01*
X0Y429D02*
X8Y429D01*
X3345Y429D02*
X3354Y429D01*
X0Y428D02*
X8Y428D01*
X3345Y428D02*
X3354Y428D01*
X0Y427D02*
X8Y427D01*
X3345Y427D02*
X3354Y427D01*
X0Y426D02*
X8Y426D01*
X3345Y426D02*
X3354Y426D01*
X0Y425D02*
X8Y425D01*
X3345Y425D02*
X3354Y425D01*
X0Y424D02*
X8Y424D01*
X3345Y424D02*
X3354Y424D01*
X0Y423D02*
X8Y423D01*
X3345Y423D02*
X3354Y423D01*
X0Y422D02*
X8Y422D01*
X3345Y422D02*
X3354Y422D01*
X0Y421D02*
X8Y421D01*
X3345Y421D02*
X3354Y421D01*
X0Y420D02*
X8Y420D01*
X3345Y420D02*
X3354Y420D01*
X0Y419D02*
X8Y419D01*
X3345Y419D02*
X3354Y419D01*
X0Y418D02*
X8Y418D01*
X3345Y418D02*
X3354Y418D01*
X0Y417D02*
X8Y417D01*
X3345Y417D02*
X3354Y417D01*
X0Y416D02*
X8Y416D01*
X3345Y416D02*
X3354Y416D01*
X0Y415D02*
X8Y415D01*
X3345Y415D02*
X3354Y415D01*
X0Y414D02*
X8Y414D01*
X3345Y414D02*
X3354Y414D01*
X0Y413D02*
X8Y413D01*
X3345Y413D02*
X3354Y413D01*
X0Y412D02*
X8Y412D01*
X3345Y412D02*
X3354Y412D01*
X0Y411D02*
X8Y411D01*
X3345Y411D02*
X3354Y411D01*
X0Y410D02*
X8Y410D01*
X3345Y410D02*
X3354Y410D01*
X0Y409D02*
X8Y409D01*
X3345Y409D02*
X3354Y409D01*
X0Y408D02*
X8Y408D01*
X3345Y408D02*
X3354Y408D01*
X0Y407D02*
X8Y407D01*
X3345Y407D02*
X3354Y407D01*
X0Y406D02*
X8Y406D01*
X3345Y406D02*
X3354Y406D01*
X0Y405D02*
X8Y405D01*
X3345Y405D02*
X3354Y405D01*
X0Y404D02*
X8Y404D01*
X3345Y404D02*
X3354Y404D01*
X0Y403D02*
X8Y403D01*
X3345Y403D02*
X3354Y403D01*
X0Y402D02*
X8Y402D01*
X3345Y402D02*
X3354Y402D01*
X0Y401D02*
X8Y401D01*
X3345Y401D02*
X3354Y401D01*
X0Y400D02*
X8Y400D01*
X3345Y400D02*
X3354Y400D01*
X0Y399D02*
X8Y399D01*
X3345Y399D02*
X3354Y399D01*
X0Y398D02*
X8Y398D01*
X3345Y398D02*
X3354Y398D01*
X0Y397D02*
X8Y397D01*
X3345Y397D02*
X3354Y397D01*
X0Y396D02*
X8Y396D01*
X3345Y396D02*
X3354Y396D01*
X0Y395D02*
X8Y395D01*
X3345Y395D02*
X3354Y395D01*
X0Y394D02*
X8Y394D01*
X3345Y394D02*
X3354Y394D01*
X0Y393D02*
X8Y393D01*
X3345Y393D02*
X3354Y393D01*
X0Y392D02*
X8Y392D01*
X3345Y392D02*
X3354Y392D01*
X0Y391D02*
X8Y391D01*
X3345Y391D02*
X3354Y391D01*
X0Y390D02*
X8Y390D01*
X3345Y390D02*
X3354Y390D01*
X0Y389D02*
X8Y389D01*
X3345Y389D02*
X3354Y389D01*
X0Y388D02*
X8Y388D01*
X3345Y388D02*
X3354Y388D01*
X0Y387D02*
X8Y387D01*
X3345Y387D02*
X3354Y387D01*
X0Y386D02*
X8Y386D01*
X3345Y386D02*
X3354Y386D01*
X0Y385D02*
X8Y385D01*
X3345Y385D02*
X3354Y385D01*
X0Y384D02*
X8Y384D01*
X3345Y384D02*
X3354Y384D01*
X0Y383D02*
X8Y383D01*
X3345Y383D02*
X3354Y383D01*
X0Y382D02*
X8Y382D01*
X3345Y382D02*
X3354Y382D01*
X0Y381D02*
X8Y381D01*
X3345Y381D02*
X3354Y381D01*
X0Y380D02*
X8Y380D01*
X3345Y380D02*
X3354Y380D01*
X0Y379D02*
X8Y379D01*
X3345Y379D02*
X3354Y379D01*
X0Y378D02*
X8Y378D01*
X3345Y378D02*
X3354Y378D01*
X0Y377D02*
X8Y377D01*
X3345Y377D02*
X3354Y377D01*
X0Y376D02*
X8Y376D01*
X3345Y376D02*
X3354Y376D01*
X0Y375D02*
X8Y375D01*
X3345Y375D02*
X3354Y375D01*
X0Y374D02*
X8Y374D01*
X3345Y374D02*
X3354Y374D01*
X0Y373D02*
X8Y373D01*
X3345Y373D02*
X3354Y373D01*
X0Y372D02*
X8Y372D01*
X3345Y372D02*
X3354Y372D01*
X0Y371D02*
X8Y371D01*
X3345Y371D02*
X3354Y371D01*
X0Y370D02*
X8Y370D01*
X3345Y370D02*
X3354Y370D01*
X0Y369D02*
X8Y369D01*
X3345Y369D02*
X3354Y369D01*
X0Y368D02*
X8Y368D01*
X3345Y368D02*
X3354Y368D01*
X0Y367D02*
X8Y367D01*
X3345Y367D02*
X3354Y367D01*
X0Y366D02*
X8Y366D01*
X3345Y366D02*
X3354Y366D01*
X0Y365D02*
X8Y365D01*
X3345Y365D02*
X3354Y365D01*
X0Y364D02*
X8Y364D01*
X3345Y364D02*
X3354Y364D01*
X0Y363D02*
X8Y363D01*
X3345Y363D02*
X3354Y363D01*
X0Y362D02*
X8Y362D01*
X3345Y362D02*
X3354Y362D01*
X0Y361D02*
X8Y361D01*
X3345Y361D02*
X3354Y361D01*
X0Y360D02*
X8Y360D01*
X3345Y360D02*
X3354Y360D01*
X0Y359D02*
X8Y359D01*
X3345Y359D02*
X3354Y359D01*
X0Y358D02*
X8Y358D01*
X3345Y358D02*
X3354Y358D01*
X0Y357D02*
X8Y357D01*
X3345Y357D02*
X3354Y357D01*
X0Y356D02*
X8Y356D01*
X3345Y356D02*
X3354Y356D01*
X0Y355D02*
X8Y355D01*
X3345Y355D02*
X3354Y355D01*
X0Y354D02*
X8Y354D01*
X3345Y354D02*
X3354Y354D01*
X0Y353D02*
X8Y353D01*
X3345Y353D02*
X3354Y353D01*
X0Y352D02*
X8Y352D01*
X3345Y352D02*
X3354Y352D01*
X0Y351D02*
X8Y351D01*
X3345Y351D02*
X3354Y351D01*
X0Y350D02*
X8Y350D01*
X3345Y350D02*
X3354Y350D01*
X0Y349D02*
X8Y349D01*
X3345Y349D02*
X3354Y349D01*
X0Y348D02*
X8Y348D01*
X3345Y348D02*
X3354Y348D01*
X0Y347D02*
X8Y347D01*
X3345Y347D02*
X3354Y347D01*
X0Y346D02*
X8Y346D01*
X3345Y346D02*
X3354Y346D01*
X0Y345D02*
X8Y345D01*
X3345Y345D02*
X3354Y345D01*
X0Y344D02*
X8Y344D01*
X3345Y344D02*
X3354Y344D01*
X0Y343D02*
X8Y343D01*
X3345Y343D02*
X3354Y343D01*
X0Y342D02*
X8Y342D01*
X3345Y342D02*
X3354Y342D01*
X0Y341D02*
X8Y341D01*
X3345Y341D02*
X3354Y341D01*
X0Y340D02*
X8Y340D01*
X3345Y340D02*
X3354Y340D01*
X0Y339D02*
X8Y339D01*
X3345Y339D02*
X3354Y339D01*
X0Y338D02*
X8Y338D01*
X3345Y338D02*
X3354Y338D01*
X0Y337D02*
X8Y337D01*
X3345Y337D02*
X3354Y337D01*
X0Y336D02*
X8Y336D01*
X3345Y336D02*
X3354Y336D01*
X0Y335D02*
X8Y335D01*
X3345Y335D02*
X3354Y335D01*
X0Y334D02*
X8Y334D01*
X3345Y334D02*
X3354Y334D01*
X0Y333D02*
X8Y333D01*
X3345Y333D02*
X3354Y333D01*
X0Y332D02*
X8Y332D01*
X3345Y332D02*
X3354Y332D01*
X0Y331D02*
X8Y331D01*
X3345Y331D02*
X3354Y331D01*
X0Y330D02*
X8Y330D01*
X3345Y330D02*
X3354Y330D01*
X0Y329D02*
X8Y329D01*
X3345Y329D02*
X3354Y329D01*
X0Y328D02*
X8Y328D01*
X3345Y328D02*
X3354Y328D01*
X0Y327D02*
X8Y327D01*
X3345Y327D02*
X3354Y327D01*
X0Y326D02*
X8Y326D01*
X3345Y326D02*
X3354Y326D01*
X0Y325D02*
X8Y325D01*
X3345Y325D02*
X3354Y325D01*
X0Y324D02*
X8Y324D01*
X3345Y324D02*
X3354Y324D01*
X0Y323D02*
X8Y323D01*
X3345Y323D02*
X3354Y323D01*
X0Y322D02*
X8Y322D01*
X3345Y322D02*
X3354Y322D01*
X0Y321D02*
X8Y321D01*
X3345Y321D02*
X3354Y321D01*
X0Y320D02*
X8Y320D01*
X3345Y320D02*
X3354Y320D01*
X0Y319D02*
X8Y319D01*
X3345Y319D02*
X3354Y319D01*
X0Y318D02*
X8Y318D01*
X3345Y318D02*
X3354Y318D01*
X0Y317D02*
X8Y317D01*
X3345Y317D02*
X3354Y317D01*
X0Y316D02*
X8Y316D01*
X3345Y316D02*
X3354Y316D01*
X0Y315D02*
X8Y315D01*
X3345Y315D02*
X3354Y315D01*
X0Y314D02*
X8Y314D01*
X3345Y314D02*
X3354Y314D01*
X0Y313D02*
X8Y313D01*
X3345Y313D02*
X3354Y313D01*
X0Y312D02*
X8Y312D01*
X3345Y312D02*
X3354Y312D01*
X0Y311D02*
X8Y311D01*
X3345Y311D02*
X3354Y311D01*
X0Y310D02*
X8Y310D01*
X3345Y310D02*
X3354Y310D01*
X0Y309D02*
X8Y309D01*
X3345Y309D02*
X3354Y309D01*
X0Y308D02*
X8Y308D01*
X3345Y308D02*
X3354Y308D01*
X0Y307D02*
X8Y307D01*
X3345Y307D02*
X3354Y307D01*
X0Y306D02*
X8Y306D01*
X3345Y306D02*
X3354Y306D01*
X0Y305D02*
X8Y305D01*
X3345Y305D02*
X3354Y305D01*
X0Y304D02*
X8Y304D01*
X3345Y304D02*
X3354Y304D01*
X0Y303D02*
X8Y303D01*
X3345Y303D02*
X3354Y303D01*
X0Y302D02*
X8Y302D01*
X3345Y302D02*
X3354Y302D01*
X0Y301D02*
X8Y301D01*
X3345Y301D02*
X3354Y301D01*
X0Y300D02*
X8Y300D01*
X3345Y300D02*
X3354Y300D01*
X0Y299D02*
X8Y299D01*
X3345Y299D02*
X3354Y299D01*
X0Y298D02*
X8Y298D01*
X3345Y298D02*
X3354Y298D01*
X0Y297D02*
X8Y297D01*
X3345Y297D02*
X3354Y297D01*
X0Y296D02*
X8Y296D01*
X3345Y296D02*
X3354Y296D01*
X0Y295D02*
X8Y295D01*
X3345Y295D02*
X3354Y295D01*
X0Y294D02*
X8Y294D01*
X3345Y294D02*
X3354Y294D01*
X0Y293D02*
X8Y293D01*
X3345Y293D02*
X3354Y293D01*
X0Y292D02*
X8Y292D01*
X3345Y292D02*
X3354Y292D01*
X0Y291D02*
X8Y291D01*
X3345Y291D02*
X3354Y291D01*
X0Y290D02*
X8Y290D01*
X3345Y290D02*
X3354Y290D01*
X0Y289D02*
X8Y289D01*
X3345Y289D02*
X3354Y289D01*
X0Y288D02*
X8Y288D01*
X3345Y288D02*
X3354Y288D01*
X0Y287D02*
X8Y287D01*
X3345Y287D02*
X3354Y287D01*
X0Y286D02*
X8Y286D01*
X3345Y286D02*
X3354Y286D01*
X0Y285D02*
X8Y285D01*
X3345Y285D02*
X3354Y285D01*
X0Y284D02*
X8Y284D01*
X3345Y284D02*
X3354Y284D01*
X0Y283D02*
X8Y283D01*
X3345Y283D02*
X3354Y283D01*
X0Y282D02*
X8Y282D01*
X3345Y282D02*
X3354Y282D01*
X0Y281D02*
X8Y281D01*
X3345Y281D02*
X3354Y281D01*
X0Y280D02*
X8Y280D01*
X3345Y280D02*
X3354Y280D01*
X0Y279D02*
X8Y279D01*
X3345Y279D02*
X3354Y279D01*
X0Y278D02*
X8Y278D01*
X3345Y278D02*
X3354Y278D01*
X0Y277D02*
X8Y277D01*
X3345Y277D02*
X3354Y277D01*
X0Y276D02*
X8Y276D01*
X3345Y276D02*
X3354Y276D01*
X0Y275D02*
X8Y275D01*
X3345Y275D02*
X3354Y275D01*
X0Y274D02*
X8Y274D01*
X3345Y274D02*
X3354Y274D01*
X0Y273D02*
X8Y273D01*
X3345Y273D02*
X3354Y273D01*
X0Y272D02*
X8Y272D01*
X3345Y272D02*
X3354Y272D01*
X0Y271D02*
X8Y271D01*
X3345Y271D02*
X3354Y271D01*
X0Y270D02*
X8Y270D01*
X3345Y270D02*
X3354Y270D01*
X0Y269D02*
X8Y269D01*
X3345Y269D02*
X3354Y269D01*
X0Y268D02*
X8Y268D01*
X3345Y268D02*
X3354Y268D01*
X0Y267D02*
X8Y267D01*
X3345Y267D02*
X3354Y267D01*
X0Y266D02*
X8Y266D01*
X3345Y266D02*
X3354Y266D01*
X0Y265D02*
X8Y265D01*
X3345Y265D02*
X3354Y265D01*
X0Y264D02*
X8Y264D01*
X3345Y264D02*
X3354Y264D01*
X0Y263D02*
X8Y263D01*
X3345Y263D02*
X3354Y263D01*
X0Y262D02*
X8Y262D01*
X3345Y262D02*
X3354Y262D01*
X0Y261D02*
X8Y261D01*
X3345Y261D02*
X3354Y261D01*
X0Y260D02*
X8Y260D01*
X3345Y260D02*
X3354Y260D01*
X0Y259D02*
X8Y259D01*
X3345Y259D02*
X3354Y259D01*
X0Y258D02*
X8Y258D01*
X3345Y258D02*
X3354Y258D01*
X0Y257D02*
X8Y257D01*
X3345Y257D02*
X3354Y257D01*
X0Y256D02*
X8Y256D01*
X3345Y256D02*
X3354Y256D01*
X0Y255D02*
X8Y255D01*
X3345Y255D02*
X3354Y255D01*
X0Y254D02*
X8Y254D01*
X3345Y254D02*
X3354Y254D01*
X0Y253D02*
X8Y253D01*
X3345Y253D02*
X3354Y253D01*
X0Y252D02*
X8Y252D01*
X3345Y252D02*
X3354Y252D01*
X0Y251D02*
X8Y251D01*
X3345Y251D02*
X3354Y251D01*
X0Y250D02*
X8Y250D01*
X3345Y250D02*
X3354Y250D01*
X0Y249D02*
X8Y249D01*
X3345Y249D02*
X3354Y249D01*
X0Y248D02*
X8Y248D01*
X3345Y248D02*
X3354Y248D01*
X0Y247D02*
X8Y247D01*
X3345Y247D02*
X3354Y247D01*
X0Y246D02*
X8Y246D01*
X3345Y246D02*
X3354Y246D01*
X0Y245D02*
X8Y245D01*
X3345Y245D02*
X3354Y245D01*
X0Y244D02*
X8Y244D01*
X3345Y244D02*
X3354Y244D01*
X0Y243D02*
X8Y243D01*
X3345Y243D02*
X3354Y243D01*
X0Y242D02*
X8Y242D01*
X3345Y242D02*
X3354Y242D01*
X0Y241D02*
X8Y241D01*
X3345Y241D02*
X3354Y241D01*
X0Y240D02*
X8Y240D01*
X3345Y240D02*
X3354Y240D01*
X0Y239D02*
X8Y239D01*
X3345Y239D02*
X3354Y239D01*
X0Y238D02*
X8Y238D01*
X3345Y238D02*
X3354Y238D01*
X0Y237D02*
X8Y237D01*
X3345Y237D02*
X3354Y237D01*
X0Y236D02*
X8Y236D01*
X3345Y236D02*
X3354Y236D01*
X0Y235D02*
X8Y235D01*
X3345Y235D02*
X3354Y235D01*
X0Y234D02*
X8Y234D01*
X3345Y234D02*
X3354Y234D01*
X0Y233D02*
X8Y233D01*
X3345Y233D02*
X3354Y233D01*
X0Y232D02*
X8Y232D01*
X3345Y232D02*
X3354Y232D01*
X0Y231D02*
X8Y231D01*
X3345Y231D02*
X3354Y231D01*
X0Y230D02*
X8Y230D01*
X3345Y230D02*
X3354Y230D01*
X0Y229D02*
X8Y229D01*
X3345Y229D02*
X3354Y229D01*
X0Y228D02*
X8Y228D01*
X3345Y228D02*
X3354Y228D01*
X0Y227D02*
X8Y227D01*
X3345Y227D02*
X3354Y227D01*
X0Y226D02*
X8Y226D01*
X3345Y226D02*
X3354Y226D01*
X0Y225D02*
X8Y225D01*
X3345Y225D02*
X3354Y225D01*
X0Y224D02*
X8Y224D01*
X3345Y224D02*
X3354Y224D01*
X0Y223D02*
X8Y223D01*
X3345Y223D02*
X3354Y223D01*
X0Y222D02*
X8Y222D01*
X3345Y222D02*
X3354Y222D01*
X0Y221D02*
X8Y221D01*
X3345Y221D02*
X3354Y221D01*
X0Y220D02*
X8Y220D01*
X3345Y220D02*
X3354Y220D01*
X0Y219D02*
X8Y219D01*
X3345Y219D02*
X3354Y219D01*
X0Y218D02*
X8Y218D01*
X3345Y218D02*
X3354Y218D01*
X0Y217D02*
X8Y217D01*
X3345Y217D02*
X3354Y217D01*
X0Y216D02*
X8Y216D01*
X3345Y216D02*
X3354Y216D01*
X0Y215D02*
X8Y215D01*
X3345Y215D02*
X3354Y215D01*
X0Y214D02*
X8Y214D01*
X3345Y214D02*
X3354Y214D01*
X0Y213D02*
X8Y213D01*
X3345Y213D02*
X3354Y213D01*
X0Y212D02*
X8Y212D01*
X3345Y212D02*
X3354Y212D01*
X0Y211D02*
X8Y211D01*
X3345Y211D02*
X3354Y211D01*
X0Y210D02*
X8Y210D01*
X3345Y210D02*
X3354Y210D01*
X0Y209D02*
X8Y209D01*
X3345Y209D02*
X3354Y209D01*
X0Y208D02*
X8Y208D01*
X3345Y208D02*
X3354Y208D01*
X0Y207D02*
X8Y207D01*
X3345Y207D02*
X3354Y207D01*
X0Y206D02*
X8Y206D01*
X3345Y206D02*
X3354Y206D01*
X0Y205D02*
X8Y205D01*
X3345Y205D02*
X3354Y205D01*
X0Y204D02*
X8Y204D01*
X136Y204D02*
X147Y204D01*
X2419Y204D02*
X2430Y204D01*
X3345Y204D02*
X3354Y204D01*
X0Y203D02*
X8Y203D01*
X130Y203D02*
X153Y203D01*
X2413Y203D02*
X2436Y203D01*
X3345Y203D02*
X3354Y203D01*
X0Y202D02*
X8Y202D01*
X126Y202D02*
X157Y202D01*
X2409Y202D02*
X2440Y202D01*
X3345Y202D02*
X3354Y202D01*
X0Y201D02*
X8Y201D01*
X123Y201D02*
X160Y201D01*
X2406Y201D02*
X2443Y201D01*
X3345Y201D02*
X3354Y201D01*
X0Y200D02*
X8Y200D01*
X120Y200D02*
X163Y200D01*
X2403Y200D02*
X2446Y200D01*
X3345Y200D02*
X3354Y200D01*
X0Y199D02*
X8Y199D01*
X117Y199D02*
X165Y199D01*
X2401Y199D02*
X2448Y199D01*
X3345Y199D02*
X3354Y199D01*
X0Y198D02*
X8Y198D01*
X115Y198D02*
X167Y198D01*
X2399Y198D02*
X2450Y198D01*
X3345Y198D02*
X3354Y198D01*
X0Y197D02*
X8Y197D01*
X113Y197D02*
X169Y197D01*
X2397Y197D02*
X2452Y197D01*
X3345Y197D02*
X3354Y197D01*
X0Y196D02*
X8Y196D01*
X112Y196D02*
X171Y196D01*
X2395Y196D02*
X2454Y196D01*
X3345Y196D02*
X3354Y196D01*
X0Y195D02*
X8Y195D01*
X110Y195D02*
X172Y195D01*
X2393Y195D02*
X2456Y195D01*
X3345Y195D02*
X3354Y195D01*
X0Y194D02*
X8Y194D01*
X108Y194D02*
X174Y194D01*
X2392Y194D02*
X2457Y194D01*
X3345Y194D02*
X3354Y194D01*
X0Y193D02*
X8Y193D01*
X107Y193D02*
X131Y193D01*
X151Y193D02*
X175Y193D01*
X2390Y193D02*
X2414Y193D01*
X2435Y193D02*
X2459Y193D01*
X3345Y193D02*
X3354Y193D01*
X0Y192D02*
X8Y192D01*
X106Y192D02*
X127Y192D01*
X155Y192D02*
X177Y192D01*
X2389Y192D02*
X2410Y192D01*
X2439Y192D02*
X2460Y192D01*
X3345Y192D02*
X3354Y192D01*
X0Y191D02*
X8Y191D01*
X104Y191D02*
X124Y191D01*
X159Y191D02*
X178Y191D01*
X2388Y191D02*
X2407Y191D01*
X2442Y191D02*
X2462Y191D01*
X3345Y191D02*
X3354Y191D01*
X0Y190D02*
X8Y190D01*
X103Y190D02*
X121Y190D01*
X161Y190D02*
X179Y190D01*
X2387Y190D02*
X2405Y190D01*
X2445Y190D02*
X2463Y190D01*
X3345Y190D02*
X3354Y190D01*
X0Y189D02*
X8Y189D01*
X102Y189D02*
X119Y189D01*
X163Y189D02*
X180Y189D01*
X2385Y189D02*
X2403Y189D01*
X2447Y189D02*
X2464Y189D01*
X3345Y189D02*
X3354Y189D01*
X0Y188D02*
X8Y188D01*
X101Y188D02*
X117Y188D01*
X165Y188D02*
X182Y188D01*
X2384Y188D02*
X2401Y188D01*
X2449Y188D02*
X2465Y188D01*
X3345Y188D02*
X3354Y188D01*
X0Y187D02*
X8Y187D01*
X100Y187D02*
X116Y187D01*
X167Y187D02*
X183Y187D01*
X2383Y187D02*
X2399Y187D01*
X2450Y187D02*
X2466Y187D01*
X3345Y187D02*
X3354Y187D01*
X0Y186D02*
X8Y186D01*
X99Y186D02*
X114Y186D01*
X168Y186D02*
X184Y186D01*
X2382Y186D02*
X2397Y186D01*
X2452Y186D02*
X2467Y186D01*
X3345Y186D02*
X3354Y186D01*
X0Y185D02*
X8Y185D01*
X98Y185D02*
X113Y185D01*
X170Y185D02*
X184Y185D01*
X2381Y185D02*
X2396Y185D01*
X2453Y185D02*
X2468Y185D01*
X3345Y185D02*
X3354Y185D01*
X0Y184D02*
X8Y184D01*
X97Y184D02*
X111Y184D01*
X171Y184D02*
X185Y184D01*
X2380Y184D02*
X2395Y184D01*
X2455Y184D02*
X2469Y184D01*
X3345Y184D02*
X3354Y184D01*
X0Y183D02*
X8Y183D01*
X96Y183D02*
X110Y183D01*
X173Y183D02*
X186Y183D01*
X2380Y183D02*
X2393Y183D01*
X2456Y183D02*
X2470Y183D01*
X3345Y183D02*
X3354Y183D01*
X0Y182D02*
X8Y182D01*
X95Y182D02*
X109Y182D01*
X174Y182D02*
X187Y182D01*
X2379Y182D02*
X2392Y182D01*
X2457Y182D02*
X2470Y182D01*
X3345Y182D02*
X3354Y182D01*
X0Y181D02*
X8Y181D01*
X95Y181D02*
X108Y181D01*
X175Y181D02*
X188Y181D01*
X2378Y181D02*
X2391Y181D01*
X2458Y181D02*
X2471Y181D01*
X3345Y181D02*
X3354Y181D01*
X0Y180D02*
X8Y180D01*
X94Y180D02*
X107Y180D01*
X176Y180D02*
X189Y180D01*
X2377Y180D02*
X2390Y180D01*
X2459Y180D02*
X2472Y180D01*
X3345Y180D02*
X3354Y180D01*
X0Y179D02*
X8Y179D01*
X93Y179D02*
X106Y179D01*
X177Y179D02*
X189Y179D01*
X2377Y179D02*
X2389Y179D01*
X2460Y179D02*
X2473Y179D01*
X3345Y179D02*
X3354Y179D01*
X0Y178D02*
X8Y178D01*
X92Y178D02*
X105Y178D01*
X178Y178D02*
X190Y178D01*
X2376Y178D02*
X2388Y178D01*
X2461Y178D02*
X2473Y178D01*
X3345Y178D02*
X3354Y178D01*
X0Y177D02*
X8Y177D01*
X92Y177D02*
X104Y177D01*
X179Y177D02*
X191Y177D01*
X2375Y177D02*
X2387Y177D01*
X2462Y177D02*
X2474Y177D01*
X3345Y177D02*
X3354Y177D01*
X0Y176D02*
X8Y176D01*
X91Y176D02*
X103Y176D01*
X180Y176D02*
X191Y176D01*
X2375Y176D02*
X2386Y176D01*
X2463Y176D02*
X2475Y176D01*
X3345Y176D02*
X3354Y176D01*
X0Y175D02*
X8Y175D01*
X91Y175D02*
X102Y175D01*
X180Y175D02*
X192Y175D01*
X2374Y175D02*
X2385Y175D01*
X2464Y175D02*
X2475Y175D01*
X3345Y175D02*
X3354Y175D01*
X0Y174D02*
X8Y174D01*
X90Y174D02*
X101Y174D01*
X181Y174D02*
X192Y174D01*
X2373Y174D02*
X2385Y174D01*
X2464Y174D02*
X2476Y174D01*
X3345Y174D02*
X3354Y174D01*
X0Y173D02*
X8Y173D01*
X90Y173D02*
X101Y173D01*
X182Y173D02*
X193Y173D01*
X2373Y173D02*
X2384Y173D01*
X2465Y173D02*
X2476Y173D01*
X3345Y173D02*
X3354Y173D01*
X0Y172D02*
X8Y172D01*
X89Y172D02*
X100Y172D01*
X183Y172D02*
X193Y172D01*
X2372Y172D02*
X2383Y172D01*
X2466Y172D02*
X2477Y172D01*
X3345Y172D02*
X3354Y172D01*
X0Y171D02*
X8Y171D01*
X89Y171D02*
X99Y171D01*
X183Y171D02*
X194Y171D01*
X2372Y171D02*
X2383Y171D01*
X2467Y171D02*
X2477Y171D01*
X3345Y171D02*
X3354Y171D01*
X0Y170D02*
X8Y170D01*
X88Y170D02*
X99Y170D01*
X184Y170D02*
X194Y170D01*
X2371Y170D02*
X2382Y170D01*
X2467Y170D02*
X2478Y170D01*
X3345Y170D02*
X3354Y170D01*
X0Y169D02*
X8Y169D01*
X88Y169D02*
X98Y169D01*
X184Y169D02*
X195Y169D01*
X2371Y169D02*
X2381Y169D01*
X2468Y169D02*
X2478Y169D01*
X3345Y169D02*
X3354Y169D01*
X0Y168D02*
X8Y168D01*
X87Y168D02*
X97Y168D01*
X185Y168D02*
X195Y168D01*
X2371Y168D02*
X2381Y168D01*
X2468Y168D02*
X2479Y168D01*
X3345Y168D02*
X3354Y168D01*
X0Y167D02*
X8Y167D01*
X87Y167D02*
X97Y167D01*
X185Y167D02*
X196Y167D01*
X2370Y167D02*
X2380Y167D01*
X2469Y167D02*
X2479Y167D01*
X3345Y167D02*
X3354Y167D01*
X0Y166D02*
X8Y166D01*
X86Y166D02*
X96Y166D01*
X186Y166D02*
X196Y166D01*
X2370Y166D02*
X2380Y166D01*
X2469Y166D02*
X2479Y166D01*
X3345Y166D02*
X3354Y166D01*
X0Y165D02*
X8Y165D01*
X86Y165D02*
X96Y165D01*
X186Y165D02*
X196Y165D01*
X2369Y165D02*
X2379Y165D01*
X2470Y165D02*
X2480Y165D01*
X3345Y165D02*
X3354Y165D01*
X0Y164D02*
X8Y164D01*
X86Y164D02*
X96Y164D01*
X187Y164D02*
X197Y164D01*
X2369Y164D02*
X2379Y164D01*
X2470Y164D02*
X2480Y164D01*
X3345Y164D02*
X3354Y164D01*
X0Y163D02*
X8Y163D01*
X85Y163D02*
X95Y163D01*
X187Y163D02*
X197Y163D01*
X2369Y163D02*
X2379Y163D01*
X2471Y163D02*
X2481Y163D01*
X3345Y163D02*
X3354Y163D01*
X0Y162D02*
X8Y162D01*
X85Y162D02*
X95Y162D01*
X188Y162D02*
X197Y162D01*
X2368Y162D02*
X2378Y162D01*
X2471Y162D02*
X2481Y162D01*
X3345Y162D02*
X3354Y162D01*
X0Y161D02*
X8Y161D01*
X85Y161D02*
X94Y161D01*
X188Y161D02*
X198Y161D01*
X2368Y161D02*
X2378Y161D01*
X2471Y161D02*
X2481Y161D01*
X3345Y161D02*
X3354Y161D01*
X0Y160D02*
X8Y160D01*
X84Y160D02*
X94Y160D01*
X188Y160D02*
X198Y160D01*
X2368Y160D02*
X2377Y160D01*
X2472Y160D02*
X2481Y160D01*
X3345Y160D02*
X3354Y160D01*
X0Y159D02*
X8Y159D01*
X84Y159D02*
X94Y159D01*
X189Y159D02*
X198Y159D01*
X2368Y159D02*
X2377Y159D01*
X2472Y159D02*
X2482Y159D01*
X3345Y159D02*
X3354Y159D01*
X0Y158D02*
X8Y158D01*
X84Y158D02*
X94Y158D01*
X189Y158D02*
X199Y158D01*
X2367Y158D02*
X2377Y158D01*
X2472Y158D02*
X2482Y158D01*
X3345Y158D02*
X3354Y158D01*
X0Y157D02*
X8Y157D01*
X84Y157D02*
X93Y157D01*
X189Y157D02*
X199Y157D01*
X2367Y157D02*
X2377Y157D01*
X2473Y157D02*
X2482Y157D01*
X3345Y157D02*
X3354Y157D01*
X0Y156D02*
X8Y156D01*
X83Y156D02*
X93Y156D01*
X189Y156D02*
X199Y156D01*
X2367Y156D02*
X2376Y156D01*
X2473Y156D02*
X2482Y156D01*
X3345Y156D02*
X3354Y156D01*
X0Y155D02*
X8Y155D01*
X83Y155D02*
X93Y155D01*
X190Y155D02*
X199Y155D01*
X2367Y155D02*
X2376Y155D01*
X2473Y155D02*
X2482Y155D01*
X3345Y155D02*
X3354Y155D01*
X0Y154D02*
X8Y154D01*
X83Y154D02*
X93Y154D01*
X190Y154D02*
X199Y154D01*
X2367Y154D02*
X2376Y154D01*
X2473Y154D02*
X2483Y154D01*
X3345Y154D02*
X3354Y154D01*
X0Y153D02*
X8Y153D01*
X83Y153D02*
X92Y153D01*
X190Y153D02*
X199Y153D01*
X2366Y153D02*
X2376Y153D01*
X2473Y153D02*
X2483Y153D01*
X3345Y153D02*
X3354Y153D01*
X0Y152D02*
X8Y152D01*
X83Y152D02*
X92Y152D01*
X190Y152D02*
X200Y152D01*
X2366Y152D02*
X2376Y152D01*
X2473Y152D02*
X2483Y152D01*
X3345Y152D02*
X3354Y152D01*
X0Y151D02*
X8Y151D01*
X83Y151D02*
X92Y151D01*
X190Y151D02*
X200Y151D01*
X2366Y151D02*
X2376Y151D01*
X2474Y151D02*
X2483Y151D01*
X3345Y151D02*
X3354Y151D01*
X0Y150D02*
X8Y150D01*
X83Y150D02*
X92Y150D01*
X190Y150D02*
X200Y150D01*
X2366Y150D02*
X2375Y150D01*
X2474Y150D02*
X2483Y150D01*
X3345Y150D02*
X3354Y150D01*
X0Y149D02*
X8Y149D01*
X83Y149D02*
X92Y149D01*
X190Y149D02*
X200Y149D01*
X2366Y149D02*
X2375Y149D01*
X2474Y149D02*
X2483Y149D01*
X3345Y149D02*
X3354Y149D01*
X0Y148D02*
X8Y148D01*
X83Y148D02*
X92Y148D01*
X191Y148D02*
X200Y148D01*
X2366Y148D02*
X2375Y148D01*
X2474Y148D02*
X2483Y148D01*
X3345Y148D02*
X3354Y148D01*
X0Y147D02*
X8Y147D01*
X83Y147D02*
X92Y147D01*
X191Y147D02*
X200Y147D01*
X2366Y147D02*
X2375Y147D01*
X2474Y147D02*
X2483Y147D01*
X3345Y147D02*
X3354Y147D01*
X0Y146D02*
X8Y146D01*
X82Y146D02*
X92Y146D01*
X191Y146D02*
X200Y146D01*
X2366Y146D02*
X2375Y146D01*
X2474Y146D02*
X2483Y146D01*
X3345Y146D02*
X3354Y146D01*
X0Y145D02*
X8Y145D01*
X82Y145D02*
X92Y145D01*
X191Y145D02*
X200Y145D01*
X2366Y145D02*
X2375Y145D01*
X2474Y145D02*
X2483Y145D01*
X3345Y145D02*
X3354Y145D01*
X0Y144D02*
X8Y144D01*
X82Y144D02*
X92Y144D01*
X191Y144D02*
X200Y144D01*
X2366Y144D02*
X2375Y144D01*
X2474Y144D02*
X2483Y144D01*
X3345Y144D02*
X3354Y144D01*
X0Y143D02*
X8Y143D01*
X83Y143D02*
X92Y143D01*
X191Y143D02*
X200Y143D01*
X2366Y143D02*
X2375Y143D01*
X2474Y143D02*
X2483Y143D01*
X3345Y143D02*
X3354Y143D01*
X0Y142D02*
X8Y142D01*
X83Y142D02*
X92Y142D01*
X191Y142D02*
X200Y142D01*
X2366Y142D02*
X2375Y142D01*
X2474Y142D02*
X2483Y142D01*
X3345Y142D02*
X3354Y142D01*
X0Y141D02*
X8Y141D01*
X83Y141D02*
X92Y141D01*
X190Y141D02*
X200Y141D01*
X2366Y141D02*
X2375Y141D01*
X2474Y141D02*
X2483Y141D01*
X3345Y141D02*
X3354Y141D01*
X0Y140D02*
X8Y140D01*
X83Y140D02*
X92Y140D01*
X190Y140D02*
X200Y140D01*
X2366Y140D02*
X2375Y140D01*
X2474Y140D02*
X2483Y140D01*
X3345Y140D02*
X3354Y140D01*
X0Y139D02*
X8Y139D01*
X83Y139D02*
X92Y139D01*
X190Y139D02*
X200Y139D01*
X2366Y139D02*
X2376Y139D01*
X2474Y139D02*
X2483Y139D01*
X3345Y139D02*
X3354Y139D01*
X0Y138D02*
X8Y138D01*
X83Y138D02*
X92Y138D01*
X190Y138D02*
X200Y138D01*
X2366Y138D02*
X2376Y138D01*
X2473Y138D02*
X2483Y138D01*
X3345Y138D02*
X3354Y138D01*
X0Y137D02*
X8Y137D01*
X83Y137D02*
X92Y137D01*
X190Y137D02*
X199Y137D01*
X2366Y137D02*
X2376Y137D01*
X2473Y137D02*
X2483Y137D01*
X3345Y137D02*
X3354Y137D01*
X0Y136D02*
X8Y136D01*
X83Y136D02*
X93Y136D01*
X190Y136D02*
X199Y136D01*
X2367Y136D02*
X2376Y136D01*
X2473Y136D02*
X2483Y136D01*
X3345Y136D02*
X3354Y136D01*
X0Y135D02*
X8Y135D01*
X83Y135D02*
X93Y135D01*
X190Y135D02*
X199Y135D01*
X2367Y135D02*
X2376Y135D01*
X2473Y135D02*
X2482Y135D01*
X3345Y135D02*
X3354Y135D01*
X0Y134D02*
X8Y134D01*
X84Y134D02*
X93Y134D01*
X189Y134D02*
X199Y134D01*
X2367Y134D02*
X2376Y134D01*
X2473Y134D02*
X2482Y134D01*
X3345Y134D02*
X3354Y134D01*
X0Y133D02*
X8Y133D01*
X84Y133D02*
X93Y133D01*
X189Y133D02*
X199Y133D01*
X2367Y133D02*
X2377Y133D01*
X2473Y133D02*
X2482Y133D01*
X3345Y133D02*
X3354Y133D01*
X0Y132D02*
X8Y132D01*
X84Y132D02*
X94Y132D01*
X189Y132D02*
X199Y132D01*
X2367Y132D02*
X2377Y132D01*
X2472Y132D02*
X2482Y132D01*
X3345Y132D02*
X3354Y132D01*
X0Y131D02*
X8Y131D01*
X84Y131D02*
X94Y131D01*
X189Y131D02*
X198Y131D01*
X2368Y131D02*
X2377Y131D01*
X2472Y131D02*
X2482Y131D01*
X3345Y131D02*
X3354Y131D01*
X0Y130D02*
X8Y130D01*
X84Y130D02*
X94Y130D01*
X188Y130D02*
X198Y130D01*
X2368Y130D02*
X2377Y130D01*
X2472Y130D02*
X2481Y130D01*
X3345Y130D02*
X3354Y130D01*
X0Y129D02*
X8Y129D01*
X85Y129D02*
X94Y129D01*
X188Y129D02*
X198Y129D01*
X2368Y129D02*
X2378Y129D01*
X2471Y129D02*
X2481Y129D01*
X3345Y129D02*
X3354Y129D01*
X0Y128D02*
X8Y128D01*
X85Y128D02*
X95Y128D01*
X188Y128D02*
X197Y128D01*
X2368Y128D02*
X2378Y128D01*
X2471Y128D02*
X2481Y128D01*
X3345Y128D02*
X3354Y128D01*
X0Y127D02*
X8Y127D01*
X85Y127D02*
X95Y127D01*
X187Y127D02*
X197Y127D01*
X2369Y127D02*
X2379Y127D01*
X2471Y127D02*
X2481Y127D01*
X3345Y127D02*
X3354Y127D01*
X0Y126D02*
X8Y126D01*
X86Y126D02*
X96Y126D01*
X187Y126D02*
X197Y126D01*
X2369Y126D02*
X2379Y126D01*
X2470Y126D02*
X2480Y126D01*
X3345Y126D02*
X3354Y126D01*
X0Y125D02*
X8Y125D01*
X86Y125D02*
X96Y125D01*
X186Y125D02*
X196Y125D01*
X2369Y125D02*
X2379Y125D01*
X2470Y125D02*
X2480Y125D01*
X3345Y125D02*
X3354Y125D01*
X0Y124D02*
X8Y124D01*
X86Y124D02*
X97Y124D01*
X186Y124D02*
X196Y124D01*
X2370Y124D02*
X2380Y124D01*
X2469Y124D02*
X2479Y124D01*
X3345Y124D02*
X3354Y124D01*
X0Y123D02*
X8Y123D01*
X87Y123D02*
X97Y123D01*
X185Y123D02*
X196Y123D01*
X2370Y123D02*
X2380Y123D01*
X2469Y123D02*
X2479Y123D01*
X3345Y123D02*
X3354Y123D01*
X0Y122D02*
X8Y122D01*
X87Y122D02*
X97Y122D01*
X185Y122D02*
X195Y122D01*
X2371Y122D02*
X2381Y122D01*
X2468Y122D02*
X2479Y122D01*
X3345Y122D02*
X3354Y122D01*
X0Y121D02*
X8Y121D01*
X88Y121D02*
X98Y121D01*
X184Y121D02*
X195Y121D01*
X2371Y121D02*
X2381Y121D01*
X2468Y121D02*
X2478Y121D01*
X3345Y121D02*
X3354Y121D01*
X0Y120D02*
X8Y120D01*
X88Y120D02*
X99Y120D01*
X184Y120D02*
X194Y120D01*
X2371Y120D02*
X2382Y120D01*
X2467Y120D02*
X2478Y120D01*
X3345Y120D02*
X3354Y120D01*
X0Y119D02*
X8Y119D01*
X89Y119D02*
X99Y119D01*
X183Y119D02*
X194Y119D01*
X2372Y119D02*
X2383Y119D01*
X2467Y119D02*
X2477Y119D01*
X3345Y119D02*
X3354Y119D01*
X0Y118D02*
X8Y118D01*
X89Y118D02*
X100Y118D01*
X183Y118D02*
X193Y118D01*
X2372Y118D02*
X2383Y118D01*
X2466Y118D02*
X2477Y118D01*
X3345Y118D02*
X3354Y118D01*
X0Y117D02*
X8Y117D01*
X90Y117D02*
X101Y117D01*
X182Y117D02*
X193Y117D01*
X2373Y117D02*
X2384Y117D01*
X2465Y117D02*
X2476Y117D01*
X3345Y117D02*
X3354Y117D01*
X0Y116D02*
X9Y116D01*
X90Y116D02*
X101Y116D01*
X181Y116D02*
X192Y116D01*
X2373Y116D02*
X2385Y116D01*
X2464Y116D02*
X2476Y116D01*
X3345Y116D02*
X3354Y116D01*
X0Y115D02*
X9Y115D01*
X91Y115D02*
X102Y115D01*
X180Y115D02*
X192Y115D01*
X2374Y115D02*
X2386Y115D01*
X2464Y115D02*
X2475Y115D01*
X3345Y115D02*
X3354Y115D01*
X0Y114D02*
X9Y114D01*
X91Y114D02*
X103Y114D01*
X180Y114D02*
X191Y114D01*
X2375Y114D02*
X2386Y114D01*
X2463Y114D02*
X2475Y114D01*
X3344Y114D02*
X3354Y114D01*
X0Y113D02*
X9Y113D01*
X92Y113D02*
X104Y113D01*
X179Y113D02*
X191Y113D01*
X2375Y113D02*
X2387Y113D01*
X2462Y113D02*
X2474Y113D01*
X3344Y113D02*
X3354Y113D01*
X0Y112D02*
X9Y112D01*
X93Y112D02*
X105Y112D01*
X178Y112D02*
X190Y112D01*
X2376Y112D02*
X2388Y112D01*
X2461Y112D02*
X2473Y112D01*
X3344Y112D02*
X3354Y112D01*
X0Y111D02*
X9Y111D01*
X93Y111D02*
X106Y111D01*
X177Y111D02*
X189Y111D01*
X2377Y111D02*
X2389Y111D01*
X2460Y111D02*
X2473Y111D01*
X3344Y111D02*
X3354Y111D01*
X0Y110D02*
X9Y110D01*
X94Y110D02*
X107Y110D01*
X176Y110D02*
X189Y110D01*
X2377Y110D02*
X2390Y110D01*
X2459Y110D02*
X2472Y110D01*
X3344Y110D02*
X3353Y110D01*
X0Y109D02*
X9Y109D01*
X95Y109D02*
X108Y109D01*
X175Y109D02*
X188Y109D01*
X2378Y109D02*
X2391Y109D01*
X2458Y109D02*
X2471Y109D01*
X3344Y109D02*
X3353Y109D01*
X0Y108D02*
X9Y108D01*
X95Y108D02*
X109Y108D01*
X174Y108D02*
X187Y108D01*
X2379Y108D02*
X2392Y108D01*
X2457Y108D02*
X2470Y108D01*
X3344Y108D02*
X3353Y108D01*
X0Y107D02*
X10Y107D01*
X96Y107D02*
X110Y107D01*
X172Y107D02*
X186Y107D01*
X2380Y107D02*
X2393Y107D01*
X2456Y107D02*
X2470Y107D01*
X3344Y107D02*
X3353Y107D01*
X0Y106D02*
X10Y106D01*
X97Y106D02*
X111Y106D01*
X171Y106D02*
X185Y106D01*
X2380Y106D02*
X2395Y106D01*
X2455Y106D02*
X2469Y106D01*
X3343Y106D02*
X3353Y106D01*
X0Y105D02*
X10Y105D01*
X98Y105D02*
X113Y105D01*
X170Y105D02*
X184Y105D01*
X2381Y105D02*
X2396Y105D01*
X2453Y105D02*
X2468Y105D01*
X3343Y105D02*
X3353Y105D01*
X1Y104D02*
X10Y104D01*
X99Y104D02*
X114Y104D01*
X168Y104D02*
X184Y104D01*
X2382Y104D02*
X2397Y104D01*
X2452Y104D02*
X2467Y104D01*
X3343Y104D02*
X3352Y104D01*
X1Y103D02*
X10Y103D01*
X100Y103D02*
X116Y103D01*
X167Y103D02*
X183Y103D01*
X2383Y103D02*
X2399Y103D01*
X2450Y103D02*
X2466Y103D01*
X3343Y103D02*
X3352Y103D01*
X1Y102D02*
X11Y102D01*
X101Y102D02*
X117Y102D01*
X165Y102D02*
X181Y102D01*
X2384Y102D02*
X2401Y102D01*
X2449Y102D02*
X2465Y102D01*
X3343Y102D02*
X3352Y102D01*
X1Y101D02*
X11Y101D01*
X102Y101D02*
X119Y101D01*
X163Y101D02*
X180Y101D01*
X2385Y101D02*
X2403Y101D01*
X2446Y101D02*
X2464Y101D01*
X3342Y101D02*
X3352Y101D01*
X1Y100D02*
X11Y100D01*
X103Y100D02*
X121Y100D01*
X161Y100D02*
X179Y100D01*
X2387Y100D02*
X2405Y100D01*
X2444Y100D02*
X2463Y100D01*
X3342Y100D02*
X3352Y100D01*
X2Y99D02*
X11Y99D01*
X104Y99D02*
X124Y99D01*
X158Y99D02*
X178Y99D01*
X2388Y99D02*
X2407Y99D01*
X2442Y99D02*
X2461Y99D01*
X3342Y99D02*
X3351Y99D01*
X2Y98D02*
X11Y98D01*
X106Y98D02*
X127Y98D01*
X155Y98D02*
X177Y98D01*
X2389Y98D02*
X2410Y98D01*
X2439Y98D02*
X2460Y98D01*
X3342Y98D02*
X3351Y98D01*
X2Y97D02*
X12Y97D01*
X107Y97D02*
X131Y97D01*
X151Y97D02*
X175Y97D01*
X2390Y97D02*
X2415Y97D01*
X2435Y97D02*
X2459Y97D01*
X3341Y97D02*
X3351Y97D01*
X2Y96D02*
X12Y96D01*
X108Y96D02*
X174Y96D01*
X2392Y96D02*
X2457Y96D01*
X3341Y96D02*
X3351Y96D01*
X3Y95D02*
X12Y95D01*
X110Y95D02*
X172Y95D01*
X2393Y95D02*
X2456Y95D01*
X3341Y95D02*
X3351Y95D01*
X3Y94D02*
X13Y94D01*
X112Y94D02*
X171Y94D01*
X2395Y94D02*
X2454Y94D01*
X3341Y94D02*
X3350Y94D01*
X3Y93D02*
X13Y93D01*
X113Y93D02*
X169Y93D01*
X2397Y93D02*
X2452Y93D01*
X3340Y93D02*
X3350Y93D01*
X3Y92D02*
X13Y92D01*
X115Y92D02*
X167Y92D01*
X2399Y92D02*
X2450Y92D01*
X3340Y92D02*
X3350Y92D01*
X4Y91D02*
X13Y91D01*
X118Y91D02*
X165Y91D01*
X2401Y91D02*
X2448Y91D01*
X3340Y91D02*
X3349Y91D01*
X4Y90D02*
X14Y90D01*
X120Y90D02*
X163Y90D01*
X2403Y90D02*
X2446Y90D01*
X3339Y90D02*
X3349Y90D01*
X4Y89D02*
X14Y89D01*
X123Y89D02*
X160Y89D01*
X2406Y89D02*
X2443Y89D01*
X3339Y89D02*
X3349Y89D01*
X5Y88D02*
X14Y88D01*
X126Y88D02*
X157Y88D01*
X2409Y88D02*
X2440Y88D01*
X3339Y88D02*
X3349Y88D01*
X5Y87D02*
X15Y87D01*
X130Y87D02*
X153Y87D01*
X2413Y87D02*
X2436Y87D01*
X3338Y87D02*
X3348Y87D01*
X5Y86D02*
X15Y86D01*
X136Y86D02*
X146Y86D01*
X2420Y86D02*
X2430Y86D01*
X3338Y86D02*
X3348Y86D01*
X6Y85D02*
X16Y85D01*
X3338Y85D02*
X3347Y85D01*
X6Y84D02*
X16Y84D01*
X3337Y84D02*
X3347Y84D01*
X6Y83D02*
X16Y83D01*
X3337Y83D02*
X3347Y83D01*
X7Y82D02*
X17Y82D01*
X3336Y82D02*
X3346Y82D01*
X7Y81D02*
X17Y81D01*
X3336Y81D02*
X3346Y81D01*
X8Y80D02*
X18Y80D01*
X3336Y80D02*
X3346Y80D01*
X8Y79D02*
X18Y79D01*
X3335Y79D02*
X3345Y79D01*
X8Y78D02*
X19Y78D01*
X3335Y78D02*
X3345Y78D01*
X9Y77D02*
X19Y77D01*
X3334Y77D02*
X3344Y77D01*
X9Y76D02*
X20Y76D01*
X3334Y76D02*
X3344Y76D01*
X10Y75D02*
X20Y75D01*
X3333Y75D02*
X3343Y75D01*
X10Y74D02*
X21Y74D01*
X3333Y74D02*
X3343Y74D01*
X11Y73D02*
X21Y73D01*
X3332Y73D02*
X3343Y73D01*
X11Y72D02*
X22Y72D01*
X3332Y72D02*
X3342Y72D01*
X12Y71D02*
X22Y71D01*
X3331Y71D02*
X3342Y71D01*
X12Y70D02*
X23Y70D01*
X3330Y70D02*
X3341Y70D01*
X13Y69D02*
X23Y69D01*
X3330Y69D02*
X3341Y69D01*
X13Y68D02*
X24Y68D01*
X3329Y68D02*
X3340Y68D01*
X14Y67D02*
X24Y67D01*
X3329Y67D02*
X3340Y67D01*
X14Y66D02*
X25Y66D01*
X3328Y66D02*
X3339Y66D01*
X15Y65D02*
X26Y65D01*
X3327Y65D02*
X3338Y65D01*
X15Y64D02*
X26Y64D01*
X3327Y64D02*
X3338Y64D01*
X16Y63D02*
X27Y63D01*
X3326Y63D02*
X3337Y63D01*
X16Y62D02*
X28Y62D01*
X3325Y62D02*
X3337Y62D01*
X17Y61D02*
X28Y61D01*
X3325Y61D02*
X3336Y61D01*
X18Y60D02*
X29Y60D01*
X3324Y60D02*
X3335Y60D01*
X18Y59D02*
X30Y59D01*
X3323Y59D02*
X3335Y59D01*
X19Y58D02*
X31Y58D01*
X3322Y58D02*
X3334Y58D01*
X20Y57D02*
X31Y57D01*
X3322Y57D02*
X3334Y57D01*
X20Y56D02*
X32Y56D01*
X3321Y56D02*
X3333Y56D01*
X21Y55D02*
X33Y55D01*
X3320Y55D02*
X3332Y55D01*
X22Y54D02*
X34Y54D01*
X3319Y54D02*
X3331Y54D01*
X22Y53D02*
X35Y53D01*
X3319Y53D02*
X3331Y53D01*
X23Y52D02*
X36Y52D01*
X3318Y52D02*
X3330Y52D01*
X24Y51D02*
X36Y51D01*
X3317Y51D02*
X3329Y51D01*
X25Y50D02*
X37Y50D01*
X3316Y50D02*
X3328Y50D01*
X25Y49D02*
X38Y49D01*
X3315Y49D02*
X3328Y49D01*
X26Y48D02*
X39Y48D01*
X3314Y48D02*
X3327Y48D01*
X27Y47D02*
X40Y47D01*
X3313Y47D02*
X3326Y47D01*
X28Y46D02*
X41Y46D01*
X3312Y46D02*
X3325Y46D01*
X29Y45D02*
X42Y45D01*
X3311Y45D02*
X3324Y45D01*
X30Y44D02*
X43Y44D01*
X3310Y44D02*
X3324Y44D01*
X30Y43D02*
X44Y43D01*
X3309Y43D02*
X3323Y43D01*
X31Y42D02*
X45Y42D01*
X3308Y42D02*
X3322Y42D01*
X32Y41D02*
X46Y41D01*
X3307Y41D02*
X3321Y41D01*
X33Y40D02*
X48Y40D01*
X3306Y40D02*
X3320Y40D01*
X34Y39D02*
X49Y39D01*
X3305Y39D02*
X3319Y39D01*
X35Y38D02*
X50Y38D01*
X3303Y38D02*
X3318Y38D01*
X36Y37D02*
X51Y37D01*
X3302Y37D02*
X3317Y37D01*
X37Y36D02*
X52Y36D01*
X3301Y36D02*
X3316Y36D01*
X38Y35D02*
X54Y35D01*
X3299Y35D02*
X3315Y35D01*
X39Y34D02*
X55Y34D01*
X3298Y34D02*
X3314Y34D01*
X41Y33D02*
X56Y33D01*
X3297Y33D02*
X3313Y33D01*
X42Y32D02*
X58Y32D01*
X3295Y32D02*
X3311Y32D01*
X43Y31D02*
X59Y31D01*
X3294Y31D02*
X3310Y31D01*
X44Y30D02*
X61Y30D01*
X3292Y30D02*
X3309Y30D01*
X45Y29D02*
X62Y29D01*
X3291Y29D02*
X3308Y29D01*
X47Y28D02*
X64Y28D01*
X3289Y28D02*
X3306Y28D01*
X48Y27D02*
X66Y27D01*
X3287Y27D02*
X3305Y27D01*
X49Y26D02*
X68Y26D01*
X3286Y26D02*
X3304Y26D01*
X51Y25D02*
X69Y25D01*
X3284Y25D02*
X3302Y25D01*
X52Y24D02*
X71Y24D01*
X3282Y24D02*
X3301Y24D01*
X54Y23D02*
X73Y23D01*
X3280Y23D02*
X3300Y23D01*
X55Y22D02*
X76Y22D01*
X3277Y22D02*
X3298Y22D01*
X57Y21D02*
X78Y21D01*
X3275Y21D02*
X3296Y21D01*
X58Y20D02*
X81Y20D01*
X3273Y20D02*
X3295Y20D01*
X60Y19D02*
X83Y19D01*
X3270Y19D02*
X3293Y19D01*
X62Y18D02*
X86Y18D01*
X3267Y18D02*
X3291Y18D01*
X64Y17D02*
X89Y17D01*
X3264Y17D02*
X3290Y17D01*
X66Y16D02*
X93Y16D01*
X3260Y16D02*
X3288Y16D01*
X68Y15D02*
X97Y15D01*
X3256Y15D02*
X3286Y15D01*
X70Y14D02*
X103Y14D01*
X3251Y14D02*
X3284Y14D01*
X72Y13D02*
X111Y13D01*
X3243Y13D02*
X3281Y13D01*
X74Y12D02*
X3279Y12D01*
X77Y11D02*
X3277Y11D01*
X79Y10D02*
X3274Y10D01*
X82Y9D02*
X3271Y9D01*
X85Y8D02*
X3268Y8D01*
X88Y7D02*
X3265Y7D01*
X92Y6D02*
X3262Y6D01*
X96Y5D02*
X3257Y5D01*
X101Y4D02*
X3252Y4D01*
X108Y3D02*
X3246Y3D01*
D02*
G04 End of Silk1*
M02*