; NON-PLATED HOLES START AT T1
; THROUGH (PLATED) HOLES START AT T100
M48
INCH
T100C0.044111
T101C0.044139
%
T100
X015333Y021389
X006333Y020389
X006333Y021389
X011333Y020389
X017333Y020389
X018333Y021389
X021333Y020389
X003333Y020389
X009333Y020389
X008333Y020389
X010333Y020389
X021333Y021389
X008333Y021389
X022333Y021389
X003333Y021389
X015333Y020389
X004333Y021389
X016333Y021389
X004333Y020389
X013333Y020389
X017333Y021389
X010333Y021389
X005333Y021389
X009333Y021389
X011333Y021389
X018333Y020389
X016333Y020389
X013333Y021389
X020333Y020389
X005333Y020389
X022333Y020389
X020333Y021389
T101
X019333Y020389
X007333Y020389
X014333Y021389
X007333Y021389
X012333Y021389
X019333Y021389
X012333Y020389
X014333Y020389
T00
M30
